<svg width="343" height="154" viewBox="0 0 343 154" fill="none" xmlns="http://www.w3.org/2000/svg">
<path d="M170.5 154C226.005 154 271 151.761 271 149C271 146.239 226.005 144 170.5 144C114.995 144 70 146.239 70 149C70 151.761 114.995 154 170.5 154Z" fill="#E9ECF2"/>
<path d="M104.655 133.311C87.2239 127.899 63.6272 100.827 73.2146 74.4364C78.6707 59.421 95.7998 58.3026 109.262 55.8091C127.972 52.3427 136.392 41.3187 148.785 27.7498C162.632 12.5889 194.081 -5.11973 221.895 18.4775C229.385 24.8312 230.579 37.1219 240.243 45.7466C249.964 54.4226 262.64 54.4625 268.344 71.6376C272.789 85.0211 253.654 112.864 240.688 121.16C216.712 136.509 143.965 145.516 104.655 133.311Z" fill="#F3FAFF"/>
<path d="M279 78C278.997 78.1004 278.994 78.1979 278.991 78.2982C278.713 90.4944 276.981 99.9232 274.5 107.21L268.073 110.783L273.235 110.255L273.383 110.241C270.183 118.225 266.07 123.275 262.268 126.46C259.901 128.448 257.654 129.712 255.823 130.512C255.703 130.567 255.584 130.619 255.464 130.667C255.168 130.791 254.884 130.903 254.614 131H251.181C251.141 130.837 251.107 130.676 251.073 130.512C251.047 130.409 251.027 130.309 251.007 130.206C250.976 130.071 250.95 129.936 250.922 129.801C247.691 113.866 253.442 101.598 260.567 93.0093C260.587 92.9806 260.609 92.952 260.638 92.9233C263.118 89.9438 265.763 87.4088 268.249 85.3211L269.56 89.2871L270.061 83.8557C274.378 80.4776 277.922 78.5592 278.792 78.109C278.929 78.0315 279 78 279 78Z" fill="#00DBAA"/>
<path d="M279 78.1289L278.874 78.3609L271.028 92.8175L270.888 93.0725L268.749 97.0139L268.677 97.1457L261.856 109.712L261.847 109.729L250.732 130.207L250.566 130.513L250.3 131H250L250.26 130.513L250.646 129.803L261.615 109.594L261.819 109.219L278.674 78.169L278.768 78L279 78.1289Z" fill="#00DBAA"/>
<path d="M278.213 90.9894L269 97L269.118 97.2055L278.331 91.1949L278.213 90.9894Z" fill="white"/>
<path d="M277.569 89.4334L271 93.999L271.117 94.2154L277.686 89.6497L277.569 89.4334Z" fill="white"/>
<path d="M261.304 92.9815L261 92.9995L262.689 109.915L262.993 109.897L261.304 92.9815Z" fill="white"/>
<path opacity="0.6" d="M250 133.583C250 133.583 257.931 137.86 269.86 131.553L266.201 129.571L272.311 130.139C276.99 127.21 282.2 122.647 287.723 115.658L286.326 114.904L288.179 115.075C289.111 113.879 290.051 112.614 291 111.275C291 111.275 287.617 110.795 282.733 111.103L280.062 114.356L280.935 111.252C270.929 112.243 256.198 116.697 250 133.583Z" fill="#00DBAA"/>
<path d="M290.704 111.326L249 133L249.12 133.234L290.824 111.559L290.704 111.326Z" fill="white"/>
<path d="M280.039 116.79L280 117L285.948 117.788L285.987 117.578L280.039 116.79Z" fill="white"/>
<path d="M277.057 117.736L277 118L283.791 119.698L283.848 119.434L277.057 117.736Z" fill="white"/>
<path d="M260.195 120L260 119.745C263.628 116.729 267.971 114.459 272.915 113L273 113.313C268.1 114.763 263.789 117.011 260.195 120Z" fill="#2E4882"/>
<path d="M258 41.6473V146.353C258 147.814 256.832 149 255.388 149H204.612C203.17 149 202 147.814 202 146.353V41.6473C202 40.1836 203.17 39 204.612 39H255.388C256.832 39 258 40.1836 258 41.6473Z" fill="url(#paint0_linear_532_15058)"/>
<path d="M255 41.6473V146.353C255 147.814 253.832 149 252.388 149H201.612C200.17 149 199 147.814 199 146.353V41.6473C199 40.1836 200.17 39 201.612 39H252.388C253.832 39 255 40.1836 255 41.6473Z" fill="url(#paint1_linear_532_15058)"/>
<path d="M252 53.0552V135.945C252 137.632 250.715 139 249.133 139H205.867C204.284 139 203 137.632 203 135.945V53.0552C203 51.3677 204.284 50 205.867 50H249.133C250.718 50 252 51.3677 252 53.0552Z" fill="#E1EAFF"/>
<path d="M234.742 45H220.258C220.116 45 220 44.7753 220 44.5C220 44.2247 220.116 44 220.258 44H234.742C234.884 44 235 44.2247 235 44.5C235 44.7809 234.884 45 234.742 45Z" fill="#2E4882"/>
<path d="M240.154 111H214.846C213.282 111 212 109.677 212 108.063V106.937C212 105.323 213.282 104 214.846 104H240.154C241.718 104 243 105.323 243 106.937V108.063C243 109.677 241.721 111 240.154 111Z" fill="#608BE2"/>
<path d="M249.48 139H205.52C203.579 139 202 137.359 202 135.34V52.6598C202 50.6434 203.579 49 205.52 49H249.48C251.421 49 253 50.6405 253 52.6598V135.34C253 137.359 251.421 139 249.48 139ZM205.52 50.2247C204.25 50.2247 203.216 51.3184 203.216 52.6627V135.343C203.216 136.687 204.25 137.781 205.52 137.781H249.48C250.75 137.781 251.784 136.687 251.784 135.343V52.6627C251.784 51.3184 250.75 50.2247 249.48 50.2247H205.52Z" fill="white"/>
<path d="M207.533 93H248.467C249.309 93 250 92.3214 250 91.4881V65.5119C250 64.6814 249.312 64 248.467 64H207.533C206.691 64 206 64.6785 206 65.5119V91.4881C206 92.3186 206.688 93 207.533 93Z" fill="url(#paint2_linear_532_15058)"/>
<path d="M216.596 84H209.404C209.181 84 209 83.8346 209 83.631V82.369C209 82.1654 209.181 82 209.404 82H216.596C216.819 82 217 82.1654 217 82.369V83.631C217 83.8346 216.819 84 216.596 84Z" fill="white"/>
<path d="M226.596 84H219.404C219.181 84 219 83.8346 219 83.631V82.369C219 82.1654 219.181 82 219.404 82H226.596C226.819 82 227 82.1654 227 82.369V83.631C227 83.8346 226.819 84 226.596 84Z" fill="white"/>
<path d="M235.596 84H228.404C228.181 84 228 83.8346 228 83.631V82.369C228 82.1654 228.181 82 228.404 82H235.596C235.819 82 236 82.1654 236 82.369V83.631C236 83.8346 235.819 84 235.596 84Z" fill="white"/>
<path d="M245.596 84H238.404C238.181 84 238 83.8346 238 83.631V82.369C238 82.1654 238.181 82 238.404 82H245.596C245.819 82 246 82.1654 246 82.369V83.631C246 83.8346 245.819 84 245.596 84Z" fill="white"/>
<path d="M246.481 88H236.519C236.235 88 236 87.7967 236 87.5502V86.4498C236 86.2033 236.235 86 236.519 86H246.481C246.765 86 247 86.2033 247 86.4498V87.5502C247 87.7992 246.768 88 246.481 88Z" fill="white"/>
<path d="M211 72.8952V70.1048C211 69.4943 211.521 69 212.158 69H217.842C218.482 69 219 69.497 219 70.1048V72.8952C219 73.5057 218.479 74 217.842 74H212.158C211.521 74.0027 211 73.5057 211 72.8952ZM212.158 69.2971C211.691 69.2971 211.309 69.6591 211.309 70.1075V72.8979C211.309 73.3436 211.688 73.7083 212.158 73.7083H217.842C218.309 73.7083 218.691 73.3463 218.691 72.8979V70.1075C218.691 69.6618 218.312 69.2971 217.842 69.2971H212.158Z" fill="white"/>
<path d="M246 70.8609C246 70.8249 246.011 70.7917 246.033 70.764C247.03 69.5158 247.03 67.4815 246.033 66.2332C245.991 66.1806 245.991 66.092 246.033 66.0394C246.075 65.9869 246.146 65.9869 246.188 66.0394C247.271 67.3957 247.271 69.6043 246.188 70.9606C246.146 71.0131 246.075 71.0131 246.033 70.9606C246.011 70.9329 246 70.8969 246 70.8609Z" fill="white"/>
<path d="M245 67.1195C245 67.088 245.015 67.0588 245.045 67.0346C245.102 66.9885 245.197 66.9885 245.254 67.0346C246.249 67.8425 246.249 69.1575 245.254 69.9654C245.197 70.0115 245.102 70.0115 245.045 69.9654C244.988 69.9193 244.988 69.8417 245.045 69.7956C245.923 69.0823 245.923 67.9201 245.045 67.2044C245.015 67.1801 245 67.151 245 67.1195Z" fill="white"/>
<path d="M244 69.8582C244 69.8215 244.022 69.7876 244.066 69.7593C244.726 69.3387 244.726 68.6556 244.066 68.2378C243.982 68.1842 243.982 68.0939 244.066 68.0402C244.15 67.9866 244.292 67.9866 244.376 68.0402C245.208 68.5709 245.208 69.4319 244.376 69.9598C244.292 70.0134 244.15 70.0134 244.066 69.9598C244.022 69.9287 244 69.8948 244 69.8582Z" fill="white"/>
<path d="M255.997 126H255.539V41.8832C255.539 40.549 254.459 39.461 253.13 39.461H201.868C200.541 39.461 199.458 40.5461 199.458 41.8832V113.929H199V41.8832C199 40.2941 200.287 39 201.868 39H253.132C254.713 39 256 40.2941 256 41.8832V126H255.997Z" fill="#2E4882"/>
<path d="M208 149H201.945C200.322 149 199 147.707 199 146.118V134H199.471V146.121C199.471 147.455 200.579 148.542 201.945 148.542H208V149Z" fill="#2E4882"/>
<path d="M231.456 149H226V149.458H231.456V149Z" fill="#2E4882"/>
<path d="M259.286 148.421C259.286 149.21 253.507 149.852 246.384 149.852C239.26 149.852 233.481 149.21 233.481 148.421C233.481 148.407 233.484 148.393 233.487 148.378V144.514H259.278V148.37C259.283 148.387 259.286 148.404 259.286 148.421Z" fill="#F49B51"/>
<path d="M246.38 145.976C253.506 145.976 259.282 145.335 259.282 144.545C259.282 143.755 253.506 143.115 246.38 143.115C239.254 143.115 233.478 143.755 233.478 144.545C233.478 145.335 239.254 145.976 246.38 145.976Z" fill="#FCC659"/>
<path d="M262.338 143.757C262.338 144.547 256.56 145.188 249.436 145.188C242.312 145.188 236.534 144.547 236.534 143.757C236.534 143.743 236.537 143.729 236.539 143.715V139.851H262.33V143.706C262.335 143.723 262.338 143.738 262.338 143.757Z" fill="#F49B51"/>
<path d="M249.432 141.316C256.558 141.316 262.334 140.676 262.334 139.886C262.334 139.096 256.558 138.455 249.432 138.455C242.306 138.455 236.53 139.096 236.53 139.886C236.53 140.676 242.306 141.316 249.432 141.316Z" fill="#FCC659"/>
<path d="M259.286 139.096C259.286 139.885 253.507 140.526 246.384 140.526C239.26 140.526 233.481 139.885 233.481 139.096C233.481 139.082 233.484 139.067 233.487 139.053V135.189H259.278V139.045C259.283 139.065 259.286 139.079 259.286 139.096Z" fill="#F49B51"/>
<path d="M246.38 136.656C253.506 136.656 259.282 136.016 259.282 135.226C259.282 134.436 253.506 133.795 246.38 133.795C239.254 133.795 233.478 134.436 233.478 135.226C233.478 136.016 239.254 136.656 246.38 136.656Z" fill="#FCC659"/>
<path d="M246.379 150.001C241.132 150.001 233.323 149.579 233.323 148.419H233.627C233.627 148.864 238.006 149.696 246.379 149.696C246.683 149.696 246.984 149.696 247.283 149.693L247.286 149.998C246.987 150.001 246.683 150.001 246.379 150.001Z" fill="#2E4882"/>
<path d="M251.501 149.885L251.486 149.58C252.792 149.517 253.992 149.432 255.047 149.323L255.078 149.628C254.014 149.736 252.812 149.822 251.501 149.885Z" fill="#2E4882"/>
<path d="M241.287 144.996C236.438 144.554 236.438 143.942 236.438 143.739H236.743C236.743 143.887 237.565 144.349 241.313 144.691L241.287 144.996Z" fill="#2E4882"/>
<path d="M249.486 145.319C248.036 145.319 246.611 145.293 245.252 145.239L245.263 144.934C247.689 145.028 250.374 145.04 252.873 144.963L252.882 145.267C251.778 145.302 250.635 145.319 249.486 145.319Z" fill="#2E4882"/>
<path d="M256.097 145.121L256.077 144.816C257.454 144.725 258.654 144.608 259.643 144.469L259.686 144.771C258.688 144.913 257.482 145.03 256.097 145.121Z" fill="#2E4882"/>
<path d="M237.712 136.442C233.412 136.003 233.412 135.448 233.412 135.24H233.716C233.716 135.245 233.827 135.738 237.743 136.14L237.712 136.442Z" fill="#2E4882"/>
<path d="M246.456 136.817C244.971 136.817 243.521 136.788 242.145 136.734L242.156 136.429C243.529 136.483 244.977 136.512 246.456 136.512C249.103 136.512 251.646 136.424 253.81 136.255L253.833 136.56C251.663 136.728 249.112 136.817 246.456 136.817Z" fill="#2E4882"/>
<path d="M263.852 134.432C263.852 135.222 258.074 135.863 250.95 135.863C243.826 135.863 238.048 135.222 238.048 134.432C238.048 134.418 238.051 134.404 238.054 134.39V130.525H263.844V134.381C263.85 134.398 263.852 134.415 263.852 134.432Z" fill="#F49B51"/>
<path d="M250.95 131.987C258.076 131.987 263.852 131.347 263.852 130.557C263.852 129.766 258.076 129.126 250.95 129.126C243.824 129.126 238.048 129.766 238.048 130.557C238.048 131.347 243.824 131.987 250.95 131.987Z" fill="#FCC659"/>
<path d="M261.461 130.558C261.461 131.088 256.755 131.518 250.953 131.518C245.149 131.518 240.445 131.088 240.445 130.558C240.445 130.027 245.152 129.597 250.953 129.597C256.755 129.597 261.461 130.027 261.461 130.558Z" fill="#F49B51"/>
<path d="M217.473 123.675C210.278 123.478 204.289 129.163 204.09 136.376C203.894 143.585 209.567 149.59 216.765 149.786C223.96 149.983 229.951 144.298 230.148 137.085C230.344 129.876 224.67 123.871 217.473 123.675ZM227.608 137.017C227.531 139.824 226.368 142.431 224.332 144.363C222.299 146.295 219.637 147.319 216.836 147.242C211.054 147.082 206.479 142.243 206.635 136.447C206.712 133.64 207.872 131.033 209.908 129.101C211.871 127.237 214.419 126.22 217.115 126.22C217.214 126.22 217.308 126.222 217.407 126.225C223.095 126.379 227.611 131.067 227.611 136.729C227.611 136.826 227.611 136.92 227.608 137.017Z" fill="#FCC659"/>
<path d="M227.617 136.728C227.617 136.825 227.617 136.919 227.614 137.016C227.537 139.823 226.374 142.43 224.338 144.363C222.305 146.295 219.643 147.318 216.842 147.241C211.06 147.081 206.485 142.242 206.641 136.446C206.718 133.639 207.878 131.032 209.914 129.1C211.877 127.236 214.425 126.219 217.121 126.219C217.22 126.219 217.314 126.222 217.413 126.224C223.098 126.375 227.617 131.063 227.617 136.728Z" fill="#F49B51"/>
<path d="M216.464 144.771V142.793C215.329 142.773 214.158 142.42 213.475 141.932L213.944 140.622C214.647 141.092 215.665 141.462 216.76 141.462C218.147 141.462 219.086 140.659 219.086 139.544C219.086 138.467 218.324 137.8 216.876 137.213C214.883 136.43 213.651 135.529 213.651 133.825C213.651 132.201 214.803 130.967 216.603 130.673V128.696H217.815V130.597C218.986 130.636 219.788 130.95 220.354 131.28L219.865 132.574C219.456 132.341 218.654 131.907 217.402 131.907C215.898 131.907 215.332 132.808 215.332 133.592C215.332 134.609 216.054 135.119 217.755 135.823C219.768 136.646 220.784 137.664 220.784 139.408C220.784 140.955 219.709 142.403 217.695 142.736V144.774H216.464V144.771Z" fill="#FCC659"/>
<path d="M227.183 134.099C227.16 134.014 227.137 133.928 227.112 133.843C226.278 130.962 224.254 128.588 221.543 127.317L221.663 127.058C224.444 128.363 226.529 130.799 227.379 133.743C227.41 133.848 227.433 133.934 227.456 134.022L227.183 134.099Z" fill="#2E4882"/>
<path d="M221.547 127.315C219.368 126.292 216.891 126.064 214.565 126.671L214.494 126.394C216.883 125.77 219.431 126.007 221.669 127.056L221.547 127.315Z" fill="#2E4882"/>
<path d="M226.339 142.1L226.094 141.955C226.791 140.766 227.24 139.481 227.428 138.133L227.71 138.173C227.516 139.558 227.055 140.88 226.339 142.1Z" fill="#2E4882"/>
<path d="M225.607 127.013C224.6 126.13 223.468 125.412 222.246 124.879L222.368 124.6C223.622 125.144 224.779 125.879 225.809 126.785L225.607 127.013Z" fill="#2E4882"/>
<path d="M224.47 147.701L224.3 147.447C227.749 145.119 229.876 141.247 229.99 137.086C230.061 134.501 229.367 131.985 227.985 129.814L228.241 129.648C229.655 131.874 230.363 134.447 230.292 137.095C230.178 141.352 228.002 145.319 224.47 147.701Z" fill="#2E4882"/>
<path d="M249.527 71.3378H249.223V65.5216C249.223 64.7636 248.606 64.1452 247.849 64.1452H221.885V63.8403H247.849C248.773 63.8403 249.527 64.5955 249.527 65.5216V71.3378Z" fill="#2E4882"/>
<path d="M249.519 74.3975H249.216V77.7629H249.519V74.3975Z" fill="#2E4882"/>
<path d="M218.522 63.8364H213.23V64.1413H218.522V63.8364Z" fill="#2E4882"/>
<path d="M123.325 32.43C125.442 30.715 127.388 28.6496 128.307 26.0885C129.223 23.5274 128.909 20.3908 126.977 18.4707C125.402 16.9067 123.011 16.3768 120.802 16.6246C118.594 16.8725 116.525 17.8098 114.556 18.8325C110.787 20.7925 88.8548 34.3673 96.4793 38.8399C103.819 43.1445 117.655 37.0224 123.325 32.43Z" fill="#F3FAFF"/>
<path d="M72.8841 68.6414L72.6216 68.4847C75.7148 63.334 80.697 59.8385 88.3044 57.4854L88.3957 57.7759C80.8653 60.1063 75.9345 63.5591 72.8841 68.6414Z" fill="#2E4882"/>
<path d="M68.9239 70.643L68.6357 70.5376C72.6278 59.581 82.8775 56.0655 92.3768 54.0713L92.4396 54.3704C83.0259 56.3475 72.8675 59.826 68.9239 70.643Z" fill="#2E4882"/>
<path d="M207.208 6.82572C200.188 3.24472 194.247 2.27897 188.506 3.78885L188.429 3.49257C194.247 1.96274 200.256 2.9342 207.347 6.55223L207.208 6.82572Z" fill="#2E4882"/>
<path d="M212.479 7.20973C204.358 2.05902 194.654 -2.53332 184.267 2.4607L184.136 2.18437C194.659 -2.87518 204.453 1.75419 212.648 6.95048L212.479 7.20973Z" fill="#2E4882"/>
<path d="M174.216 21.1119C166.997 20.9153 160.987 26.5988 160.788 33.8092C160.591 41.0168 166.283 47.0193 173.506 47.2158C180.725 47.4124 186.737 41.729 186.934 34.5185C187.131 27.311 181.438 21.3085 174.216 21.1119ZM184.386 34.4502C184.309 37.2563 183.142 39.863 181.099 41.7945C179.059 43.726 176.388 44.7487 173.577 44.6718C167.776 44.5123 163.185 39.675 163.342 33.8804C163.419 31.0743 164.583 28.4676 166.626 26.5361C168.595 24.6729 171.152 23.6559 173.857 23.6559C173.957 23.6559 174.051 23.6588 174.151 23.6616C179.858 23.8154 184.389 28.5018 184.389 34.1624C184.386 34.2593 184.386 34.3533 184.386 34.4502Z" fill="#FCC659"/>
<path d="M184.389 34.1643C184.389 34.2611 184.389 34.3551 184.386 34.452C184.309 37.2581 183.142 39.8648 181.099 41.7963C179.059 43.7278 176.388 44.7506 173.577 44.6736C167.776 44.5141 163.185 39.6768 163.342 33.8822C163.419 31.0761 164.583 28.4694 166.626 26.5379C168.595 24.6748 171.152 23.6577 173.857 23.6577C173.957 23.6577 174.051 23.6606 174.151 23.6634C179.855 23.8173 184.389 28.5036 184.389 34.1643Z" fill="#F49B51"/>
<path d="M173.192 42.2027V40.2256C172.053 40.2056 170.878 39.8524 170.193 39.3652L170.664 38.0547C171.369 38.5248 172.39 38.8951 173.489 38.8951C174.881 38.8951 175.823 38.0918 175.823 36.9779C175.823 35.901 175.058 35.2344 173.606 34.6475C171.605 33.8641 170.37 32.9639 170.37 31.2602C170.37 29.6364 171.525 28.4029 173.332 28.1094V26.1323H174.547V28.0325C175.723 28.0724 176.528 28.3858 177.095 28.7162L176.605 30.0096C176.194 29.776 175.389 29.343 174.134 29.343C172.624 29.343 172.056 30.2432 172.056 31.0266C172.056 32.0437 172.781 32.5536 174.487 33.2573C176.508 34.0806 177.526 35.0976 177.526 36.8411C177.526 38.3881 176.448 39.8353 174.427 40.1686V42.2055H173.192V42.2027Z" fill="#FCC659"/>
<path d="M183.97 31.5557C183.947 31.4645 183.922 31.3762 183.896 31.2879C183.066 28.4191 181.031 26.0489 178.314 24.7783L178.434 24.519C181.225 25.8238 183.317 28.2596 184.17 31.2024C184.198 31.2993 184.224 31.3905 184.247 31.4816L183.97 31.5557Z" fill="#2E4882"/>
<path d="M178.313 24.7789C176.127 23.7562 173.638 23.5283 171.307 24.1351L171.236 23.8588C173.633 23.2349 176.19 23.4713 178.435 24.5197L178.313 24.7789Z" fill="#2E4882"/>
<path d="M163.589 36.8446C162.872 34.0898 163.272 31.221 164.713 28.771L164.958 28.9163C163.554 31.3008 163.163 34.0926 163.862 36.7734L163.589 36.8446Z" fill="#2E4882"/>
<path d="M182.36 24.6937C181.35 23.8106 180.214 23.0927 178.987 22.5599L179.11 22.2808C180.368 22.8249 181.53 23.5599 182.563 24.4658L182.36 24.6937Z" fill="#2E4882"/>
<path d="M181.238 45.3712L181.067 45.1176C184.528 42.7901 186.663 38.9185 186.777 34.7592C186.848 32.1753 186.152 29.6598 184.765 27.489L185.022 27.3237C186.44 29.5487 187.151 32.1212 187.079 34.7678C186.968 39.0239 184.782 42.9867 181.238 45.3712Z" fill="#2E4882"/>
<path d="M172.047 62.2865L173.206 57.3295L177.937 55.3638L178.779 62.2865C178.779 62.2865 178.077 66.7848 173.725 68.3944C169.377 70.0068 172.047 62.2865 172.047 62.2865Z" fill="#FCB47E"/>
<path d="M170.185 49.25C170.185 49.25 168.502 58.5686 171.238 58.6398C173.975 58.7111 176.22 57.6598 176.782 57.0274C177.345 56.3978 177.764 53.3153 177.764 53.3153C177.764 53.3153 178.115 49.3213 176.431 48.5521C174.748 47.78 171.098 46.4496 170.185 49.25Z" fill="#FCB47E"/>
<path d="M179.184 55.1832C178.648 56.1746 178.114 57.146 178.114 57.146C177.315 57.0207 176.431 56.0236 176.274 55.1633C176.274 55.1633 173.757 54.9296 173.669 51.8187C173.669 51.8187 169.3 51.8472 169.197 48.0611C169.092 44.2778 173.46 45.2521 174.907 46.4087C176.354 47.5625 177.23 48.1522 179.484 48.8787C181.855 49.6422 179.875 53.9126 179.184 55.1832Z" fill="#374263"/>
<path d="M177.159 145.186L176.619 139.679H170.79L172.057 145.026C172.057 145.026 172.733 146.818 174.693 146.752C176.576 146.69 177.159 145.186 177.159 145.186Z" fill="#FCB47E"/>
<path d="M205.835 127.963L201.358 124.701L197.48 129.049L203.218 131.951C203.218 131.951 203.929 132.091 205.367 130.84C206.788 129.607 205.835 127.963 205.835 127.963Z" fill="#FCB47E"/>
<path d="M182.051 141.396C178.676 142.669 174.364 142.321 169.716 141.396C169.582 141.071 169.448 140.749 169.319 140.421C160.462 118.072 166.734 85.6123 166.734 85.6123H180.662L180.348 96.3411C179.737 99.1757 179.318 102.047 179.047 104.893C177.278 123.61 182.051 141.396 182.051 141.396Z" fill="#3F5A9F"/>
<path d="M182.052 141.392C181.835 140.956 173.902 124.863 176.265 106.707L178.779 108.73C177.925 125.726 181.937 140.964 182.052 141.392Z" fill="#385087"/>
<path d="M204.56 122.138C203.282 125.722 201.921 128.503 200.44 130.129C199.752 130.884 199.039 131.391 198.294 131.611C196.16 130.517 194.205 129.332 192.416 128.075C192.171 127.907 191.934 127.736 191.694 127.563C191.377 127.332 191.063 127.095 190.761 126.859C190.621 126.751 190.481 126.645 190.347 126.534C190.073 126.321 189.802 126.101 189.54 125.885C189.303 125.688 189.072 125.491 188.846 125.295C187.645 124.255 186.538 123.187 185.513 122.09C185.416 121.987 185.316 121.879 185.222 121.777C185.151 121.7 185.082 121.62 185.011 121.546L185.008 121.543C170.961 105.954 173.54 85.6162 173.54 85.6162H185.759C186.809 105.114 204.56 122.138 204.56 122.138Z" fill="#3F5A9F"/>
<path d="M188.491 43.4005C187.449 42.6398 186.722 42.221 186.545 42.0957C186.322 41.9361 186.271 41.543 186.011 41.1442C185.415 40.2297 184.174 38.6144 182.892 38.1671C182.727 38.1073 182.601 38.2839 182.778 38.472C183.092 38.8167 183.686 39.3124 183.594 39.395C183.398 39.5602 182.008 37.8908 181.617 38.2782C181.323 38.5717 183.335 40.0588 183.255 40.1528C183.098 40.3408 181.583 38.6343 181.215 39.0218C180.864 39.3864 182.681 40.3436 182.604 40.5032C182.521 40.6684 181.263 39.6286 181.015 39.865C180.638 40.224 182.91 41.6285 182.847 41.8364C182.767 42.1726 181.591 41.4689 181.417 41.8678C181.246 42.241 182.89 42.9446 183.201 43.1013C183.92 43.4603 184.442 43.3036 185.015 44.1981C185.332 44.6881 185.643 45.1781 185.951 45.671L188.491 43.4005Z" fill="#FCB47E"/>
<path d="M159.723 44.5106C160.679 43.6446 161.355 43.1489 161.518 43.0065C161.721 42.8241 161.732 42.4281 161.946 42.0037C162.443 41.0322 163.501 39.2944 164.731 38.7104C164.888 38.6335 165.033 38.793 164.877 39.001C164.603 39.377 164.066 39.9325 164.166 40.0066C164.38 40.1491 165.581 38.3429 166.012 38.6848C166.338 38.944 164.497 40.6391 164.585 40.7217C164.762 40.8926 166.084 39.0352 166.492 39.3799C166.88 39.7075 165.173 40.8499 165.27 41.0009C165.37 41.1575 166.512 39.9867 166.783 40.1975C167.194 40.5137 165.088 42.1546 165.17 42.3541C165.287 42.6817 166.377 41.8555 166.594 42.2316C166.806 42.5848 165.245 43.4594 164.954 43.6474C164.277 44.0805 163.741 43.9836 163.267 44.9323C163.005 45.4536 162.748 45.9721 162.494 46.4963L159.723 44.5106Z" fill="#FCB47E"/>
<path d="M185.886 87.2122C184.796 87.9045 182.887 89.027 180.535 89.9984C178.427 90.8645 175.961 91.6166 173.407 91.8388C170.928 92.0553 168.36 91.7704 165.951 90.6138C166.105 89.4742 166.251 88.5056 166.373 87.7336C168.582 88.9016 170.979 89.3916 173.356 89.46C175.864 89.5341 178.352 89.1324 180.578 88.554C182.613 88.027 184.43 87.349 185.84 86.7422C185.851 86.8989 185.869 87.0556 185.886 87.2122Z" fill="#385087"/>
<path d="M163.659 85.7298V70.3831C163.659 70.3831 149.845 68.0414 152.559 54.6888C154.282 46.205 160.349 43.1738 160.349 43.1738L163.713 45.8717C163.713 45.8717 156.559 56.7856 165.976 60.5774C165.976 60.5774 171.272 60.4122 172.65 61.8992C172.65 61.8992 175.683 64.3236 178.885 60.301C178.885 60.301 182.141 59.0333 184.915 59.7797C187.197 60.3922 190.139 54.7401 184.678 45.1566L188.099 42.0713C188.099 42.0713 208.125 61.2924 188.484 70.8218L187.388 86.1543C187.388 86.1572 172.185 94.7635 163.659 85.7298Z" fill="#6D92F0"/>
<path d="M175.678 55.7244C176.28 55.7244 176.768 55.2371 176.768 54.6361C176.768 54.0351 176.28 53.5479 175.678 53.5479C175.076 53.5479 174.588 54.0351 174.588 54.6361C174.588 55.2371 175.076 55.7244 175.678 55.7244Z" fill="#FCB47E"/>
<path d="M178.652 112.525C176.084 107.551 174.406 102.016 173.659 96.0787L173.901 96.0474C174.646 101.956 176.315 107.463 178.869 112.411L178.652 112.525Z" fill="white"/>
<path d="M185.219 94.966C181.352 94.966 180.117 91.6129 180.103 91.5787L180.331 91.4961C180.342 91.5303 181.552 94.8207 185.399 94.721L185.404 94.9631C185.344 94.966 185.282 94.966 185.219 94.966Z" fill="white"/>
<path d="M174.585 63.9013C174.514 63.9013 174.44 63.8985 174.368 63.8899C172.63 63.7304 171.752 61.7049 171.717 61.6166L171.94 61.5225C171.948 61.5425 172.799 63.5025 174.391 63.6478C175.729 63.7703 177.207 62.6222 178.788 60.2349L178.991 60.3688C177.439 62.7162 175.958 63.9013 174.585 63.9013Z" fill="#2E4882"/>
<path d="M163.659 70.3862C163.659 70.3862 149.842 68.0444 152.556 54.6891C152.701 53.9597 152.884 53.2646 153.092 52.6151C153.126 52.5781 153.164 52.541 153.195 52.5068C152.967 55.5209 152.858 58.1618 154.197 61.0163C156.996 66.9875 163.85 70.3691 163.659 70.3862Z" fill="#608BE2"/>
<path d="M188.485 70.8285L187.389 86.161C187.389 86.161 184.233 87.95 179.987 89.0411C180.721 88.4856 183.811 83.7679 184.327 81.3834C185.255 77.1073 185.372 74.6459 185.492 70.0906C190.063 68.9055 195.271 64.8858 197.063 58.1768C197.471 62.7549 195.525 67.4127 188.485 70.8285Z" fill="#608BE2"/>
<path d="M173.872 88.2483C173.829 88.2483 173.806 88.2483 173.801 88.2483L173.806 88.0062C173.872 88.0062 180.292 88.0973 185.851 84.7129L185.977 84.9209C180.672 88.1486 174.591 88.2483 173.872 88.2483Z" fill="#2E4882"/>
<path d="M200.435 130.132C199.747 130.887 199.034 131.394 198.289 131.614C196.155 130.52 194.2 129.335 192.411 128.078C192.166 127.91 191.929 127.739 191.689 127.566C191.372 127.335 191.059 127.098 190.756 126.862C190.616 126.754 190.476 126.648 190.342 126.537C190.068 126.323 189.797 126.104 189.535 125.888C189.298 125.691 189.067 125.494 188.841 125.298C187.64 124.258 186.533 123.19 185.509 122.093C185.412 121.99 185.312 121.882 185.218 121.78C185.146 121.703 185.078 121.623 185.006 121.549C193.364 128.44 198.709 129.85 200.435 130.132Z" fill="#385087"/>
<path d="M202.751 121.655C196.87 117.843 193.132 110.952 193.095 110.884L193.298 110.775C193.335 110.844 197.044 117.681 202.877 121.461L202.751 121.655Z" fill="white"/>
<path d="M177.871 149.568H164.645C164.185 149.568 163.817 149.177 163.851 148.719C163.851 148.713 163.851 148.707 163.851 148.702C163.86 148.602 163.874 148.496 163.888 148.394C163.934 148.043 164.028 147.69 164.194 147.471C164.822 146.639 166.037 146.26 168.209 145.403C169.57 144.861 170.725 144.143 171.233 143.807C171.399 143.696 171.613 143.725 171.756 143.861C174.372 146.414 175.979 145.87 176.458 144.819C176.826 144.015 177.345 144.183 177.488 144.42C177.928 145.155 178.17 147.311 178.267 148.394C178.279 148.511 178.29 148.616 178.296 148.702C178.31 148.904 178.321 149.026 178.321 149.026C178.373 149.308 178.156 149.568 177.871 149.568Z" fill="#374263"/>
<path d="M168.972 146.795C168.033 146.339 168.173 145.37 168.173 145.362L168.398 145.396C168.393 145.43 168.287 146.208 169.069 146.587L168.972 146.795Z" fill="white"/>
<path d="M167.802 147.184C166.937 146.697 167.031 145.857 167.034 145.823L167.262 145.851C167.26 145.88 167.188 146.578 167.916 146.988L167.802 147.184Z" fill="white"/>
<path d="M175.268 146.607C174.384 146.607 173.582 146.206 173.57 146.197L173.676 145.992C173.696 146.003 175.702 147.009 176.735 145.727L176.915 145.869C176.458 146.436 175.845 146.607 175.268 146.607Z" fill="white"/>
<path d="M176.692 148.543H168.985V148.771H176.692V148.543Z" fill="white"/>
<path d="M168.006 148.543H166.183V148.771H168.006V148.543Z" fill="white"/>
<path d="M209.817 128.753L203.356 140.274C203.131 140.675 202.611 140.806 202.226 140.55C202.223 140.547 202.218 140.544 202.215 140.542C202.129 140.485 202.046 140.422 201.961 140.359C201.678 140.146 201.416 139.892 201.307 139.641C200.888 138.69 201.151 137.445 201.462 135.134C201.656 133.684 201.59 132.331 201.547 131.719C201.533 131.522 201.661 131.348 201.85 131.291C205.359 130.26 205.668 128.596 204.983 127.662C204.461 126.95 204.86 126.577 205.137 126.568C205.996 126.542 207.996 127.383 208.989 127.83C209.1 127.876 209.197 127.918 209.277 127.955C209.46 128.041 209.571 128.092 209.571 128.092C209.837 128.186 209.954 128.502 209.817 128.753Z" fill="#374263"/>
<path d="M201.808 135.283C201.589 135.283 201.429 135.252 201.412 135.249L201.457 135.024C201.466 135.027 202.41 135.212 202.878 134.603L203.061 134.742C202.716 135.195 202.176 135.283 201.808 135.283Z" fill="white"/>
<path d="M201.706 136.533C201.486 136.533 201.327 136.502 201.31 136.499L201.355 136.274C201.364 136.277 202.308 136.462 202.776 135.853L202.959 135.992C202.614 136.445 202.074 136.533 201.706 136.533Z" fill="white"/>
<path d="M204.979 130.87L204.831 130.696C204.848 130.682 206.543 129.209 205.744 127.77L205.944 127.659C206.834 129.263 204.999 130.856 204.979 130.87Z" fill="white"/>
<path d="M208.14 129.575L204.446 136.329L204.647 136.438L208.34 129.684L208.14 129.575Z" fill="white"/>
<path d="M203.999 137.16L203.125 138.757L203.326 138.866L204.199 137.269L203.999 137.16Z" fill="white"/>
<path d="M165.928 60.7327C165.808 60.6985 162.986 59.8723 161.52 57.1801C160.509 55.3227 160.407 53.0465 161.217 50.417L161.508 50.5082C160.724 53.055 160.818 55.2486 161.785 57.032C163.186 59.6102 165.982 60.4307 166.008 60.4392L165.928 60.7327Z" fill="#2E4882"/>
<path d="M173.096 51.9973C172.032 51.9973 170.357 51.5444 169.481 50.4533C168.939 49.7781 168.497 48.5844 169.473 46.7412L169.675 46.8466C168.939 48.2397 168.933 49.4049 169.661 50.3108C170.677 51.5757 172.82 51.9375 173.647 51.7124L173.707 51.9347C173.547 51.9745 173.336 51.9973 173.096 51.9973Z" fill="#374263"/>
<path d="M172.105 52.2199C171.369 52.2199 170.487 52.0177 169.528 51.3852L169.654 51.1943C172.162 52.8467 174.085 51.4222 174.102 51.408L174.242 51.5903C174.234 51.5989 173.395 52.2199 172.105 52.2199Z" fill="#374263"/>
<path d="M62.0547 90.0532C62.0575 90.1387 62.0575 90.2242 62.0604 90.3096C62.3029 100.822 63.8096 108.947 65.9697 115.226L71.5625 118.305L67.0711 117.849L66.9427 117.838C69.7277 124.718 73.306 129.071 76.6161 131.817C78.6734 133.529 80.6309 134.621 82.2232 135.31C82.3287 135.356 82.4315 135.401 82.5342 135.441C82.791 135.549 83.0393 135.643 83.2732 135.729H86.2609C86.2951 135.589 86.3265 135.45 86.355 135.31C86.375 135.222 86.395 135.133 86.4121 135.045C86.4406 134.928 86.4635 134.811 86.4863 134.697C89.297 120.966 84.2919 110.391 78.0913 102.99C78.0742 102.964 78.0542 102.941 78.0314 102.916C75.8741 100.349 73.5714 98.1639 71.4084 96.3634L70.267 99.782L69.8305 95.1014C66.0724 92.1899 62.9878 90.5375 62.2316 90.1501C62.1175 90.0817 62.0547 90.0532 62.0547 90.0532Z" fill="#00DBAA"/>
<path d="M61.9448 90.1072L62.0561 90.3066L68.8446 102.782L68.9673 103.001L70.8192 106.403L70.882 106.517L76.783 117.356L76.7915 117.371L86.4107 135.042L86.5562 135.304L86.7845 135.726H87.047L86.8187 135.304L86.4849 134.692L76.9913 117.257L76.8144 116.932L62.2273 90.1414L62.1474 89.9961L61.9448 90.1072Z" fill="white"/>
<path d="M63.0468 101.641L62.9424 101.811L70.8036 106.624L70.9081 106.454L63.0468 101.641Z" fill="white"/>
<path d="M62.8608 99.1132L62.7563 99.2832L68.9174 103.056L69.0218 102.886L62.8608 99.1132Z" fill="white"/>
<path d="M77.7192 118.265L78.8549 103.873L78.6323 103.855L77.4995 118.251L77.7192 118.265Z" fill="white"/>
<path opacity="0.6" d="M87.6769 138.592C87.6769 138.592 80.7885 142.293 70.4246 136.837L73.6034 135.122L68.2959 135.612C64.2297 133.077 59.7069 129.128 54.9074 123.077L56.1201 122.425L54.5107 122.573C53.7003 121.539 52.8842 120.442 52.0596 119.282C52.0596 119.282 54.9958 118.867 59.2418 119.134L61.5617 121.949L60.8055 119.263C69.5001 120.12 82.2923 123.977 87.6769 138.592Z" fill="#00DBAA"/>
<path d="M52.1034 119.192L52 119.392L88.1183 138.012L88.2217 137.812L52.1034 119.192Z" fill="white"/>
<path d="M61.4603 124.107L56.4702 124.886L56.5028 125.094L61.4929 124.315L61.4603 124.107Z" fill="white"/>
<path d="M63.9329 125.338L58.1353 126.685L58.1831 126.89L63.9807 125.544L63.9329 125.338Z" fill="white"/>
<path d="M147.513 144.958H84.462C82.9182 144.958 81.6655 143.707 81.6655 142.166V99.3134C81.6655 97.7721 82.9182 96.5215 84.462 96.5215H147.513C149.056 96.5215 150.309 97.7721 150.309 99.3134V142.166C150.309 143.71 149.056 144.958 147.513 144.958Z" fill="url(#paint3_linear_532_15058)"/>
<path d="M148.243 101.545V139.93C148.243 141.554 146.924 142.873 145.295 142.873H140.846V101.089H85.4658C84.7781 101.089 84.2217 100.534 84.2217 99.8471C84.2217 99.1605 84.7781 98.605 85.4658 98.605H145.295C146.921 98.6021 148.243 99.9183 148.243 101.545Z" fill="#2E4882"/>
<path d="M131.415 97.1527C131.475 97.2268 131.538 97.3008 131.595 97.3778C133.313 99.597 134.063 102.355 133.707 105.141C133.35 107.924 131.932 110.403 129.706 112.121C125.115 115.664 118.492 114.818 114.942 110.232C113.224 108.012 112.471 105.258 112.828 102.471C113.173 99.785 114.508 97.3806 116.6 95.6741C116.677 95.6115 116.751 95.5545 116.831 95.4918C121.345 92.0048 127.826 92.7683 131.415 97.1527Z" fill="#F49B51"/>
<path d="M122.603 111.977V110C121.464 109.98 120.289 109.627 119.604 109.14L120.075 107.829C120.78 108.299 121.801 108.67 122.9 108.67C124.292 108.67 125.234 107.866 125.234 106.752C125.234 105.675 124.469 105.009 123.017 104.422C121.016 103.639 119.781 102.738 119.781 101.035C119.781 99.4108 120.937 98.1773 122.743 97.8838V95.9067H123.958V97.8069C125.134 97.8468 125.939 98.1602 126.507 98.4935L126.016 99.7869C125.605 99.5533 124.8 99.1202 123.545 99.1202C122.035 99.1202 121.467 100.02 121.467 100.804C121.467 101.821 122.192 102.331 123.899 103.035C125.919 103.858 126.937 104.875 126.937 106.618C126.937 108.165 125.859 109.613 123.839 109.946V111.983H122.603V111.977Z" fill="#FCC659"/>
<path d="M126.577 91.1735C119.592 89.3474 112.444 93.5209 110.615 100.498C108.786 107.472 112.966 114.608 119.954 116.434C126.939 118.26 134.087 114.087 135.917 107.11C137.748 100.136 133.565 93.0025 126.577 91.1735ZM133.451 106.466C132.738 109.181 131.011 111.457 128.583 112.873C126.158 114.292 123.324 114.682 120.602 113.97C114.989 112.503 111.616 106.748 113.086 101.142C113.799 98.4267 115.523 96.1504 117.951 94.7317C120.291 93.3643 123.013 92.954 125.647 93.5637C125.744 93.5865 125.835 93.6093 125.932 93.6349C131.457 95.0764 134.807 100.666 133.52 106.181C133.497 106.281 133.474 106.375 133.451 106.466Z" fill="#FCC659"/>
<path d="M104.104 80.9962C96.8846 80.7996 90.8751 86.483 90.6754 93.6935C90.4785 100.901 96.1712 106.904 103.393 107.1C110.613 107.297 116.625 101.613 116.822 94.4028C117.019 87.1952 111.326 81.1927 104.104 80.9962ZM114.274 94.3316C114.197 97.1377 113.03 99.7444 110.987 101.676C108.946 103.607 106.275 104.63 103.465 104.553C97.6636 104.394 93.0723 99.5564 93.2292 93.7618C93.3063 90.9557 94.4705 88.349 96.5136 86.4175C98.4825 84.5544 101.039 83.5373 103.744 83.5373C103.844 83.5373 103.938 83.5402 104.038 83.543C109.745 83.6969 114.277 88.3832 114.277 94.0439C114.277 94.1407 114.277 94.2376 114.274 94.3316Z" fill="#FCC659"/>
<path d="M111.888 87.3915C111.948 87.4655 112.011 87.5396 112.068 87.6165C113.786 89.8358 114.536 92.5935 114.179 95.3796C113.823 98.1629 112.405 100.641 110.179 102.359C105.588 105.903 98.9646 105.057 95.4149 100.471C93.6971 98.2513 92.9438 95.4964 93.3004 92.7103C93.6457 90.0238 94.9811 87.6194 97.0728 85.9129C97.1498 85.8502 97.224 85.7933 97.3039 85.7306C101.818 82.2436 108.298 83.0071 111.888 87.3915Z" fill="#F49B51"/>
<path d="M103.088 102.083V100.106C101.95 100.086 100.774 99.7327 100.089 99.2456L100.56 97.9351C101.265 98.4052 102.287 98.7755 103.385 98.7755C104.778 98.7755 105.719 97.9721 105.719 96.8582C105.719 95.7814 104.955 95.1147 103.502 94.5279C101.502 93.7445 100.266 92.8442 100.266 91.1406C100.266 89.5168 101.422 88.2832 103.228 87.9898V86.0127H104.444V87.9129C105.619 87.9528 106.424 88.2661 106.992 88.5994L106.501 89.8928C106.09 89.6592 105.286 89.2262 104.03 89.2262C102.521 89.2262 101.953 90.1264 101.953 90.9099C101.953 91.9269 102.677 92.4368 104.384 93.1405C106.404 93.9638 107.423 94.9809 107.423 96.7243C107.423 98.2713 106.344 99.7185 104.324 100.052V102.089H103.088V102.083Z" fill="#FCC659"/>
<path d="M112.263 84.4237C111.253 83.5406 110.117 82.8227 108.89 82.2899L109.013 82.0107C110.271 82.5549 111.433 83.2899 112.466 84.1958L112.263 84.4237Z" fill="#2E4882"/>
<path d="M111.128 105.097L110.957 104.844C114.418 102.516 116.553 98.6446 116.667 94.4853C116.738 91.9014 116.042 89.3859 114.658 87.215L114.915 87.0498C116.333 89.2748 117.044 91.8473 116.972 94.4938C116.855 98.75 114.672 102.716 111.128 105.097Z" fill="#2E4882"/>
<path d="M113.744 91.3716C113.722 91.2833 113.696 91.195 113.67 91.1067C112.837 88.235 110.805 85.8648 108.086 84.5942L108.206 84.335C110.996 85.6397 113.088 88.0755 113.941 91.0184C113.97 91.1181 113.996 91.2064 114.018 91.2975L113.744 91.3716Z" fill="#2E4882"/>
<path d="M108.083 84.589C105.897 83.5663 103.411 83.3383 101.077 83.9452L101.006 83.6688C103.403 83.0449 105.96 83.2814 108.205 84.3297L108.083 84.589Z" fill="#2E4882"/>
<path d="M112.889 99.3728L112.644 99.2275C113.343 98.0396 113.794 96.7547 113.982 95.4072L114.264 95.4471C114.07 96.8316 113.608 98.1507 112.889 99.3728Z" fill="#2E4882"/>
<path d="M143.127 148.963H84.3763C82.8783 148.963 81.6655 147.752 81.6655 146.257V103.843C81.6655 102.347 82.8783 101.137 84.3763 101.137H143.127C144.625 101.137 145.838 102.347 145.838 103.843V146.254C145.838 147.75 144.625 148.963 143.127 148.963Z" fill="url(#paint4_linear_532_15058)"/>
<path d="M106.173 147.088H86.8716C85.4191 147.088 84.2378 145.909 84.2378 144.459V140.75H84.5431V144.459C84.5431 145.741 85.5875 146.783 86.8716 146.783H106.173V147.088Z" fill="#2E4882"/>
<path d="M116.812 146.779H110.863V147.084H116.812V146.779Z" fill="#2E4882"/>
<path d="M143.284 110.765H142.979V105.651C142.979 104.369 141.935 103.326 140.651 103.326H115.446V103.021H140.651C142.103 103.021 143.284 104.201 143.284 105.651V110.765Z" fill="#2E4882"/>
<path d="M110.907 103.021H105.223V103.326H110.907V103.021Z" fill="#2E4882"/>
<path d="M84.5425 129.474H84.2378V136.693H84.5425V129.474Z" fill="#2E4882"/>
<path d="M150.244 115.23V128.745C150.244 130.443 148.868 131.819 147.165 131.819H135.454C131.71 131.819 128.674 128.788 128.674 125.05C128.674 123.181 129.433 121.489 130.66 120.264C131.887 119.039 133.582 118.281 135.454 118.281H147.165C147.251 118.281 147.336 118.284 147.422 118.292C149.005 118.164 150.244 116.84 150.244 115.23Z" fill="#3F5A9F"/>
<path d="M137.071 127.285C138.307 126.051 138.307 124.051 137.071 122.817C135.835 121.583 133.831 121.583 132.596 122.817C131.36 124.051 131.36 126.051 132.596 127.285C133.831 128.519 135.835 128.519 137.071 127.285Z" fill="white"/>
<path d="M134.839 128.365V128.06C136.5 128.06 137.849 126.713 137.849 125.054C137.849 123.396 136.5 122.049 134.839 122.049V121.744C136.668 121.744 138.155 123.228 138.155 125.054C138.155 126.878 136.668 128.365 134.839 128.365Z" fill="#2E4882"/>
<path d="M131.832 125.053H131.526C131.526 124.17 131.872 123.338 132.497 122.711L132.713 122.927C132.146 123.494 131.832 124.249 131.832 125.053Z" fill="#2E4882"/>
<path d="M80.4295 127.642C78.7888 126.092 76.9226 124.73 74.8823 123.593L75.0307 123.326C77.0909 124.474 78.9799 125.85 80.6378 127.417L80.4295 127.642Z" fill="#2E4882"/>
<path d="M71.5358 121.991C70.4229 121.535 69.2501 121.131 68.0488 120.783L68.1344 120.49C69.3472 120.84 70.5314 121.25 71.6528 121.709L71.5358 121.991Z" fill="#2E4882"/>
<path d="M147.64 37.2443C142.68 35.8911 137.39 35.6604 132.348 36.7144C129.825 37.2272 127.36 38.0249 125.034 39.1217C122.709 40.2157 120.486 41.5489 118.48 43.1585C116.468 44.7596 114.628 46.5828 113.041 48.6055C111.457 50.6339 110.111 52.8417 109.035 55.1778C108.767 55.7618 108.53 56.3601 108.281 56.9526C108.07 57.5594 107.831 58.1548 107.642 58.7702C107.254 59.9952 106.915 61.2344 106.669 62.4965C106.549 63.1261 106.435 63.7585 106.35 64.3967C106.327 64.5562 106.304 64.7157 106.287 64.8753L106.267 65.0462L106.255 65.1516C106.241 65.294 106.221 65.4336 106.21 65.5761L103.827 65.3368C104.829 67.8723 106.107 70.1741 107.582 72.1911C108.598 69.9063 109.862 67.8609 111.298 66.0917L108.915 65.8524C108.926 65.7214 108.943 65.5932 108.958 65.465L108.969 65.3681L108.986 65.2114C109.001 65.0661 109.023 64.918 109.043 64.7727C109.12 64.1887 109.223 63.6075 109.334 63.0292C109.557 61.8697 109.871 60.733 110.228 59.6078C110.402 59.0437 110.621 58.4967 110.815 57.9383C111.044 57.3942 111.26 56.8472 111.506 56.3116C112.493 54.1693 113.729 52.1466 115.178 50.2863C116.634 48.4317 118.323 46.7595 120.166 45.2895C122.007 43.8109 124.047 42.5888 126.181 41.586C128.316 40.5775 130.579 39.8482 132.893 39.3781C137.518 38.4095 142.361 38.626 146.918 39.8653L147.64 37.2443Z" fill="url(#paint5_linear_532_15058)"/>
<path d="M122.535 40.4546L122.386 40.2096C123.18 39.731 124.004 39.2837 124.837 38.882C126.918 37.8792 129.175 37.1072 131.552 36.583C133.755 36.0901 136.134 35.8622 138.62 35.905C140.937 35.9392 143.302 36.2696 145.651 36.8821L145.579 37.1585C143.254 36.5517 140.911 36.2269 138.614 36.1927C136.149 36.15 133.794 36.3779 131.612 36.865C129.255 37.3835 127.017 38.1499 124.957 39.1413C124.138 39.5372 123.322 39.9817 122.535 40.4546Z" fill="#2E4882"/>
<path d="M116.444 45.2919L116.236 45.0982C116.496 44.8219 116.772 44.5569 117.043 44.3005C117.197 44.1524 117.352 44.0042 117.506 43.8561C117.64 43.7393 117.768 43.6253 117.897 43.5142C118.208 43.2407 118.53 42.9587 118.855 42.6909L119.035 42.9103C118.713 43.1724 118.393 43.4544 118.085 43.7279C117.956 43.8419 117.828 43.953 117.7 44.0641C117.554 44.2094 117.397 44.3575 117.243 44.5056C116.975 44.7592 116.698 45.0213 116.444 45.2919Z" fill="#2E4882"/>
<path d="M107.611 72.469L107.462 72.2696C106.167 70.5232 105.043 68.5946 104.118 66.5377L104.378 66.4209C105.257 68.3809 106.321 70.2241 107.545 71.9021C108.213 70.4036 109.003 68.9763 109.896 67.6544L110.133 67.814C109.203 69.1871 108.387 70.6799 107.708 72.2439L107.611 72.469Z" fill="#2E4882"/>
<path d="M106.347 65.5831L106.062 65.5632C106.065 65.5347 106.267 62.6317 107.089 60.0991L107.36 60.1874C106.547 62.6859 106.347 65.5547 106.347 65.5831Z" fill="#2E4882"/>
<path d="M86.4806 123.115C79.4924 124.93 75.2977 132.058 77.1154 139.037C78.9331 146.014 86.0725 150.205 93.0636 148.387C100.052 146.573 104.249 139.445 102.429 132.465C100.611 125.488 93.4716 121.303 86.4806 123.115ZM99.9605 133.106C100.668 135.821 100.271 138.65 98.8476 141.071C97.4237 143.493 95.1438 145.214 92.4215 145.92C86.8059 147.376 81.0475 144.003 79.5865 138.394C78.8789 135.679 79.2726 132.85 80.6965 130.428C82.0691 128.092 84.2434 126.406 86.8401 125.656C86.9343 125.628 87.0284 125.605 87.1226 125.579C92.647 124.144 98.3054 127.388 99.8806 132.827C99.9091 132.924 99.9348 133.015 99.9605 133.106Z" fill="#FCC659"/>
<path d="M99.8825 132.831C99.9082 132.922 99.9367 133.016 99.9595 133.107C100.667 135.822 100.271 138.654 98.8467 141.072C97.4228 143.494 95.1428 145.215 92.4206 145.921C86.8049 147.377 81.0466 144.004 79.5856 138.395C78.8779 135.68 79.2717 132.851 80.6956 130.429C82.0681 128.093 84.2425 126.407 86.8392 125.657C86.9333 125.629 87.0275 125.606 87.1217 125.58C92.6489 124.147 98.3074 127.392 99.8825 132.831Z" fill="#F49B51"/>
<path d="M98.9217 145.274L98.7248 145.068C102.095 141.832 103.459 137.018 102.28 132.502C101.869 130.921 101.176 129.454 100.22 128.146L100.451 127.978C101.427 129.317 102.138 130.816 102.557 132.431C103.761 137.043 102.369 141.966 98.9217 145.274ZM97.2039 125.186C95.9683 124.32 94.6072 123.682 93.1548 123.286L93.229 123.013C94.7128 123.417 96.1053 124.07 97.3694 124.956L97.2039 125.186Z" fill="#2E4882"/>
<path d="M91.3681 143.663L90.8174 141.762C89.7188 142.059 88.4918 142.047 87.6957 141.768L87.7841 140.378C88.5917 140.634 89.676 140.708 90.7318 140.403C92.0701 140.016 92.7492 138.985 92.4382 137.914C92.1385 136.879 91.2197 136.452 89.6617 136.29C87.5216 136.093 86.0834 135.569 85.6098 133.934C85.1589 132.373 85.9265 130.868 87.5758 130.085L87.0251 128.185L88.1922 127.849L88.7201 129.672C89.8615 129.384 90.7204 129.461 91.3595 129.623L91.2483 130.999C90.786 130.888 89.8957 130.697 88.6887 131.045C87.2391 131.464 86.9423 132.487 87.1592 133.239C87.4417 134.216 88.2806 134.504 90.1154 134.709C92.2841 134.939 93.5482 135.635 94.0333 137.307C94.4641 138.794 93.8307 140.483 91.9845 141.364L92.5523 143.321L91.3681 143.663Z" fill="#FCC659"/>
<path d="M80.4487 128.455C81.4161 128.945 82.0809 129.697 82.5346 130.64C82.9883 129.697 83.6561 128.942 84.6234 128.452C83.6561 127.962 82.9883 127.21 82.5346 126.267C82.0809 127.207 81.4161 127.965 80.4487 128.455Z" fill="#FFE6A6"/>
<path d="M84.7241 131.846C85.2863 132.131 85.6715 132.567 85.9369 133.117C86.2022 132.57 86.5875 132.131 87.1496 131.846C86.5875 131.561 86.1994 131.126 85.9369 130.576C85.6715 131.123 85.2863 131.561 84.7241 131.846Z" fill="#FFE6A6"/>
<path d="M99.8255 133.144C99.8026 133.053 99.7741 132.962 99.7484 132.87C98.9181 130.007 96.8835 127.634 94.167 126.364L94.2868 126.104C97.0776 127.409 99.1692 129.848 100.022 132.791C100.048 132.885 100.077 132.976 100.099 133.07L99.8255 133.144Z" fill="#2E4882"/>
<path d="M94.165 126.364C91.9793 125.342 89.491 125.114 87.1597 125.721L87.0884 125.444C89.4853 124.82 92.042 125.057 94.2877 126.105L94.165 126.364Z" fill="#2E4882"/>
<path d="M79.4489 138.43C78.7327 135.675 79.1321 132.806 80.5732 130.356L80.8186 130.502C79.4146 132.886 79.0237 135.678 79.7228 138.359L79.4489 138.43Z" fill="#2E4882"/>
<path d="M98.9602 141.146L98.7148 141.001C99.4139 139.813 99.8648 138.528 100.053 137.181L100.336 137.221C100.142 138.605 99.6793 139.927 98.9602 141.146Z" fill="#2E4882"/>
<path d="M94.3037 86.7494C95.271 87.2394 95.9359 87.9915 96.3896 88.9345C96.8433 87.9915 97.511 87.2366 98.4784 86.7466C97.511 86.2566 96.8433 85.5045 96.3896 84.5615C95.9359 85.5016 95.271 86.2566 94.3037 86.7494Z" fill="#FFE6A6"/>
<path d="M108.389 98.7227C108.951 99.0076 109.337 99.4435 109.602 99.9933C109.867 99.4463 110.252 99.0076 110.815 98.7227C110.252 98.4378 109.864 98.002 109.602 97.4521C109.339 97.9991 108.951 98.4407 108.389 98.7227Z" fill="#FFE6A6"/>
<path d="M166.294 25.7675C167.262 26.2575 167.927 27.0096 168.38 27.9526C168.834 27.0096 169.502 26.2547 170.469 25.7647C169.502 25.2747 168.834 24.5226 168.38 23.5796C167.924 24.5226 167.259 25.2775 166.294 25.7675Z" fill="#FFE6A6"/>
<path d="M221.765 140.026C222.732 140.516 223.397 141.268 223.851 142.211C224.305 141.268 224.972 140.513 225.94 140.023C224.972 139.533 224.305 138.781 223.851 137.838C223.397 138.781 222.732 139.536 221.765 140.026Z" fill="#FFE6A6"/>
<path d="M220.352 146.566C220.914 146.851 221.299 147.287 221.565 147.837C221.83 147.29 222.215 146.851 222.778 146.566C222.215 146.281 221.827 145.845 221.565 145.295C221.299 145.842 220.911 146.281 220.352 146.566Z" fill="#FFE6A6"/>
<defs>
<linearGradient id="paint0_linear_532_15058" x1="230" y1="39" x2="230" y2="149" gradientUnits="userSpaceOnUse">
<stop stop-color="#8F79F0"/>
<stop offset="1" stop-color="#333CFF"/>
</linearGradient>
<linearGradient id="paint1_linear_532_15058" x1="227" y1="39" x2="227" y2="149" gradientUnits="userSpaceOnUse">
<stop stop-color="#8F79F0"/>
<stop offset="1" stop-color="#333CFF"/>
</linearGradient>
<linearGradient id="paint2_linear_532_15058" x1="228" y1="64" x2="228" y2="93" gradientUnits="userSpaceOnUse">
<stop stop-color="#8F79F0"/>
<stop offset="1" stop-color="#333CFF"/>
</linearGradient>
<linearGradient id="paint3_linear_532_15058" x1="81.6655" y1="120.739" x2="149.309" y2="120.843" gradientUnits="userSpaceOnUse">
<stop stop-color="#8975F2"/>
<stop offset="1" stop-color="#3940FF"/>
</linearGradient>
<linearGradient id="paint4_linear_532_15058" x1="113.752" y1="101.137" x2="113.752" y2="148.963" gradientUnits="userSpaceOnUse">
<stop stop-color="#8F79F0"/>
<stop offset="1" stop-color="#333CFF"/>
</linearGradient>
<linearGradient id="paint5_linear_532_15058" x1="125.733" y1="36.0542" x2="125.733" y2="72.1911" gradientUnits="userSpaceOnUse">
<stop stop-color="#8F79F0"/>
<stop offset="1" stop-color="#333CFF"/>
</linearGradient>
</defs>
</svg>
