<svg width="23" height="24" viewBox="0 0 23 24" fill="none" xmlns="http://www.w3.org/2000/svg">
<path d="M19.2298 12.6827C19.2176 10.7162 20.2319 9.23204 22.2851 8.13898C21.1363 6.69765 19.4009 5.90465 17.1095 5.74926C14.9402 5.59923 12.5693 6.85839 11.7016 6.85839C10.7851 6.85839 8.68305 5.80284 7.03321 5.80284C3.62354 5.85106 0 8.1872 0 12.9399C0 14.3437 0.293305 15.7939 0.879915 17.2906C1.66206 19.2571 4.48512 24.0794 7.43039 23.999C8.97024 23.9669 10.0579 23.0399 12.0622 23.0399C14.0053 23.0399 15.0135 23.999 16.7306 23.999C19.7003 23.9615 22.2545 19.5786 23 17.6068C19.0159 15.9618 19.2298 12.7845 19.2298 12.6827ZM15.7713 3.88464C17.4394 2.14861 17.2867 0.56796 17.2378 0C15.7651 0.0750136 14.0603 0.878731 13.0887 1.86998C12.0194 2.93089 11.39 4.24363 11.5244 5.72247C13.1193 5.82963 14.5736 5.11164 15.7713 3.88464Z" fill="black"/>
</svg>
