<svg width="24" height="24" viewBox="0 0 24 24" fill="none" xmlns="http://www.w3.org/2000/svg">
<path d="M20.5712 0C20.0978 0 19.7141 0.383755 19.7141 0.857159V3.98827C15.3011 -0.284062 8.2604 -0.170056 3.98807 4.2428C1.97462 6.3225 0.851379 9.10531 0.856954 12C0.856954 12.4734 1.24071 12.8571 1.71411 12.8571C2.18752 12.8571 2.57122 12.4734 2.57122 12C2.57228 6.79274 6.79439 2.57223 12.0017 2.57329C14.6463 2.57379 17.169 3.68497 18.9547 5.63569L15.1576 6.90167C14.7079 7.05128 14.4645 7.53709 14.6141 7.98679C14.7638 8.43649 15.2496 8.67982 15.6993 8.53021L20.8421 6.81594C21.1932 6.69902 21.4296 6.36996 21.4284 5.99996V0.857109C21.4284 0.383755 21.0446 0 20.5712 0Z" fill="#616164"/>
<path d="M22.2857 11.1426C21.8122 11.1426 21.4285 11.5263 21.4285 11.9997C21.4274 17.207 17.2053 21.4275 11.998 21.4264C9.35343 21.4259 6.83067 20.3147 5.04504 18.364L8.84216 17.098C9.29186 16.9484 9.53519 16.4626 9.38557 16.0129C9.23596 15.5632 8.75015 15.3199 8.30045 15.4695L3.1576 17.1838C2.80654 17.3007 2.57014 17.6298 2.57129 17.9997V23.1426C2.57129 23.616 2.95505 23.9998 3.42845 23.9998C3.90186 23.9998 4.28561 23.616 4.28561 23.1426V20.0114C8.69852 24.2838 15.7393 24.1698 20.0116 19.7569C22.025 17.6772 23.1483 14.8944 23.1427 11.9997C23.1428 11.5263 22.7591 11.1426 22.2857 11.1426Z" fill="#616164"/>
</svg>
