<svg width="22" height="24" viewBox="0 0 22 24" fill="none" xmlns="http://www.w3.org/2000/svg">
<path d="M19.4802 4.816C19.2992 4.816 19.1192 4.752 18.9752 4.62C16.7682 2.608 13.9362 1.5 11.0002 1.5C8.06421 1.5 5.23221 2.608 3.02521 4.621C2.71821 4.9 2.24421 4.877 1.96521 4.572C1.68621 4.266 1.70821 3.791 2.01421 3.512C4.49921 1.247 7.69021 0 11.0002 0C14.3102 0 17.5012 1.247 19.9862 3.512C20.2922 3.791 20.3142 4.265 20.0352 4.572C19.8872 4.734 19.6842 4.816 19.4802 4.816Z" fill="#616164"/>
<path d="M20.7504 9.71755C20.5094 9.71755 20.2714 9.60155 20.1274 9.38555C18.0454 6.28555 14.6334 4.43455 11.0004 4.43455C7.36736 4.43455 3.95536 6.28555 1.87336 9.38555C1.64236 9.73055 1.17536 9.82155 0.832358 9.59055C0.488358 9.35955 0.396358 8.89355 0.627358 8.54955C2.98836 5.03455 6.86636 2.93555 11.0004 2.93555C15.1344 2.93555 19.0124 5.03455 21.3734 8.55055C21.6044 8.89455 21.5134 9.36055 21.1684 9.59155C21.0404 9.67655 20.8954 9.71755 20.7504 9.71755Z" fill="#616164"/>
<path d="M8.6318 24.0007C8.4388 24.0007 8.2458 23.9267 8.0988 23.7787C7.9348 23.6137 4.0918 19.6907 4.0918 15.9137C4.0918 11.9937 7.1908 8.80469 11.0008 8.80469C14.8108 8.80469 17.9098 11.9937 17.9098 15.9137C17.9098 16.3277 17.5738 16.6637 17.1598 16.6637C16.7458 16.6637 16.4098 16.3277 16.4098 15.9137C16.4098 12.8207 13.9838 10.3047 11.0008 10.3047C8.0178 10.3047 5.5918 12.8207 5.5918 15.9137C5.5918 19.0807 9.1288 22.6867 9.1648 22.7227C9.4568 23.0167 9.4548 23.4917 9.1598 23.7837C9.0138 23.9287 8.8228 24.0007 8.6318 24.0007Z" fill="#616164"/>
<path d="M13.37 24.0003C11.566 24.0003 7.384 20.5683 6.979 16.7463C6.836 15.3953 7.266 14.0133 8.128 13.0493C8.878 12.2113 9.891 11.7463 10.98 11.7403H11.001C12.063 11.7403 13.067 12.1573 13.831 12.9163C14.629 13.7093 15.068 14.7743 15.068 15.9143V16.4033C15.068 17.6083 16.006 18.5883 17.16 18.5883C18.314 18.5883 19.253 17.6083 19.253 16.4033V16.2323C19.253 11.5623 15.87 7.67735 11.551 7.38935C9.3 7.23635 7.139 8.01435 5.472 9.57235C3.742 11.1903 2.75 13.5023 2.75 15.9143C2.75 17.8983 3.422 19.8313 4.642 21.3573C4.9 21.6813 4.848 22.1523 4.524 22.4113C4.201 22.6703 3.729 22.6183 3.47 22.2933C2.039 20.5023 1.25 18.2363 1.25 15.9133C1.25 13.0873 2.416 10.3763 4.447 8.47635C6.42 6.63035 8.979 5.71135 11.65 5.89135C16.754 6.23235 20.753 10.7743 20.753 16.2313V16.4023C20.753 18.4343 19.141 20.0873 17.16 20.0873C15.179 20.0873 13.568 18.4343 13.568 16.4023V15.9133C13.568 15.1753 13.286 14.4893 12.774 13.9793C12.294 13.5013 11.665 13.2393 11.002 13.2393C10.997 13.2393 10.993 13.2393 10.988 13.2393C10.143 13.2433 9.574 13.6823 9.246 14.0493C8.661 14.7023 8.371 15.6523 8.47 16.5883C8.801 19.7063 12.384 22.5013 13.37 22.5013C13.784 22.5013 14.12 22.8373 14.12 23.2513C14.12 23.6653 13.784 24.0003 13.37 24.0003Z" fill="#616164"/>
<path d="M16.1524 22.5328C13.4684 22.5328 10.1914 19.2528 10.1914 15.4238C10.1914 15.0098 10.5274 14.6738 10.9414 14.6738C11.3554 14.6738 11.6914 15.0098 11.6914 15.4238C11.6914 18.3918 14.1864 21.0328 16.1524 21.0328C16.5664 21.0328 16.9024 21.3688 16.9024 21.7828C16.9024 22.1968 16.5664 22.5328 16.1524 22.5328Z" fill="#616164"/>
</svg>
