<svg width="24" height="25" viewBox="0 0 24 25" fill="none" xmlns="http://www.w3.org/2000/svg">
<path d="M12 18.7002C13.0609 18.7002 14.0783 18.2788 14.8284 17.5286C15.5786 16.7785 16 15.7611 16 14.7002C16 13.6393 15.5786 12.6219 14.8284 11.8718C14.0783 11.1216 13.0609 10.7002 12 10.7002C10.9391 10.7002 9.92172 11.1216 9.17157 11.8718C8.42143 12.6219 8 13.6393 8 14.7002C8 15.7611 8.42143 16.7785 9.17157 17.5286C9.92172 18.2788 10.9391 18.7002 12 18.7002V18.7002Z" stroke="#3A41FE" stroke-width="1.5" stroke-miterlimit="10" stroke-linecap="round" stroke-linejoin="round"/>
<path d="M10.4414 14.8003L11.0914 15.4503C11.2814 15.6403 11.5914 15.6403 11.7814 15.4603L13.5614 13.8203" stroke="#3A41FE" stroke-width="1.5" stroke-linecap="round" stroke-linejoin="round"/>
<path d="M8.0008 6.5V5.7C8.0008 3.93 8.0008 2.5 11.2008 2.5H12.8008C16.0008 2.5 16.0008 3.93 16.0008 5.7V6.5M8.0008 22.5H16.0008C20.0208 22.5 20.7408 20.89 20.9508 18.93L21.7008 10.93C21.9708 8.49 21.2708 6.5 17.0008 6.5H7.0008C2.7308 6.5 2.0308 8.49 2.3008 10.93L3.0508 18.93C3.2608 20.89 3.9808 22.5 8.0008 22.5Z" stroke="#3A41FE" stroke-width="1.5" stroke-miterlimit="10" stroke-linecap="round" stroke-linejoin="round"/>
<path d="M21.6511 11.5C19.9578 12.7335 18.043 13.6298 16.0111 14.14M2.62109 11.77C4.29109 12.91 6.11109 13.72 8.00109 14.18" stroke="#3A41FE" stroke-width="1.5" stroke-miterlimit="10" stroke-linecap="round" stroke-linejoin="round"/>
</svg>
