<svg width="16" height="16" viewBox="0 0 16 16" fill="none" xmlns="http://www.w3.org/2000/svg">
	<path fill-rule="evenodd" clip-rule="evenodd" d="M1.78133 0.305628C1.37383 -0.101876 0.713131 -0.101876 0.305628 0.305628C-0.101876 0.713131 -0.101876 1.37383 0.305628 1.78133L6.5243 8L0.305629 14.2187C-0.101875 14.6262 -0.101874 15.2869 0.305629 15.6944C0.713133 16.1019 1.37383 16.1019 1.78133 15.6944L8 9.4757L14.2187 15.6944C14.6262 16.1019 15.2869 16.1019 15.6944 15.6944C16.1019 15.2869 16.1019 14.6262 15.6944 14.2187L9.4757 8L15.6944 1.78133C16.1019 1.37383 16.1019 0.713131 15.6944 0.305628C15.2869 -0.101876 14.6262 -0.101876 14.2187 0.305628L8 6.5243L1.78133 0.305628Z" fill="#292D32" />
</svg>
