<svg width="20" height="24" viewBox="0 0 20 24" fill="none" xmlns="http://www.w3.org/2000/svg">
<path d="M3.115 20.25H3.25V20.385C3.25 21.1448 3.55185 21.8736 4.08914 22.4109C4.62643 22.9482 5.35515 23.25 6.115 23.25H16.885C17.6448 23.25 18.3736 22.9482 18.9109 22.4109C19.4482 21.8736 19.75 21.1448 19.75 20.385V6.615C19.75 5.85515 19.4482 5.12643 18.9109 4.58914C18.3736 4.05185 17.6448 3.75 16.885 3.75H16.75V3.615C16.75 3.23876 16.6759 2.86621 16.5319 2.51861C16.3879 2.17101 16.1769 1.85518 15.9109 1.58914C15.6448 1.3231 15.329 1.11206 14.9814 0.968085C14.6338 0.824105 14.2612 0.75 13.885 0.75H3.115C2.35515 0.75 1.62643 1.05185 1.08914 1.58914C0.551847 2.12643 0.25 2.85515 0.25 3.615V17.385C0.25 18.1448 0.551847 18.8736 1.08914 19.4109C1.62643 19.9482 2.35515 20.25 3.115 20.25ZM16.885 5.25C17.2464 5.25197 17.5925 5.39641 17.848 5.65198C18.1036 5.90754 18.248 6.25359 18.25 6.615V20.385C18.248 20.7464 18.1036 21.0925 17.848 21.348C17.5925 21.6036 17.2464 21.748 16.885 21.75H6.115C5.75359 21.748 5.40754 21.6036 5.15198 21.348C4.89641 21.0925 4.75197 20.7464 4.75 20.385V6.615C4.75197 6.25359 4.89641 5.90754 5.15198 5.65198C5.40754 5.39641 5.75359 5.25197 6.115 5.25H16.885ZM1.75 3.615C1.75197 3.25359 1.89641 2.90754 2.15198 2.65198C2.40754 2.39641 2.75359 2.25197 3.115 2.25H13.885C14.2464 2.25197 14.5925 2.39641 14.848 2.65198C15.1036 2.90754 15.248 3.25359 15.25 3.615V3.75H6.115C5.35515 3.75 4.62643 4.05185 4.08914 4.58914C3.55185 5.12643 3.25 5.85515 3.25 6.615V18.75H3.115C2.75359 18.748 2.40754 18.6036 2.15198 18.348C1.89641 18.0925 1.75197 17.7464 1.75 17.385V3.615Z" fill="#616164"/>
</svg>
