<svg width="20" height="21" viewBox="0 0 20 21" fill="none" xmlns="http://www.w3.org/2000/svg">
<path fill-rule="evenodd" clip-rule="evenodd" d="M10 0.5C4.48438 0.5 0 4.98438 0 10.5C0 16.0156 4.48438 20.5 10 20.5C15.5156 20.5 20 16.0156 20 10.5C20 4.98438 15.5156 0.5 10 0.5Z" fill="#D6D6D6"/>
<path d="M8.07422 15.0742C6.79687 13.7969 5.52734 12.5078 4.24609 11.2305C4.10547 11.0898 4.10547 10.8555 4.24609 10.7148L5.71875 9.24219C5.85937 9.10156 6.09375 9.10156 6.23438 9.24219L8.33984 11.3477L13.7539 5.92969C13.8984 5.78906 14.1289 5.78906 14.2734 5.92969L15.75 7.40625C15.8945 7.55078 15.8945 7.78125 15.75 7.92187L8.58984 15.0742C8.44922 15.2187 8.21875 15.2187 8.07422 15.0742Z" fill="white"/>
</svg>
