<svg width="20" height="20" viewBox="0 0 20 20" fill="none" xmlns="http://www.w3.org/2000/svg">
<path d="M1.75 7V5C1.75 4.138 2.092 3.311 2.702 2.702C3.311 2.092 4.138 1.75 5 1.75H7C7.414 1.75 7.75 1.414 7.75 1C7.75 0.586 7.414 0.25 7 0.25H5C3.74 0.25 2.532 0.75 1.641 1.641C0.75 2.532 0.25 3.74 0.25 5V7C0.25 7.414 0.586 7.75 1 7.75C1.414 7.75 1.75 7.414 1.75 7Z" fill="#616164"/>
<path d="M13 1.75H15C15.862 1.75 16.689 2.092 17.298 2.702C17.908 3.311 18.25 4.138 18.25 5V7C18.25 7.414 18.586 7.75 19 7.75C19.414 7.75 19.75 7.414 19.75 7V5C19.75 3.74 19.25 2.532 18.359 1.641C17.468 0.75 16.26 0.25 15 0.25C13.898 0.25 13 0.25 13 0.25C12.586 0.25 12.25 0.586 12.25 1C12.25 1.414 12.586 1.75 13 1.75Z" fill="#616164"/>
<path d="M0.25 13V15C0.25 16.26 0.75 17.468 1.641 18.359C2.532 19.25 3.74 19.75 5 19.75H7C7.414 19.75 7.75 19.414 7.75 19C7.75 18.586 7.414 18.25 7 18.25H5C4.138 18.25 3.311 17.908 2.702 17.298C2.092 16.689 1.75 15.862 1.75 15C1.75 13.898 1.75 13 1.75 13C1.75 12.586 1.414 12.25 1 12.25C0.586 12.25 0.25 12.586 0.25 13Z" fill="#616164"/>
<path d="M13 19.75H15C16.26 19.75 17.468 19.25 18.359 18.359C19.25 17.468 19.75 16.26 19.75 15C19.75 13.898 19.75 13 19.75 13C19.75 12.586 19.414 12.25 19 12.25C18.586 12.25 18.25 12.586 18.25 13V15C18.25 15.862 17.908 16.689 17.298 17.298C16.689 17.908 15.862 18.25 15 18.25C13.898 18.25 13 18.25 13 18.25C12.586 18.25 12.25 18.586 12.25 19C12.25 19.414 12.586 19.75 13 19.75Z" fill="#616164"/>
<path d="M12.75 6.5V7.5C12.75 7.914 13.086 8.25 13.5 8.25C13.914 8.25 14.25 7.914 14.25 7.5V6.5C14.25 6.086 13.914 5.75 13.5 5.75C13.086 5.75 12.75 6.086 12.75 6.5Z" fill="#616164"/>
<path d="M5.75 6.5V7.5C5.75 7.914 6.086 8.25 6.5 8.25C6.914 8.25 7.25 7.914 7.25 7.5V6.5C7.25 6.086 6.914 5.75 6.5 5.75C6.086 5.75 5.75 6.086 5.75 6.5Z" fill="#616164"/>
<path d="M9.75021 10.536V8C9.75021 7.586 10.0862 7.25 10.5002 7.25C10.9142 7.25 11.2502 7.586 11.2502 8V11C11.2502 11.284 11.0892 11.544 10.8352 11.671L9.83521 12.171C9.46521 12.356 9.01421 12.206 8.82921 11.835C8.64421 11.465 8.79421 11.014 9.16521 10.829L9.75021 10.536Z" fill="#616164"/>
<path d="M12.97 12.97C13.106 12.834 13.293 12.75 13.5 12.75C13.914 12.75 14.25 13.086 14.25 13.5C14.25 13.707 14.166 13.894 14.03 14.03C13.894 14.166 14.03 14.031 14.029 14.032C11.804 16.257 8.196 16.257 5.971 14.032C5.97 14.031 5.97 14.03 5.97 14.03C5.834 13.894 5.75 13.707 5.75 13.5C5.75 13.086 6.086 12.75 6.5 12.75C6.707 12.75 6.894 12.834 7.03 12.97C7.166 13.106 7.031 12.97 7.032 12.971C8.671 14.61 11.329 14.61 12.968 12.971C12.969 12.97 12.97 12.97 12.97 12.97Z" fill="#616164"/>
</svg>
