<svg width="23" height="24" viewBox="0 0 23 24" fill="none" xmlns="http://www.w3.org/2000/svg">
<path d="M22.4375 12.3908C22.4375 11.6344 22.3629 10.8536 22.2384 10.1216H11.4585V14.4405H17.6327C17.3837 15.8313 16.5621 17.0513 15.3422 17.8321L19.0268 20.6382C21.1927 18.6617 22.4375 15.7825 22.4375 12.3908Z" fill="#4280EF"/>
<path d="M11.4583 23.3226C14.5453 23.3226 17.1345 22.3222 19.0266 20.6141L15.342 17.8325C14.3213 18.5157 13.0018 18.9061 11.4583 18.9061C8.47076 18.9061 5.95628 16.9297 5.03514 14.2944L1.25098 17.1493C3.19285 20.9313 7.12639 23.3226 11.4583 23.3226Z" fill="#34A353"/>
<path d="M5.03543 14.2699C4.56241 12.8791 4.56241 11.3663 5.03543 9.97544L1.25127 7.09619C-0.366959 10.2682 -0.366959 14.0015 1.25127 17.1492L5.03543 14.2699Z" fill="#F6B704"/>
<path d="M11.4583 5.36366C13.0765 5.33926 14.6698 5.94927 15.8399 7.04729L19.1013 3.82644C17.0349 1.92321 14.2964 0.898389 11.4583 0.922789C7.12639 0.922789 3.19285 3.31403 1.25098 7.09609L5.03514 9.97534C5.95628 7.3157 8.47076 5.36366 11.4583 5.36366Z" fill="#E54335"/>
</svg>
