<svg width="21" height="20" viewBox="0 0 21 20" fill="none" xmlns="http://www.w3.org/2000/svg">
<path fill-rule="evenodd" clip-rule="evenodd" d="M7.17188 0.0491055C6.99825 0.129496 6.84258 0.294871 6.77658 0.469059C6.74812 0.544152 6.72656 0.952855 6.72656 1.41729V2.23362L3.58936 2.24628C0.503953 2.25879 0.45 2.26057 0.322734 2.35564C0.0767343 2.53929 0 2.68911 0 2.98554C0 3.28198 0.0767343 3.43179 0.322734 3.61545C0.451359 3.7115 0.484031 3.7122 5.53959 3.72443L10.627 3.73676L10.5953 3.86506C10.4796 4.33161 9.78848 6.002 9.33975 6.89961C8.88539 7.80842 7.90922 9.43104 7.76217 9.52193C7.6657 9.58151 6.05864 7.253 5.41856 6.12617C5.23547 5.8039 5.02341 5.48337 4.94728 5.41386C4.4902 4.99653 3.72656 5.36548 3.72656 6.00359C3.72656 6.36012 4.93627 8.32212 6.19181 10.0019L6.77325 10.7798L6.45694 11.1343C5.28989 12.4421 3.7065 13.8336 2.29345 14.7932C1.56783 15.286 1.5 15.3665 1.5 15.7355C1.5 16.1913 1.77033 16.4621 2.22525 16.4621C2.49108 16.4621 2.51456 16.4511 3.11597 16.0464C4.54683 15.0834 6.2303 13.6167 7.46573 12.2566L7.75177 11.9417L8.51648 12.7045C9.46284 13.6484 10.0859 14.1727 10.3115 14.215C10.5825 14.2658 10.8066 14.1978 10.9977 14.0067C11.1908 13.8136 11.2568 13.5913 11.2043 13.3113C11.1677 13.1163 11.0852 13.0282 10.2279 12.2689C9.92358 11.9993 9.46205 11.5502 9.20227 11.2708L8.72995 10.7629L8.8582 10.5891C9.48324 9.74183 10.2565 8.44236 10.7888 7.34492C11.2845 6.3229 12.0495 4.41176 12.181 3.86679L12.2115 3.74018L13.3564 3.72617C14.4275 3.713 14.5095 3.70587 14.6305 3.61545C14.8764 3.4317 14.9531 3.28193 14.9531 2.98554C14.9531 2.68911 14.8764 2.53929 14.6304 2.35564C14.5031 2.26057 14.4492 2.25879 11.3666 2.24628L8.23223 2.23362L8.21766 1.34722C8.20181 0.38084 8.19005 0.336824 7.88733 0.110793C7.73198 -0.0051757 7.35867 -0.0373789 7.17188 0.0491055ZM15.4219 7.55173C15.3445 7.58609 15.2361 7.66437 15.1809 7.72568C15.0355 7.88726 10.4766 18.5546 10.4766 18.7332C10.4766 19.3623 11.2426 19.7162 11.7067 19.3015C11.821 19.1994 11.9843 18.8666 12.4244 17.8392L12.994 16.509H15.7266H18.4591L19.0288 17.8392C19.4688 18.8666 19.6321 19.1994 19.7464 19.3015C20.2105 19.7162 20.9766 19.3623 20.9766 18.7332C20.9766 18.5546 16.4176 7.88736 16.2722 7.72559C16.0695 7.50026 15.7052 7.42578 15.4219 7.55173ZM16.7512 12.5247C17.2979 13.8009 17.7573 14.8767 17.7721 14.9153C17.7958 14.9771 17.5484 14.9855 15.7266 14.9855C13.9048 14.9855 13.6573 14.9771 13.681 14.9153C13.8539 14.4648 15.7038 10.2043 15.7266 10.2043C15.7435 10.2043 16.2046 11.2485 16.7512 12.5247Z" fill="#616164"/>
</svg>
