<svg width="22" height="24" viewBox="0 0 22 24" fill="none" xmlns="http://www.w3.org/2000/svg">
<path d="M0.443359 17.28V17.2822C0.443359 17.283 0.443817 17.2836 0.443817 17.2844C0.445879 18.5229 1.29264 19.5573 2.43459 19.8671C2.69789 21.7726 4.32048 23.25 6.29724 23.25H11.0001C11.4143 23.25 11.7501 22.9142 11.7501 22.5C11.7501 22.0858 11.4143 21.75 11.0001 21.75H6.29724C5.13694 21.75 4.16667 20.9277 3.93467 19.8356C5.02598 19.4923 5.82482 18.4832 5.82482 17.28V12.984C5.82482 11.5005 4.61778 10.2935 3.1339 10.2935C2.71976 10.2935 2.33181 10.3953 1.98102 10.5632C2.36139 5.91659 6.25709 2.25 11.0001 2.25C13.4131 2.25 15.688 3.19226 17.4037 4.90137C18.9376 6.44156 19.8475 8.43032 20.0206 10.564C19.6694 10.3956 19.2811 10.2935 18.8663 10.2935C17.3824 10.2935 16.1754 11.5005 16.1754 12.984V17.28C16.1754 18.7639 17.3825 19.9709 18.8663 19.9709C20.3483 19.9709 21.554 18.7663 21.5564 17.2844C21.5564 17.2836 21.5569 17.283 21.5569 17.2822V17.28V11.3068C21.5569 8.49426 20.4594 5.84363 18.4642 3.84082C16.4633 1.84753 13.8126 0.75 11.0001 0.75C5.1792 0.75 0.443359 5.48584 0.443359 11.3068V17.28ZM18.8663 18.4709C18.2097 18.4709 17.6754 17.9366 17.6754 17.28V12.984C17.6754 12.3274 18.2097 11.7935 18.8663 11.7935C19.5229 11.7935 20.0569 12.3274 20.0569 12.984V17.28C20.0569 17.9366 19.5229 18.4709 18.8663 18.4709ZM3.13391 11.7935C3.79053 11.7935 4.32483 12.3274 4.32483 12.984V17.28C4.32483 17.9366 3.79053 18.4709 3.13391 18.4709C2.47729 18.4709 1.94336 17.9366 1.94336 17.28V12.984C1.94336 12.3274 2.47729 11.7935 3.13391 11.7935Z" fill="#616164"/>
</svg>
