<svg width="235" height="160" viewBox="0 0 235 160" fill="none" xmlns="http://www.w3.org/2000/svg">
<path d="M56.3846 132.304C32.2499 132.402 9.01027 116.284 1.75261 94.4692C-0.975746 86.2319 -1.09436 76.0921 5.60252 70.2114C10.8004 65.6495 18.4678 65.0658 25.4559 63.9524C32.4439 62.8389 40.2192 60.1796 42.7103 53.899C44.6083 49.1858 42.9045 43.9537 42.4839 38.927C41.4594 26.4522 49.5367 13.7612 61.6472 8.81019C73.7576 3.85918 89.017 7.01572 97.8599 16.3016C101.365 19.977 103.867 24.4091 107.08 28.3224C110.294 32.2356 114.543 35.7705 119.719 36.484C128.648 37.7271 136.046 30.5276 144.005 26.4955C158.747 19.0149 178.967 23.3822 188.845 36.2245C192.932 41.5107 195.391 47.9535 200.341 52.5477C205.29 57.142 211.772 59.2176 217.099 63.1092C229.112 71.9086 232.531 88.8912 226.891 102.263C221.251 115.635 207.922 125.224 193.342 129.202C178.762 133.18 163.082 132.067 148.362 128.575C142.463 127.18 136.413 125.397 130.428 126.359C124.13 127.364 118.867 131.245 113.324 134.239C93.5032 144.952 67.4274 144.282 48.2533 132.564L56.3846 132.304Z" fill="#F3FAFF"/>
<path d="M221.121 154.8C221.121 157.676 172.312 160 112.094 160C51.8761 160 3.07837 157.676 3.07837 154.8C3.07837 151.925 51.8869 149.59 112.094 149.59C172.301 149.59 221.121 151.925 221.121 154.8Z" fill="#E9ECF2"/>
<path d="M22.1073 72.9033V73.2276C21.7191 86.4051 23.0671 96.6855 25.3425 104.696L32.1256 108.912L26.5503 108.047H26.3885C29.4081 116.846 33.5923 122.532 37.5392 126.186C39.5614 128.081 41.8416 129.679 44.3116 130.932L44.6891 131.116L45.595 131.526L49.3262 131.721C49.3262 131.548 49.4232 131.375 49.4664 131.202C49.5015 131.092 49.5303 130.98 49.5527 130.867C49.5527 130.726 49.6281 130.586 49.6713 130.445C54.0712 113.419 48.5282 99.8528 41.2705 90.1778L41.195 90.0805C38.8478 86.9695 36.2277 84.0753 33.3658 81.4325L31.7158 85.6376L31.4786 79.7461C28.6321 77.2429 25.5681 74.9999 22.323 73.0438L22.1073 72.9033Z" fill="#00DBAA"/>
<path d="M21.978 72.9676L22.0966 73.2271L29.7533 89.2908L29.8935 89.5719L31.9748 93.9608L32.0503 94.1013L38.7041 108.068L38.7149 108.09L49.5528 130.856L49.7145 131.191L49.9734 131.731L50.2969 131.753L50.0488 131.212L49.6714 130.423L38.9629 107.96L38.7688 107.538L22.3231 73.0325L22.2368 72.8379L21.978 72.9676Z" fill="white"/>
<path d="M22.6103 87.5105L22.4697 87.7153L31.958 94.2596L32.0986 94.0547L22.6103 87.5105Z" fill="white"/>
<path d="M22.5336 84.3058L22.3931 84.5107L29.8317 89.6374L29.9722 89.4325L22.5336 84.3058Z" fill="white"/>
<path d="M41.0713 90.0542L38.7354 108.108L38.9819 108.14L41.3178 90.0863L41.0713 90.0542Z" fill="white"/>
<path opacity="0.6" d="M50.8252 134.618C50.8252 134.618 41.9824 138.802 29.419 131.289L33.4953 129.354L26.8416 129.613C21.9348 126.175 16.5428 120.965 10.9566 113.041L12.5095 112.306L10.4929 112.382C9.55113 111.034 8.60218 109.593 7.646 108.058C10.6391 107.878 13.6422 107.972 16.6183 108.339L19.3251 112.014L18.5594 108.609C29.3542 110.285 45.0558 115.96 50.8252 134.618Z" fill="#00DBAA"/>
<path d="M7.76602 108.034L7.62451 108.277L51.465 133.967L51.6065 133.725L7.76602 108.034Z" fill="white"/>
<path d="M19.058 114.71L12.7817 115.359L12.8083 115.617L19.0845 114.968L19.058 114.71Z" fill="white"/>
<path d="M22.0328 116.507L14.7178 117.813L14.7632 118.068L22.0782 116.762L22.0328 116.507Z" fill="white"/>
<path d="M40.4941 118.468L40.7098 118.219C36.822 114.826 32.2926 112.253 27.3915 110.652L27.2944 110.965C32.1497 112.558 36.6378 115.109 40.4941 118.468Z" fill="#2E4882"/>
<path d="M107.398 34.311H51.7416C50.1573 34.311 48.873 35.5984 48.873 37.1865V150.703C48.873 152.291 50.1573 153.579 51.7416 153.579H107.398C108.982 153.579 110.267 152.291 110.267 150.703V37.1865C110.267 35.5984 108.982 34.311 107.398 34.311Z" fill="#A482FE"/>
<path d="M104.767 34.311H49.1102C47.526 34.311 46.2417 35.5984 46.2417 37.1865V150.703C46.2417 152.291 47.526 153.579 49.1102 153.579H104.767C106.351 153.579 107.635 152.291 107.635 150.703V37.1865C107.635 35.5984 106.351 34.311 104.767 34.311Z" fill="url(#paint0_linear_513_16813)"/>
<path d="M50.6851 48.4505V138.444C50.6645 139.294 50.9772 140.117 51.556 140.738C52.1348 141.358 52.9334 141.726 53.7801 141.763H100.55C101.399 141.729 102.2 141.362 102.781 140.741C103.363 140.12 103.677 139.295 103.656 138.444V48.4505C103.677 47.5994 103.363 46.7744 102.781 46.1535C102.2 45.5326 101.399 45.1656 100.55 45.1318H53.7585C52.9156 45.1739 52.1225 45.5444 51.5483 46.1644C50.9741 46.7844 50.6643 47.6048 50.6851 48.4505V48.4505Z" fill="#E1EAFF"/>
<path d="M49.3266 138.445V48.4508C49.3121 47.4137 49.7079 46.4131 50.4273 45.6676C51.1467 44.9222 52.1312 44.4926 53.1657 44.4727H101.133C102.168 44.4926 103.152 44.9222 103.871 45.6676C104.591 46.4131 104.987 47.4137 104.972 48.4508V138.445C104.987 139.482 104.591 140.482 103.871 141.228C103.152 141.973 102.168 142.403 101.133 142.423H53.1657C52.1312 142.403 51.1467 141.973 50.4273 141.228C49.7079 140.482 49.3121 139.482 49.3266 138.445V138.445ZM53.1657 45.8023C52.8272 45.8107 52.4937 45.8859 52.1842 46.0236C51.8747 46.1612 51.5953 46.3587 51.3619 46.6046C51.1286 46.8506 50.9459 47.1402 50.8242 47.457C50.7026 47.7738 50.6444 48.1114 50.653 48.4508V138.445C50.6444 138.784 50.7026 139.122 50.8242 139.438C50.9459 139.755 51.1286 140.045 51.3619 140.291C51.5953 140.537 51.8747 140.734 52.1842 140.872C52.4937 141.009 52.8272 141.085 53.1657 141.093H101.133C101.816 141.073 102.463 140.784 102.934 140.288C103.404 139.792 103.66 139.129 103.646 138.445V48.4508C103.66 47.7663 103.404 47.1038 102.934 46.6077C102.463 46.1116 101.816 45.8221 101.133 45.8023H53.1657Z" fill="white"/>
<path d="M104.767 153.817H59.3988V153.352H104.767C105.466 153.352 106.137 153.074 106.632 152.58C107.127 152.086 107.406 151.415 107.409 150.714V37.2085C107.406 36.5079 107.127 35.837 106.632 35.3427C106.137 34.8483 105.466 34.5708 104.767 34.5708H49.1001V34.106H104.767C105.175 34.1046 105.578 34.1838 105.955 34.339C106.332 34.4943 106.674 34.7226 106.963 35.0108C107.251 35.2991 107.48 35.6416 107.636 36.0187C107.793 36.3958 107.873 36.8001 107.873 37.2085V150.714C107.87 151.538 107.542 152.327 106.96 152.909C106.377 153.49 105.589 153.817 104.767 153.817V153.817Z" fill="#3F5A9F"/>
<path d="M46.4698 41.2188H46.0049V68.2007H46.4698V41.2188Z" fill="#3F5A9F"/>
<path d="M138.187 28.0089C135.382 28.0871 132.664 28.9975 130.375 30.6248C128.087 32.2521 126.332 34.5233 125.332 37.1509C124.331 39.7785 124.131 42.6444 124.756 45.3861C125.382 48.1278 126.804 50.622 128.844 52.5531C130.883 54.4842 133.449 55.7654 136.215 56.2347C138.981 56.7039 141.824 56.34 144.384 55.1891C146.944 54.0382 149.106 52.152 150.596 49.7691C152.086 47.3862 152.838 44.6138 152.756 41.8026C152.646 38.0377 151.05 34.4704 148.318 31.8842C145.586 29.298 141.943 27.9042 138.187 28.0089ZM149.984 41.889C150.047 44.1342 149.447 46.348 148.261 48.2536C147.075 50.1593 145.356 51.6723 143.317 52.6037C141.278 53.535 139.01 53.8434 136.797 53.4902C134.585 53.1369 132.525 52.1378 130.875 50.6177C129.226 49.0976 128.06 47.1239 127.523 44.9433C126.986 42.7626 127.103 40.4718 127.858 38.357C128.612 36.2422 129.972 34.3973 131.767 33.0529C133.562 31.7085 135.712 30.9242 137.949 30.7979H138.262C141.235 30.7146 144.122 31.7979 146.31 33.817C148.497 35.8361 149.812 38.6316 149.974 41.608C149.984 41.6837 149.984 41.8026 149.984 41.889Z" fill="#FCC659"/>
<path d="M149.974 41.5752C149.974 41.6833 149.974 41.7915 149.974 41.8887C150.036 44.1339 149.437 46.3477 148.251 48.2533C147.065 50.159 145.345 51.672 143.306 52.6034C141.267 53.5347 139 53.8431 136.787 53.4899C134.574 53.1366 132.514 52.1375 130.865 50.6174C129.215 49.0973 128.049 47.1236 127.513 44.9429C126.976 42.7623 127.092 40.4714 127.847 38.3567C128.602 36.2419 129.961 34.397 131.756 33.0526C133.551 31.7082 135.702 30.9239 137.939 30.7976H138.251C141.221 30.7084 144.108 31.7849 146.298 33.7981C148.487 35.8112 149.806 38.6017 149.974 41.5752Z" fill="#F49B51"/>
<path d="M138.348 50.9907L138.23 48.8287C137.081 48.8836 135.94 48.6219 134.93 48.072L135.361 46.6126C136.302 47.1577 137.381 47.4169 138.467 47.3585C139.977 47.2828 140.947 46.3532 140.883 45.1424C140.818 43.9317 139.944 43.2939 138.338 42.7426C136.181 42.0075 134.736 41.1103 134.639 39.2509C134.604 38.3833 134.893 37.5339 135.449 36.8683C136.005 36.2027 136.789 35.7688 137.647 35.6512L137.529 33.4892L138.844 33.4243L138.963 35.4782C139.929 35.4382 140.89 35.6427 141.756 36.0728L141.303 37.5105C140.472 37.0689 139.534 36.8704 138.596 36.9376C136.957 37.0241 136.44 38.0186 136.44 38.8834C136.493 39.9644 137.313 40.5049 139.2 41.1643C141.433 41.9427 142.597 42.9804 142.705 44.8722C142.739 45.7836 142.437 46.6756 141.856 47.3776C141.275 48.0796 140.456 48.5423 139.556 48.6773L139.675 50.8934L138.348 50.9907Z" fill="#FCC659"/>
<path d="M149.348 38.754C149.315 38.6619 149.286 38.568 149.262 38.4729C148.727 36.9504 147.872 35.5606 146.756 34.397C145.64 33.2334 144.288 32.3231 142.792 31.7274L142.899 31.4355C144.429 32.0503 145.81 32.9855 146.951 34.1787C148.091 35.3719 148.963 36.7954 149.51 38.354C149.551 38.4521 149.583 38.5533 149.607 38.6567L149.348 38.754Z" fill="#2E4882"/>
<path d="M142.824 31.7279C140.393 30.7449 137.696 30.6454 135.2 31.4469L135.103 31.155C137.665 30.3324 140.434 30.4318 142.932 31.4361L142.824 31.7279Z" fill="#2E4882"/>
<path d="M148.906 47.4992L148.637 47.3478C149.312 46.0311 149.725 44.5957 149.855 43.1211H150.157C150.042 44.6505 149.616 46.1402 148.906 47.4992Z" fill="#2E4882"/>
<path d="M147.214 31.1547C146.071 30.243 144.794 29.5138 143.428 28.9927L143.547 28.6792C144.942 29.1933 146.248 29.9228 147.419 30.8412L147.214 31.1547Z" fill="#2E4882"/>
<path d="M147.235 53.6934L147.03 53.4232C149.94 51.214 151.876 47.9541 152.426 44.3365C152.976 40.719 152.096 37.0291 149.974 34.0515L150.244 33.8569C152.421 36.9042 153.325 40.683 152.762 44.3883C152.2 48.0936 150.217 51.4324 147.235 53.6934V53.6934Z" fill="#2E4882"/>
<path d="M185.469 54.3639C183.109 54.1747 180.746 54.6913 178.679 55.8483C176.612 57.0053 174.933 58.7508 173.856 60.8639C172.779 62.9771 172.35 65.3631 172.626 67.7202C172.901 70.0772 173.867 72.2996 175.403 74.1061C176.938 75.9127 178.973 77.2223 181.251 77.8694C183.529 78.5165 185.947 78.472 188.199 77.7415C190.452 77.0111 192.438 75.6275 193.906 73.7657C195.374 71.9039 196.258 69.6475 196.447 67.2819C196.572 65.7111 196.388 64.1309 195.904 62.6316C195.42 61.1323 194.646 59.7432 193.627 58.5436C192.607 57.3441 191.362 56.3575 189.963 55.6404C188.563 54.9232 187.036 54.4894 185.469 54.3639V54.3639ZM194.096 67.0981C193.97 68.6809 193.457 70.208 192.601 71.5443C191.746 72.8806 190.575 73.9847 189.192 74.7589C187.809 75.533 186.257 75.9533 184.673 75.9824C183.089 76.0116 181.523 75.6487 180.113 74.926C178.702 74.2032 177.492 73.1429 176.588 71.839C175.684 70.5351 175.115 69.0279 174.931 67.4508C174.747 65.8738 174.954 64.2757 175.534 62.798C176.114 61.3204 177.048 60.0089 178.254 58.9798C180.118 57.3663 182.536 56.5442 184.994 56.688H185.264C187.76 56.9058 190.075 58.0828 191.725 59.9727C193.376 61.8626 194.233 64.319 194.118 66.8279C194.096 66.9252 194.096 67.0116 194.096 67.0981Z" fill="#FCC659"/>
<path d="M194.096 66.8387C194.096 66.9251 194.096 67.0116 194.096 67.0981C193.97 68.6808 193.457 70.208 192.601 71.5443C191.746 72.8806 190.575 73.9847 189.192 74.7588C187.809 75.533 186.257 75.9533 184.673 75.9824C183.089 76.0116 181.523 75.6487 180.113 74.9259C178.702 74.2032 177.492 73.1429 176.588 71.839C175.684 70.5351 175.115 69.0279 174.931 67.4508C174.747 65.8738 174.955 64.2756 175.534 62.798C176.114 61.3204 177.048 60.0089 178.254 58.9797C180.118 57.3663 182.536 56.5442 184.994 56.688H185.264C187.758 56.9111 190.07 58.0919 191.716 59.9835C193.362 61.8752 194.214 64.3314 194.096 66.8387V66.8387Z" fill="#F49B51"/>
<path d="M183.474 73.6701L183.571 71.854C182.603 71.7983 181.669 71.4726 180.875 70.9135L181.36 69.7352C182.105 70.2749 182.988 70.5899 183.905 70.6433C185.178 70.7081 186.062 70.0271 186.127 69.0001C186.192 67.9732 185.512 67.3678 184.218 66.7516C182.428 65.9409 181.339 65.0545 181.425 63.5086C181.476 62.7768 181.796 62.0901 182.325 61.5824C182.853 61.0748 183.551 60.7826 184.283 60.7629L184.38 58.9468L185.458 59.0116L185.361 60.7521C186.178 60.799 186.969 61.0558 187.658 61.498L187.151 62.6654C186.492 62.22 185.724 61.9656 184.93 61.9304C183.549 61.8547 182.989 62.6546 182.946 63.3789C182.892 64.3086 183.539 64.8167 185.102 65.5409C186.914 66.3949 187.788 67.3786 187.712 68.9785C187.657 69.747 187.32 70.4679 186.767 71.0026C186.213 71.5374 185.482 71.8483 184.714 71.8756L184.617 73.7458L183.474 73.6701Z" fill="#FCC659"/>
<path d="M193.827 64.406C193.827 64.3195 193.827 64.2438 193.827 64.1682C193.519 62.8434 192.933 61.5997 192.107 60.5203C191.281 59.441 190.235 58.5507 189.038 57.9091L189.157 57.6821C190.387 58.3347 191.463 59.2449 192.312 60.3509C193.16 61.457 193.762 62.733 194.075 64.0925L194.14 64.3519L193.827 64.406Z" fill="#2E4882"/>
<path d="M188.985 57.9093C187.033 56.8633 184.778 56.5344 182.611 56.9797L182.557 56.7202C184.784 56.2625 187.101 56.603 189.104 57.6823L188.985 57.9093Z" fill="#2E4882"/>
<path d="M192.662 71.7032L192.446 71.5627C193.134 70.5158 193.61 69.3444 193.848 68.1143H194.107C193.868 69.3948 193.376 70.6148 192.662 71.7032Z" fill="#2E4882"/>
<path d="M192.727 57.834C191.849 56.9618 190.841 56.2323 189.739 55.672L189.869 55.4233C190.989 55.9849 192.019 56.7139 192.921 57.5854L192.727 57.834Z" fill="#2E4882"/>
<path d="M190.689 76.7405L190.548 76.5027C193.188 74.9088 195.106 72.3476 195.895 69.3615C196.684 66.3753 196.283 63.1986 194.776 60.5038L195.024 60.3633C196.576 63.1183 196.994 66.3717 196.188 69.4307C195.382 72.4896 193.417 75.1124 190.71 76.7405H190.689Z" fill="#2E4882"/>
<path d="M176.464 59.4227C176.963 59.9239 177.278 60.579 177.36 61.2821V61.2821C177.842 60.759 178.482 60.4095 179.182 60.2876C178.679 59.7884 178.36 59.1329 178.276 58.4282V58.4282C177.797 58.9493 177.161 59.2986 176.464 59.4227V59.4227Z" fill="#FFE6A6"/>
<path d="M115.249 99.3232C119.142 98.7178 133.29 93.302 133.29 93.302C133.29 93.302 132.212 91.2697 128.502 91.8102C124.793 92.3507 115.184 94.7722 115.184 94.7722L115.249 99.3232Z" fill="#FCB47E"/>
<path d="M117.147 66.2762C114.209 66.1881 111.311 66.9746 108.819 68.5365C106.327 70.0984 104.352 72.3656 103.144 75.0518C101.937 77.7379 101.55 80.7226 102.034 83.6288C102.517 86.535 103.849 89.2324 105.861 91.3803C107.873 93.5283 110.474 95.0304 113.337 95.6971C116.2 96.3638 119.196 96.165 121.947 95.126C124.697 94.0869 127.079 92.2542 128.791 89.8592C130.502 87.4643 131.468 84.6145 131.565 81.6697C131.631 79.7089 131.311 77.7542 130.621 75.918C129.931 74.0818 128.887 72.4002 127.547 70.9698C126.207 69.5395 124.599 68.3885 122.814 67.5831C121.029 66.7776 119.103 66.3335 117.147 66.2762ZM128.61 81.5724C128.504 84.7516 127.142 87.7581 124.824 89.9311C122.507 92.1041 119.423 93.2658 116.252 93.1608C113.127 93.028 110.178 91.6743 108.036 89.3892C105.894 87.1042 104.729 84.0695 104.791 80.9346C104.853 77.7996 106.137 74.8136 108.367 72.6154C110.598 70.4173 113.598 69.1818 116.726 69.1733H117.05C120.164 69.2774 123.116 70.5948 125.276 72.8455C127.437 75.0963 128.637 78.1029 128.621 81.2265C128.621 81.3563 128.621 81.4643 128.61 81.5724Z" fill="#FCC659"/>
<path d="M128.621 81.2379V81.573C128.509 84.7521 127.144 87.7569 124.825 89.929C122.507 92.1012 119.424 93.2635 116.252 93.1614C113.127 93.0286 110.177 91.6748 108.035 89.3898C105.893 87.1047 104.729 84.07 104.791 80.9351C104.853 77.8001 106.137 74.8141 108.367 72.616C110.598 70.4178 113.598 69.1823 116.726 69.1738H117.05C120.166 69.278 123.119 70.5968 125.28 72.8499C127.441 75.103 128.64 78.1124 128.621 81.2379Z" fill="#F49B51"/>
<path d="M115.842 90.3397V88.0804C114.636 88.0671 113.456 87.7192 112.435 87.0751L112.985 85.5833C113.946 86.2172 115.069 86.5588 116.22 86.567C116.538 86.6124 116.862 86.5914 117.172 86.5055C117.482 86.4195 117.771 86.2705 118.021 86.0676C118.271 85.8647 118.477 85.6124 118.625 85.3263C118.774 85.0403 118.861 84.7266 118.883 84.405C118.883 83.1727 118.031 82.4051 116.381 81.7241C114.117 80.8161 112.715 79.7783 112.726 77.8325C112.747 76.9196 113.107 76.0476 113.735 75.3861C114.363 74.7247 115.214 74.3212 116.123 74.2544V72.0059H117.546V74.1679C118.562 74.1806 119.558 74.4561 120.436 74.9678L119.811 76.3947C118.961 75.8838 117.988 75.6148 116.996 75.6164C115.282 75.6164 114.634 76.6326 114.624 77.5298C114.624 78.6865 115.443 79.2702 117.374 80.0918C119.66 81.0431 120.814 82.2538 120.803 84.1996C120.78 85.1575 120.405 86.0732 119.751 86.7713C119.096 87.4694 118.207 87.9009 117.255 87.9831V90.3073L115.842 90.3397Z" fill="#FCC659"/>
<path d="M128.148 78.2431C128.148 78.1458 128.094 78.0485 128.072 77.9512C127.612 76.3248 126.812 74.8153 125.724 73.5235C124.636 72.2317 123.285 71.1872 121.763 70.4598L121.903 70.168C123.465 70.9107 124.851 71.9798 125.967 73.3036C127.083 74.6274 127.904 76.1752 128.374 77.8431C128.374 77.962 128.439 78.0593 128.461 78.1566L128.148 78.2431Z" fill="#2E4882"/>
<path d="M121.763 70.4599C119.281 69.2814 116.468 69.0025 113.804 69.6708L113.729 69.3573C116.465 68.6684 119.354 68.955 121.903 70.1681L121.763 70.4599Z" fill="#2E4882"/>
<path d="M127.122 87.367L126.842 87.2049C127.638 85.8797 128.165 84.4104 128.395 82.8809L128.718 82.9349C128.481 84.5028 127.939 86.0087 127.122 87.367V87.367Z" fill="#2E4882"/>
<path d="M126.4 70.1468C125.262 69.1323 123.974 68.3008 122.582 67.6822L122.722 67.3687C124.149 67.9948 125.467 68.8451 126.627 69.8874L126.4 70.1468Z" fill="#2E4882"/>
<path d="M124.966 93.6905L124.771 93.3986C127.961 91.2726 130.196 87.9827 131.002 84.2293C131.807 80.4759 131.12 76.5555 129.085 73.3027L129.409 73.1514C131.006 75.6926 131.803 78.6572 131.695 81.6589C131.604 84.0554 130.947 86.396 129.777 88.4879C128.607 90.5797 126.958 92.3629 124.966 93.6905V93.6905Z" fill="#2E4882"/>
<path d="M120.566 91.5291C120.566 91.5291 120.221 87.3888 114.268 87.1186C109.663 86.9132 108.143 84.3728 104.336 84.0161C101.776 83.9166 99.2297 84.4279 96.9057 85.5079C95.7152 85.9678 94.473 86.28 93.2068 86.4375C91.0098 86.6375 88.8022 86.1905 86.855 85.1511L86.9197 97.907C86.9197 97.907 96.6254 97.0746 98.6312 97.5503C100.637 98.0259 110.105 102.134 113.998 101.539C117.891 100.945 132.04 95.518 132.04 95.518C132.04 95.518 131.177 93.1398 127.435 93.6695C123.693 94.1992 120.361 95.3991 119.229 95.4639C118.493 95.4874 117.761 95.3662 117.072 95.1072L108.089 91.3453C112.23 91.8364 116.412 91.8979 120.566 91.5291V91.5291Z" fill="#FFC49C"/>
<path d="M70.312 91.3558C70.312 94.5989 70.4522 97.8419 70.7002 100.728V100.804C71.6492 112.079 74.2482 120.165 77.3108 120.165C80.3735 120.165 83.1558 111.517 84.0185 99.6256V99.4958L84.1695 85.6914V85.5725C83.5224 72.4166 80.697 62.5254 77.3108 62.5254C73.9247 62.5254 71.261 71.8869 70.5169 84.5131V84.5779C70.3875 86.7616 70.312 89.0317 70.312 91.3558Z" fill="#3F5A9F"/>
<path d="M85.194 102.804C83.846 114.933 80.4706 122.986 76.6423 122.986C73.4071 122.986 70.4415 117.278 68.7915 107.722L69.2121 107.657C70.8081 116.878 73.6551 122.597 76.6423 122.597C80.1795 122.597 83.447 114.565 84.7627 102.858L85.194 102.804Z" fill="#3F5A9F"/>
<path d="M67.7024 97.5932C67.5838 95.5609 67.5298 93.4638 67.5298 91.3558C67.5298 88.9019 67.616 86.4156 67.7778 83.9725V83.9617C67.9896 80.7644 68.3785 77.5813 68.9427 74.4272L69.3634 74.4921C68.8081 77.6327 68.4228 80.8011 68.2093 83.9834V83.9617C68.0367 86.394 67.9504 88.8803 67.9504 91.3234C67.9504 93.4314 68.0151 95.5177 68.1338 97.5392L67.7024 97.5932Z" fill="#3F5A9F"/>
<path d="M85.3019 80.4702H84.8706C83.6089 68.4926 80.2982 60.0932 76.6855 60.0932C74.4316 60.0932 72.1994 63.4011 70.5602 69.1737L70.1504 69.0764C71.8651 63.0335 74.1836 59.7148 76.6855 59.7148C78.8423 59.7148 80.805 62.0822 82.4226 66.5792C83.9169 71.0819 84.8832 75.7435 85.3019 80.4702V80.4702Z" fill="#3F5A9F"/>
<path d="M126.745 37.8134C127.822 38.369 128.68 39.2714 129.183 40.3754V40.3754C129.683 39.2674 130.542 38.3609 131.62 37.8026V37.8026C130.542 37.2547 129.682 36.3549 129.183 35.2515V35.2515C128.68 36.3555 127.822 37.2579 126.745 37.8134Z" fill="#FFE6A6"/>
<path d="M130.616 44.5265C131.242 44.8441 131.741 45.3667 132.029 46.0074V46.0074C132.323 45.3664 132.825 44.8442 133.453 44.5265V44.5265C132.826 44.2018 132.325 43.6769 132.029 43.0347V43.0347C131.741 43.6785 131.243 44.2047 130.616 44.5265V44.5265Z" fill="#FFE6A6"/>
<path d="M86.8765 87.8317V97.9499C86.8765 97.9499 88.4727 97.8094 90.5004 97.6797C90.3926 95.3447 89.9935 89.4749 88.559 86.7183C88.2462 86.0264 87.6315 86.5561 86.8765 87.8317Z" fill="#FFA87D"/>
<path d="M115.81 91.9613C113.248 91.9454 110.689 91.7938 108.143 91.5073V91.2046C111.157 91.547 114.19 91.6915 117.223 91.637V91.9397C116.791 91.9613 116.306 91.9613 115.81 91.9613Z" fill="#2E4882"/>
<path d="M119.002 95.6691C118.327 95.657 117.66 95.529 117.028 95.2907L113.373 93.7557L113.491 93.4746L117.147 94.9988C117.808 95.249 118.511 95.3665 119.217 95.3447C120.046 95.2283 120.865 95.0476 121.665 94.8042C123.557 94.2842 125.476 93.8692 127.413 93.5611C131.242 93.0206 132.18 95.4853 132.191 95.5069L131.9 95.615C131.9 95.5285 131.026 93.3557 127.457 93.8638C125.53 94.1727 123.622 94.5877 121.741 95.1069C120.923 95.3561 120.086 95.5404 119.239 95.6582L119.002 95.6691Z" fill="#2E4882"/>
<path d="M94.2096 87.205L94.0479 86.9455C95.8126 85.8932 97.7047 85.0721 99.6779 84.5024L99.7534 84.8051C97.8102 85.3627 95.9468 86.1693 94.2096 87.205V87.205Z" fill="#2E4882"/>
<path d="M88.8717 97.0745C88.7639 98.0366 88.6237 98.9986 88.4512 99.9716L85.4101 100.285L84.4611 100.382L83.9327 100.436L70.9918 101.777C70.9868 101.756 70.9868 101.733 70.9918 101.712C70.7222 98.123 70.582 94.2638 70.582 90.2641C70.582 87.5688 70.6467 84.9636 70.7761 82.4484C70.7761 82.3079 70.7761 82.1566 70.7761 82.016V81.9512L84.116 83.1835H84.5797L85.5934 83.2808L88.4727 83.5403C89.2922 88.005 89.4268 92.569 88.8717 97.0745Z" fill="#6D92F0"/>
<path d="M88.8714 97.0745C88.7636 98.0366 88.6126 98.9987 88.4293 99.9716L85.2696 100.285L84.4608 100.372L83.7383 100.436L70.9592 101.712H70.8945L70.7974 100.685V100.609C70.5386 97.6583 70.3984 94.4909 70.3984 91.1939C70.3984 88.8481 70.4739 86.5671 70.6033 84.3943C70.6033 84.3943 70.6033 84.3943 70.6033 84.3295C70.6033 83.6881 70.6465 83.0611 70.7327 82.4485C70.7327 82.308 70.7327 82.1566 70.7327 82.0161L72.1239 82.135C72.3827 85.0862 73.3101 92.837 75.8983 94.9558C77.6992 96.4259 81.506 96.88 84.5255 96.9989C86.9088 97.0962 88.8391 96.9989 88.8391 96.9989L88.8714 97.0745Z" fill="#647CE2"/>
<path d="M145.35 48.0381C145.036 47.8069 144.812 47.473 144.718 47.094C144.623 46.715 144.664 46.3148 144.833 45.9626C145.296 45.0978 146.839 44.7627 146.839 44.7627C146.375 45.3572 146.17 47.0977 145.76 47.6922L145.35 48.0381Z" fill="#374263"/>
<path d="M149.2 59.9294C149.2 59.9294 150.936 56.0378 148.962 53.1515L152.51 51.1841C153.271 54.9229 154.488 58.5535 156.134 61.9942C154.214 63.6697 149.48 63.6157 149.2 59.9294Z" fill="#FCB47E"/>
<path d="M148.962 53.1517C149.594 54.1134 149.921 55.2437 149.901 56.3948C151.165 55.3241 152.209 54.017 152.975 52.5464L148.962 53.1517Z" fill="#374263"/>
<path d="M153.33 53.0543C152.694 53.865 149.901 56.1892 147.992 55.9405C145.566 55.6271 144.11 46.8493 146.137 45.1845C147.216 44.2873 150.257 44.4494 151.961 46.4493C153.664 48.4492 154.171 51.9733 153.33 53.0543Z" fill="#FCB47E"/>
<path d="M138.438 140.702C140.487 141.561 142.686 142.003 144.908 142.003C147.129 142.003 149.329 141.561 151.378 140.702L144.703 138.659L138.438 140.702Z" fill="#374263"/>
<path d="M171.609 137.297C171.609 137.297 167.436 142.562 159.121 141.157L159.261 135.979L171.609 137.297Z" fill="#374263"/>
<path d="M171.792 140.864L169.776 136.4L164.912 138.097L167.49 142.227C168.579 143.783 171.76 142.864 171.792 140.864Z" fill="#FCB47E"/>
<path d="M146.699 144.204L147.594 139.329H142.492L142.244 144.064C142.729 145.934 146.03 146.085 146.699 144.204Z" fill="#FCB47E"/>
<path d="M171.609 137.297C167.78 139.488 163.516 140.806 159.121 141.157C159.121 141.157 141.414 115.515 145.242 84.8145H158.183C158.183 84.8145 155.034 108.543 171.609 137.297Z" fill="#3F5A9F"/>
<path d="M148.962 119.558C150.688 124.829 152.853 129.946 155.433 134.854L159.628 105.915C158.932 102.453 158.446 98.9512 158.172 95.4297L156.846 90.2949L148.962 119.558Z" fill="#314B87"/>
<path d="M138.287 140.756C142.581 141.335 146.933 141.335 151.227 140.756L158.334 98.705C160.3 96.4457 161.622 93.6974 162.162 90.7488C162.415 89.2439 162.393 87.7056 162.098 86.2086C162.012 85.7512 161.897 85.2998 161.753 84.8573L161.311 84.7924L156.005 84.0573L154.754 83.8844L145.048 82.5439L138.287 140.756Z" fill="#3F5A9F"/>
<path d="M147.367 85.4301C150.602 89.2569 158.895 90.4244 162.162 90.7487C162.415 89.2438 162.393 87.7055 162.098 86.2084L161.31 84.7923L156.005 84.0572L154.754 83.8843L147.367 85.4301Z" fill="#314B87"/>
<path d="M143.83 84.479C144.636 84.9706 145.48 85.3972 146.353 85.7546C147.629 86.2745 148.936 86.7114 150.268 87.0626C154.891 88.2139 159.615 88.9162 164.373 89.1597C161.58 79.7982 163.931 71.2583 161.979 64.5128C161.025 61.6438 159.016 59.2471 156.361 57.8105C154.916 58.7726 151.13 60.5023 149.524 59.0429C149.479 58.9958 149.426 58.9582 149.366 58.9326C149.307 58.9069 149.243 58.8937 149.178 58.8937C149.114 58.8937 149.05 58.9069 148.991 58.9326C148.931 58.9582 148.878 58.9958 148.833 59.0429C142.158 67.691 144.142 71.7988 144.196 78.2308C144.19 80.3187 144.068 82.4047 143.83 84.479V84.479Z" fill="#BAC8F3"/>
<path d="M158.317 98.6336L153.135 130.919L153.475 130.974L158.657 98.6885L158.317 98.6336Z" fill="white"/>
<path d="M145.404 46.1037C145.102 45.1417 145.706 44.7309 146.407 44.0066C146.785 43.6762 147.241 43.4474 147.731 43.3416C148.221 43.2357 148.73 43.2562 149.211 43.4012C150.129 43.5569 150.981 43.982 151.659 44.6228C152.813 45.7795 153.071 48.9468 151.044 49.0225C147.884 49.1738 145.932 47.7577 145.404 46.1037Z" fill="#374263"/>
<path d="M152.403 51.1194C151.961 49.8114 150.893 49.0114 150.084 47.8764L145.771 45.1847C146.556 44.2522 147.588 43.5607 148.748 43.1897C149.907 42.8188 151.148 42.7833 152.327 43.0875C154.657 43.9415 156.015 46.3305 157.245 49.9303C157.811 51.5144 158.755 52.9357 159.995 54.0705C166.206 59.9945 166.465 66.0589 162.637 68.4371C161.673 69.0918 160.526 69.4217 159.363 69.379C158.199 69.3362 157.08 68.923 156.166 68.1993C151.885 65.2049 151.896 54.157 152.403 51.1194Z" fill="#374263"/>
<path d="M148.402 49.887C149.271 50.0019 150.155 49.9244 150.991 49.66L150.915 49.4222C149.688 49.8174 148.357 49.7403 147.183 49.206C146.752 48.9367 146.385 48.5751 146.109 48.1471C145.833 47.7192 145.655 47.2355 145.587 46.7305L145.328 46.7845C145.408 47.3232 145.604 47.838 145.902 48.2934C146.2 48.7488 146.593 49.1339 147.054 49.4222C147.472 49.6566 147.929 49.814 148.402 49.887V49.887Z" fill="#374263"/>
<path d="M150.893 50.2109C150.856 50.4354 150.888 50.6655 150.982 50.8721C151.077 51.0786 151.231 51.2523 151.425 51.3709C151.618 51.4896 151.842 51.5478 152.069 51.5383C152.296 51.5288 152.514 51.4519 152.697 51.3175C152.88 51.183 153.019 50.9971 153.096 50.7833C153.173 50.5695 153.185 50.3376 153.131 50.117C153.076 49.8963 152.957 49.697 152.789 49.5443C152.621 49.3917 152.411 49.2926 152.187 49.2597C152.039 49.2366 151.889 49.243 151.744 49.2784C151.599 49.3137 151.463 49.3774 151.343 49.4658C151.222 49.5542 151.121 49.6655 151.043 49.7934C150.966 49.9213 150.915 50.0632 150.893 50.2109Z" fill="#FCB47E"/>
<path d="M162.982 149.34H169.031C169.119 149.339 169.205 149.321 169.285 149.285C169.364 149.25 169.436 149.198 169.495 149.134L175.146 143.199C175.251 143.091 175.309 142.945 175.309 142.794C175.309 142.643 175.251 142.498 175.146 142.389L172.547 139.881C172.234 139.567 171.469 139.643 171.523 140.086C171.684 142.248 169.118 142.637 167.543 142.248C167.446 142.227 167.345 142.244 167.259 142.294C167.174 142.344 167.11 142.424 167.08 142.518C166.893 143.609 166.596 144.677 166.195 145.707C165.519 146.399 164.681 146.912 163.758 147.199C163.565 147.286 163.391 147.411 163.247 147.567C163.103 147.723 162.992 147.906 162.919 148.105C162.847 148.305 162.815 148.517 162.826 148.729C162.837 148.941 162.889 149.148 162.982 149.34V149.34Z" fill="#374263"/>
<path d="M168.072 145.664C167.783 145.746 167.476 145.733 167.195 145.628C166.914 145.523 166.673 145.332 166.508 145.08L166.702 144.951C166.84 145.161 167.041 145.321 167.275 145.408C167.51 145.496 167.767 145.506 168.007 145.437L168.072 145.664Z" fill="white"/>
<path d="M167.425 146.745C167.149 146.81 166.86 146.792 166.593 146.694C166.327 146.596 166.095 146.422 165.926 146.194L166.12 146.064C166.265 146.253 166.461 146.397 166.684 146.477C166.908 146.558 167.15 146.572 167.382 146.518L167.425 146.745Z" fill="white"/>
<path d="M170.897 142.886C170.34 143.113 169.74 143.217 169.139 143.189V142.962C169.139 142.962 171.436 143.092 171.879 141.47L172.105 141.535C172.021 141.838 171.869 142.118 171.659 142.352C171.45 142.587 171.189 142.77 170.897 142.886V142.886Z" fill="white"/>
<path d="M173.652 143.326L168.968 148.11L169.138 148.277L173.821 143.493L173.652 143.326Z" fill="white"/>
<path d="M147.722 149.296L134.522 149.35C134.413 149.351 134.305 149.328 134.204 149.285C134.104 149.241 134.013 149.177 133.938 149.097C133.863 149.017 133.806 148.922 133.769 148.819C133.732 148.716 133.717 148.606 133.724 148.496V148.183C133.751 147.853 133.854 147.535 134.026 147.253C134.652 146.421 135.87 146.042 138.027 145.167C139.087 144.736 140.099 144.196 141.047 143.556C141.12 143.496 141.211 143.464 141.306 143.464C141.4 143.464 141.491 143.496 141.564 143.556C144.185 146.107 145.792 145.556 146.266 144.497C146.633 143.697 147.151 143.859 147.345 144.097C147.814 145.373 148.083 146.715 148.143 148.075C148.143 148.194 148.143 148.302 148.143 148.388C148.143 148.475 148.143 148.713 148.143 148.713C148.163 148.779 148.167 148.85 148.155 148.918C148.144 148.987 148.117 149.052 148.076 149.108C148.035 149.165 147.982 149.211 147.921 149.244C147.86 149.276 147.792 149.294 147.722 149.296V149.296Z" fill="#374263"/>
<path d="M138.815 146.54C138.548 146.418 138.327 146.214 138.183 145.957C138.04 145.701 137.981 145.405 138.017 145.113H138.244C138.211 145.357 138.259 145.605 138.38 145.819C138.5 146.034 138.687 146.203 138.912 146.302L138.815 146.54Z" fill="white"/>
<path d="M137.661 146.94C137.413 146.814 137.207 146.618 137.069 146.376C136.931 146.134 136.867 145.856 136.884 145.578H137.111C137.1 145.811 137.156 146.041 137.273 146.243C137.39 146.444 137.562 146.607 137.769 146.713L137.661 146.94Z" fill="white"/>
<path d="M145.113 146.334C144.524 146.314 143.945 146.178 143.409 145.934L143.517 145.729C143.517 145.729 145.544 146.734 146.569 145.448L146.752 145.588C146.556 145.833 146.306 146.028 146.021 146.157C145.737 146.287 145.425 146.347 145.113 146.334V146.334Z" fill="white"/>
<path d="M146.53 148.297L138.831 148.326L138.831 148.553L146.531 148.524L146.53 148.297Z" fill="white"/>
<path d="M137.828 148.361L136.005 148.368L136.006 148.595L137.829 148.588L137.828 148.361Z" fill="white"/>
<path d="M146.353 85.7547C147.628 86.2746 148.936 86.7115 150.267 87.0628C152.303 85.1185 153.93 82.7855 155.052 80.2012C156.175 77.6169 156.77 74.8335 156.802 72.0151L146.353 85.7547Z" fill="#9AADE5"/>
<path d="M142.115 88.0035C154.635 85.1497 156.803 72.0154 156.803 72.0154C156.803 72.0154 154.732 66.2321 152.198 66.0159H152.123C151.519 65.9673 150.911 66.0419 150.336 66.2352C149.762 66.4285 149.232 66.7366 148.78 67.1407C148.327 67.5448 147.961 68.0366 147.704 68.5864C147.446 69.1363 147.302 69.7328 147.281 70.3399C147.065 74.9017 146.202 80.5662 140.508 83.9281L142.115 88.0035Z" fill="#BAC8F3"/>
<path d="M140.583 84.0468L140.432 83.7874C145.652 80.6849 146.363 75.6582 147 71.2153L147.129 70.3072C147.355 68.7614 148.143 64.9779 150.494 63.2915L150.666 63.5401C148.423 65.1616 147.657 68.8479 147.431 70.3505C147.377 70.6532 147.334 70.9558 147.291 71.2585C146.698 75.5069 145.932 80.8038 140.583 84.0468Z" fill="#2E4882"/>
<path d="M153.125 80.804L152.888 80.6094C155.045 78.1231 156.555 72.7289 156.566 72.6748L156.868 72.7505C156.803 72.9883 155.336 78.2852 153.125 80.804Z" fill="#2E4882"/>
<path d="M149.599 90.9865C149.491 90.9865 146.989 89.6568 146.666 87.3867H146.978C147.28 89.4947 149.707 90.7378 149.739 90.7487L149.599 90.9865Z" fill="white"/>
<path d="M137.349 87.949C137.349 88.0571 135.192 88.5112 135.278 88.8679C135.365 89.2246 137.241 88.4895 137.338 88.7057C137.435 88.9219 136.702 88.9868 136.26 89.1598C136.044 89.2462 136.076 89.4408 136.26 89.4516C137.91 89.6138 140.24 87.9058 140.574 87.8518C141.049 87.7545 141.512 87.6464 141.955 87.5275L140.768 84.479C140.543 84.6392 140.309 84.7872 140.067 84.9222C139.618 85.2369 139.118 85.4711 138.589 85.6141C138.266 85.6141 136.508 85.4519 136.508 85.8303C136.508 86.2086 137.737 86.0897 137.683 86.4032C137.63 86.7167 135.235 86.8896 135.419 87.3329C135.602 87.7761 136.961 87.2356 136.972 87.4085C136.982 87.5815 135.106 87.668 135.257 88.1004C135.408 88.5328 137.284 87.7328 137.349 87.949Z" fill="#FFBB8D"/>
<path d="M47.358 15.3721L47.0776 15.1992C50.4315 9.58874 55.8235 5.79441 64.0733 3.23242L64.1703 3.54591C56.0068 6.12951 50.6687 9.83737 47.358 15.3721Z" fill="#2E4882"/>
<path d="M42.1164 18.0204L41.8037 17.9123C46.1173 6.0212 57.2464 2.16201 67.5344 0L67.5991 0.324305C57.3974 2.47551 46.3869 6.25903 42.1164 18.0204Z" fill="#2E4882"/>
<path d="M230.384 73.4222C226.675 65.7039 222.178 60.969 216.236 58.5043L216.354 58.2017C222.383 60.688 226.934 65.4768 230.686 73.2709L230.384 73.4222Z" fill="#2E4882"/>
<path d="M234.698 77.216C231.063 67.4221 225.704 57.0661 213.453 54.5689L213.518 54.2446C225.919 56.7742 231.344 67.2167 235 77.0971L234.698 77.216Z" fill="#2E4882"/>
<path d="M67.0767 155.308C67.0767 156.162 73.3638 156.865 81.0959 156.865C88.8281 156.865 95.1151 156.162 95.1151 155.308V151.06H67.0767V155.308Z" fill="#F49B51"/>
<path d="M81.1174 152.67C88.8659 152.67 95.1474 151.973 95.1474 151.114C95.1474 150.254 88.8659 149.557 81.1174 149.557C73.3688 149.557 67.0874 150.254 67.0874 151.114C67.0874 151.973 73.3688 152.67 81.1174 152.67Z" fill="#FCC659"/>
<path d="M63.766 150.26C63.766 151.114 70.0531 151.817 77.7853 151.817C85.5174 151.817 91.8045 151.114 91.8045 150.26V146.012H63.766V150.206C63.7609 150.224 63.7609 150.242 63.766 150.26Z" fill="#F49B51"/>
<path d="M77.7957 147.601C85.5442 147.601 91.8257 146.904 91.8257 146.044C91.8257 145.184 85.5442 144.487 77.7957 144.487C70.0471 144.487 63.7656 145.184 63.7656 146.044C63.7656 146.904 70.0471 147.601 77.7957 147.601Z" fill="#FCC659"/>
<path d="M67.0767 145.19C67.0767 146.044 73.3638 146.746 81.0959 146.746C88.8281 146.746 95.1151 146.044 95.1151 145.19C95.1151 145.19 95.1151 145.19 95.1151 145.136V140.941H67.0767V145.125C67.0767 145.125 67.0767 145.168 67.0767 145.19Z" fill="#F49B51"/>
<path d="M81.1174 142.531C88.8659 142.531 95.1474 141.834 95.1474 140.974C95.1474 140.114 88.8659 139.417 81.1174 139.417C73.3688 139.417 67.0874 140.114 67.0874 140.974C67.0874 141.834 73.3688 142.531 81.1174 142.531Z" fill="#FCC659"/>
<path d="M81.1064 157.048C86.8111 157.048 95.3089 156.594 95.3089 155.33H94.9746C94.9746 155.816 90.2081 156.724 81.1064 156.724H80.125V157.059L81.1064 157.048Z" fill="#2E4882"/>
<path d="M75.5537 156.93V156.595C74.13 156.519 72.8249 156.433 71.6816 156.314V156.649C72.8141 156.757 74.1192 156.854 75.5537 156.93Z" fill="#2E4882"/>
<path d="M86.65 151.6C91.9242 151.125 91.9242 150.454 91.9242 150.238H91.5898C91.5898 150.4 90.6946 150.898 86.6177 151.319L86.65 151.6Z" fill="#2E4882"/>
<path d="M77.7208 151.958C79.306 151.958 80.8482 151.958 82.3256 151.871V151.547C79.6835 151.644 76.7718 151.655 74.0542 151.547V151.871C75.2297 151.947 76.4806 151.958 77.7208 151.958Z" fill="#2E4882"/>
<path d="M70.5493 151.741V151.406C69.0501 151.308 67.7451 151.179 66.6665 151.027V151.362C67.7343 151.514 69.0177 151.644 70.5493 151.741Z" fill="#2E4882"/>
<path d="M90.5862 142.336C95.2672 141.85 95.2672 141.255 95.2672 141.028H94.9004C94.9004 141.028 94.7818 141.569 90.5215 142.001L90.5862 142.336Z" fill="#2E4882"/>
<path d="M81.0315 142.715C82.6384 142.715 84.2667 142.715 85.7118 142.628V142.336C84.2236 142.39 82.6491 142.423 81.0423 142.423C78.163 142.423 75.3914 142.325 73.0405 142.142V142.477C75.3699 142.617 78.1414 142.715 81.0315 142.715Z" fill="#2E4882"/>
<path d="M62.105 140.174C62.105 141.028 68.3921 141.72 76.1242 141.72C83.8564 141.72 90.1435 141.028 90.1435 140.174V135.85H62.105V140.044C62.105 140.044 62.105 140.098 62.105 140.174Z" fill="#F49B51"/>
<path d="M62.105 135.904C62.105 136.758 68.3921 137.461 76.1242 137.461C83.8564 137.461 90.1435 136.758 90.1435 135.904C90.1435 135.05 83.8672 134.348 76.1242 134.348C68.3813 134.348 62.105 135.04 62.105 135.904Z" fill="#FCC659"/>
<path d="M64.7046 135.904C64.7046 136.477 69.8162 136.985 76.1249 136.985C82.4336 136.985 87.556 136.51 87.556 135.904C87.556 135.299 82.4444 134.823 76.1249 134.823C69.8055 134.823 64.7046 135.321 64.7046 135.904Z" fill="#F49B51"/>
<path d="M43.9024 130.445C41.1008 130.369 38.3396 131.128 35.9681 132.625C33.5966 134.122 31.7212 136.29 30.5791 138.856C29.437 141.421 29.0795 144.269 29.5518 147.038C30.0241 149.807 31.305 152.374 33.2325 154.413C35.16 156.453 37.6474 157.874 40.3804 158.496C43.1134 159.118 45.9692 158.914 48.5865 157.91C51.2038 156.905 53.4651 155.145 55.0845 152.852C56.704 150.559 57.6087 147.836 57.6844 145.028C57.7859 141.262 56.3909 137.61 53.8062 134.875C51.2216 132.141 47.6592 130.547 43.9024 130.445V130.445ZM54.9237 144.952C54.8622 147.2 54.1411 149.38 52.8507 151.219C51.5602 153.058 49.7576 154.475 47.6681 155.293C45.5786 156.11 43.295 156.293 41.1028 155.817C38.9105 155.34 36.9069 154.227 35.3424 152.616C33.7779 151.005 32.7219 148.967 32.3064 146.757C31.8909 144.548 32.1344 142.264 33.0064 140.193C33.8784 138.121 35.3402 136.353 37.2091 135.11C39.078 133.866 41.2711 133.203 43.5142 133.202H43.8269C46.7965 133.283 49.6172 134.523 51.6895 136.657C53.7617 138.79 54.922 141.65 54.9237 144.628V144.952Z" fill="#FCC659"/>
<path d="M54.9231 144.595V144.909C54.8617 147.156 54.1406 149.336 52.8501 151.175C51.5596 153.014 49.757 154.431 47.6676 155.249C45.5781 156.067 43.2945 156.249 41.1022 155.773C38.91 155.297 36.9064 154.184 35.3419 152.572C33.7774 150.961 32.7213 148.923 32.3058 146.714C31.8904 144.504 32.1338 142.221 33.0058 140.149C33.8778 138.077 35.3396 136.309 37.2085 135.066C39.0775 133.823 41.2705 133.159 43.5136 133.158H43.8264C46.7979 133.24 49.6202 134.481 51.6927 136.617C53.7652 138.753 54.9243 141.615 54.9231 144.595Z" fill="#F49B51"/>
<path d="M42.8021 153.34V151.178C41.6571 151.175 40.5362 150.849 39.5669 150.238L40.0737 148.811C40.9843 149.408 42.0483 149.727 43.1364 149.73C44.6462 149.73 45.6706 148.854 45.6706 147.644C45.6706 146.433 44.8403 145.752 43.2658 145.114C41.109 144.26 39.761 143.276 39.761 141.428C39.7748 140.553 40.1144 139.716 40.7131 139.08C41.3118 138.443 42.1262 138.055 42.9962 137.99V135.828H44.3226V137.893C45.291 137.903 46.2408 138.16 47.0833 138.639L46.5549 140.055C45.7429 139.571 44.8141 139.321 43.8697 139.331C42.2413 139.331 41.6159 140.303 41.6159 141.157C41.6159 142.238 42.4031 142.822 44.2579 143.59C46.4147 144.476 47.4931 145.59 47.4931 147.481C47.4782 148.393 47.1276 149.268 46.5085 149.936C45.8893 150.605 45.0455 151.02 44.1393 151.103V153.319L42.8021 153.34Z" fill="#FCC659"/>
<path d="M54.4607 141.742C54.4607 141.644 54.4607 141.547 54.3852 141.46C53.9371 139.913 53.1646 138.478 52.1193 137.254C51.074 136.029 49.78 135.042 48.3237 134.358L48.4639 134.077C49.9549 134.779 51.2799 135.791 52.351 137.045C53.4221 138.299 54.2148 139.768 54.6765 141.352C54.6765 141.471 54.6765 141.558 54.7628 141.655L54.4607 141.742Z" fill="#2E4882"/>
<path d="M48.3235 134.359C45.9644 133.255 43.2962 133.006 40.7747 133.656L40.6992 133.364C43.3055 132.687 46.0657 132.939 48.5068 134.077L48.3235 134.359Z" fill="#2E4882"/>
<path d="M53.5323 150.444L53.2734 150.292C54.0226 149.013 54.5136 147.599 54.7187 146.13H55.0207C54.8216 147.654 54.3152 149.122 53.5323 150.444V150.444Z" fill="#2E4882"/>
<path d="M52.7451 134.035C51.6513 133.078 50.4184 132.294 49.0889 131.71L49.2183 131.408C50.5816 132.001 51.8443 132.803 52.9609 133.786L52.7451 134.035Z" fill="#2E4882"/>
<path d="M51.5154 156.53L51.332 156.249C54.3601 154.205 56.4735 151.058 57.2227 147.476C57.972 143.895 57.2981 140.162 55.3443 137.071L55.6248 136.888C57.6328 140.052 58.3271 143.877 57.5593 147.547C56.7915 151.217 54.6225 154.441 51.5154 156.53V156.53Z" fill="#2E4882"/>
<path d="M85.9918 39.5216H70.5167C70.4424 39.5216 70.3711 39.492 70.3185 39.4393C70.2659 39.3866 70.2363 39.3151 70.2363 39.2405C70.2363 39.166 70.2659 39.0945 70.3185 39.0418C70.3711 38.9891 70.4424 38.9595 70.5167 38.9595H85.9918C86.0661 38.9595 86.1375 38.9891 86.19 39.0418C86.2426 39.0945 86.2722 39.166 86.2722 39.2405C86.2722 39.3151 86.2426 39.3866 86.19 39.4393C86.1375 39.492 86.0661 39.5216 85.9918 39.5216Z" fill="#2E4882"/>
<path d="M35.0479 136.553C36.1243 137.108 36.9829 138.011 37.4854 139.115V139.115C37.9879 138.011 38.8465 137.108 39.923 136.553C38.8465 135.997 37.9879 135.095 37.4854 133.991C36.9829 135.095 36.1243 135.997 35.0479 136.553V136.553Z" fill="#FFE6A6"/>
<path d="M49.0244 151.763C49.6531 152.082 50.1523 152.609 50.4373 153.255V153.255C50.7302 152.61 51.232 152.085 51.861 151.763V151.763C51.2341 151.438 50.7331 150.913 50.4373 150.271V150.271C50.1493 150.915 49.6509 151.441 49.0244 151.763V151.763Z" fill="#FFE6A6"/>
<path d="M34.0781 149.125C34.7068 149.444 35.206 149.971 35.491 150.617V150.617C35.7803 149.97 36.2831 149.443 36.9147 149.125C36.2878 148.8 35.7868 148.275 35.491 147.633V147.633C35.203 148.277 34.7046 148.803 34.0781 149.125V149.125Z" fill="#FFE6A6"/>
<defs>
<linearGradient id="paint0_linear_513_16813" x1="76.9384" y1="34.311" x2="76.9384" y2="153.579" gradientUnits="userSpaceOnUse">
<stop stop-color="#8F79F0"/>
<stop offset="1" stop-color="#333CFF"/>
</linearGradient>
</defs>
</svg>
