<svg width="239" height="154" viewBox="0 0 239 154" fill="none" xmlns="http://www.w3.org/2000/svg">
<path d="M118.5 154C174.005 154 219 151.761 219 149C219 146.239 174.005 144 118.5 144C62.9954 144 18 146.239 18 149C18 151.761 62.9954 154 118.5 154Z" fill="#E9ECF2"/>
<path d="M52.6549 133.311C35.2239 127.899 11.6272 100.827 21.2146 74.4364C26.6707 59.421 43.7998 58.3026 57.262 55.8091C75.9724 52.3427 84.3916 41.3187 96.7854 27.7498C110.632 12.5889 142.081 -5.11973 169.895 18.4775C177.385 24.8312 178.579 37.1219 188.243 45.7466C197.964 54.4226 210.64 54.4625 216.344 71.6376C220.789 85.0211 201.654 112.864 188.688 121.16C164.712 136.509 91.9646 145.516 52.6549 133.311Z" fill="#F4F5F8"/>
<path d="M227 78C226.997 78.1004 226.994 78.1979 226.991 78.2982C226.713 90.4944 224.981 99.9232 222.5 107.21L216.073 110.783L221.235 110.255L221.383 110.241C218.183 118.225 214.07 123.275 210.268 126.46C207.901 128.448 205.654 129.712 203.823 130.512C203.703 130.567 203.584 130.619 203.464 130.667C203.168 130.791 202.884 130.903 202.614 131H199.181C199.141 130.837 199.107 130.676 199.073 130.512C199.047 130.409 199.027 130.309 199.007 130.206C198.976 130.071 198.95 129.936 198.922 129.801C195.691 113.866 201.442 101.598 208.567 93.0093C208.587 92.9806 208.609 92.952 208.638 92.9233C211.118 89.9438 213.763 87.4088 216.249 85.3211L217.56 89.2871L218.061 83.8557C222.378 80.4776 225.922 78.5592 226.792 78.109C226.929 78.0315 227 78 227 78Z" fill="#00DBAA"/>
<path d="M227 78.1289L226.874 78.3609L219.028 92.8175L218.888 93.0725L216.749 97.0139L216.677 97.1457L209.856 109.712L209.847 109.729L198.732 130.207L198.566 130.513L198.3 131H198L198.26 130.513L198.646 129.803L209.615 109.594L209.819 109.219L226.674 78.169L226.768 78L227 78.1289Z" fill="#00DBAA"/>
<path d="M226.213 90.9894L217 97L217.118 97.2055L226.331 91.1949L226.213 90.9894Z" fill="white"/>
<path d="M225.569 89.4334L219 93.999L219.117 94.2154L225.686 89.6497L225.569 89.4334Z" fill="white"/>
<path d="M209.304 92.9811L209 92.999L210.689 109.915L210.993 109.897L209.304 92.9811Z" fill="white"/>
<path opacity="0.6" d="M198 133.583C198 133.583 205.931 137.86 217.86 131.553L214.201 129.571L220.311 130.139C224.99 127.21 230.2 122.647 235.723 115.658L234.326 114.904L236.179 115.075C237.111 113.879 238.051 112.614 239 111.275C239 111.275 235.617 110.795 230.733 111.103L228.062 114.356L228.935 111.252C218.929 112.243 204.198 116.697 198 133.583Z" fill="#00DBAA"/>
<path d="M238.704 111.325L197 133L197.12 133.234L238.824 111.559L238.704 111.325Z" fill="white"/>
<path d="M228.039 116.79L228 117.001L233.948 117.789L233.987 117.578L228.039 116.79Z" fill="white"/>
<path d="M225.057 117.736L225 118L231.791 119.698L231.848 119.434L225.057 117.736Z" fill="white"/>
<path d="M208.195 120L208 119.745C211.628 116.729 215.971 114.459 220.915 113L221 113.313C216.1 114.763 211.789 117.011 208.195 120Z" fill="#2E4882"/>
<path d="M206 41.6473V146.353C206 147.814 204.832 149 203.388 149H152.612C151.17 149 150 147.814 150 146.353V41.6473C150 40.1836 151.17 39 152.612 39H203.388C204.832 39 206 40.1836 206 41.6473Z" fill="url(#paint0_linear_538_18325)"/>
<path d="M203 41.6473V146.353C203 147.814 201.832 149 200.388 149H149.612C148.17 149 147 147.814 147 146.353V41.6473C147 40.1836 148.17 39 149.612 39H200.388C201.832 39 203 40.1836 203 41.6473Z" fill="url(#paint1_linear_538_18325)"/>
<path d="M200 53.0552V135.945C200 137.632 198.715 139 197.133 139H153.867C152.284 139 151 137.632 151 135.945V53.0552C151 51.3677 152.284 50 153.867 50H197.133C198.718 50 200 51.3677 200 53.0552Z" fill="#E1EAFF"/>
<path d="M182.742 45H168.258C168.116 45 168 44.7753 168 44.5C168 44.2247 168.116 44 168.258 44H182.742C182.884 44 183 44.2247 183 44.5C183 44.7809 182.884 45 182.742 45Z" fill="#2E4882"/>
<path d="M188.154 111H162.846C161.282 111 160 109.677 160 108.063V106.937C160 105.323 161.282 104 162.846 104H188.154C189.718 104 191 105.323 191 106.937V108.063C191 109.677 189.721 111 188.154 111Z" fill="#608BE2"/>
<path d="M197.48 139H153.52C151.579 139 150 137.359 150 135.34V52.6598C150 50.6434 151.579 49 153.52 49H197.48C199.421 49 201 50.6405 201 52.6598V135.34C201 137.359 199.421 139 197.48 139ZM153.52 50.2247C152.25 50.2247 151.216 51.3184 151.216 52.6627V135.343C151.216 136.687 152.25 137.781 153.52 137.781H197.48C198.75 137.781 199.784 136.687 199.784 135.343V52.6627C199.784 51.3184 198.75 50.2247 197.48 50.2247H153.52Z" fill="white"/>
<path d="M155.533 93H196.467C197.309 93 198 92.3214 198 91.4881V65.5119C198 64.6814 197.312 64 196.467 64H155.533C154.691 64 154 64.6785 154 65.5119V91.4881C154 92.3186 154.688 93 155.533 93Z" fill="url(#paint2_linear_538_18325)"/>
<path d="M164.596 84H157.404C157.181 84 157 83.8346 157 83.631V82.369C157 82.1654 157.181 82 157.404 82H164.596C164.819 82 165 82.1654 165 82.369V83.631C165 83.8346 164.819 84 164.596 84Z" fill="white"/>
<path d="M174.596 84H167.404C167.181 84 167 83.8346 167 83.631V82.369C167 82.1654 167.181 82 167.404 82H174.596C174.819 82 175 82.1654 175 82.369V83.631C175 83.8346 174.819 84 174.596 84Z" fill="white"/>
<path d="M183.596 84H176.404C176.181 84 176 83.8346 176 83.631V82.369C176 82.1654 176.181 82 176.404 82H183.596C183.819 82 184 82.1654 184 82.369V83.631C184 83.8346 183.819 84 183.596 84Z" fill="white"/>
<path d="M193.596 84H186.404C186.181 84 186 83.8346 186 83.631V82.369C186 82.1654 186.181 82 186.404 82H193.596C193.819 82 194 82.1654 194 82.369V83.631C194 83.8346 193.819 84 193.596 84Z" fill="white"/>
<path d="M194.481 88H184.519C184.235 88 184 87.7967 184 87.5502V86.4498C184 86.2033 184.235 86 184.519 86H194.481C194.765 86 195 86.2033 195 86.4498V87.5502C195 87.7992 194.768 88 194.481 88Z" fill="white"/>
<path d="M159 72.8952V70.1048C159 69.4943 159.521 69 160.158 69H165.842C166.482 69 167 69.497 167 70.1048V72.8952C167 73.5057 166.479 74 165.842 74H160.158C159.521 74.0027 159 73.5057 159 72.8952ZM160.158 69.2971C159.691 69.2971 159.309 69.6591 159.309 70.1075V72.8979C159.309 73.3436 159.688 73.7083 160.158 73.7083H165.842C166.309 73.7083 166.691 73.3463 166.691 72.8979V70.1075C166.691 69.6618 166.312 69.2971 165.842 69.2971H160.158Z" fill="white"/>
<path d="M194 70.8609C194 70.8249 194.011 70.7917 194.033 70.764C195.03 69.5158 195.03 67.4815 194.033 66.2332C193.991 66.1806 193.991 66.092 194.033 66.0394C194.075 65.9869 194.146 65.9869 194.188 66.0394C195.271 67.3957 195.271 69.6043 194.188 70.9606C194.146 71.0131 194.075 71.0131 194.033 70.9606C194.011 70.9329 194 70.8969 194 70.8609Z" fill="white"/>
<path d="M193 67.1195C193 67.088 193.015 67.0588 193.045 67.0346C193.102 66.9885 193.197 66.9885 193.254 67.0346C194.249 67.8425 194.249 69.1575 193.254 69.9654C193.197 70.0115 193.102 70.0115 193.045 69.9654C192.988 69.9193 192.988 69.8417 193.045 69.7956C193.923 69.0823 193.923 67.9201 193.045 67.2044C193.015 67.1801 193 67.151 193 67.1195Z" fill="white"/>
<path d="M192 69.8582C192 69.8215 192.022 69.7876 192.066 69.7593C192.726 69.3387 192.726 68.6556 192.066 68.2378C191.982 68.1842 191.982 68.0939 192.066 68.0402C192.15 67.9866 192.292 67.9866 192.376 68.0402C193.208 68.5709 193.208 69.4319 192.376 69.9598C192.292 70.0134 192.15 70.0134 192.066 69.9598C192.022 69.9287 192 69.8948 192 69.8582Z" fill="white"/>
<path d="M203.997 126H203.539V41.8832C203.539 40.549 202.459 39.461 201.13 39.461H149.868C148.541 39.461 147.458 40.5461 147.458 41.8832V113.929H147V41.8832C147 40.2941 148.287 39 149.868 39H201.132C202.713 39 204 40.2941 204 41.8832V126H203.997Z" fill="#2E4882"/>
<path d="M156 149H149.945C148.322 149 147 147.707 147 146.118V134H147.471V146.121C147.471 147.455 148.579 148.542 149.945 148.542H156V149Z" fill="#2E4882"/>
<path d="M179.456 149H174V149.458H179.456V149Z" fill="#2E4882"/>
<path d="M207.286 148.421C207.286 149.21 201.507 149.851 194.384 149.851C187.26 149.851 181.481 149.21 181.481 148.421C181.481 148.406 181.484 148.392 181.487 148.378V144.514H207.278V148.369C207.283 148.386 207.286 148.403 207.286 148.421Z" fill="#F49B51"/>
<path d="M194.38 145.975C201.506 145.975 207.282 145.335 207.282 144.545C207.282 143.755 201.506 143.114 194.38 143.114C187.254 143.114 181.478 143.755 181.478 144.545C181.478 145.335 187.254 145.975 194.38 145.975Z" fill="#FCC659"/>
<path d="M210.338 143.757C210.338 144.547 204.56 145.188 197.436 145.188C190.312 145.188 184.534 144.547 184.534 143.757C184.534 143.743 184.537 143.729 184.539 143.715V139.851H210.33V143.706C210.335 143.723 210.338 143.738 210.338 143.757Z" fill="#F49B51"/>
<path d="M197.432 141.316C204.558 141.316 210.334 140.676 210.334 139.886C210.334 139.096 204.558 138.455 197.432 138.455C190.306 138.455 184.53 139.096 184.53 139.886C184.53 140.676 190.306 141.316 197.432 141.316Z" fill="#FCC659"/>
<path d="M207.286 139.095C207.286 139.885 201.507 140.526 194.384 140.526C187.26 140.526 181.481 139.885 181.481 139.095C181.481 139.081 181.484 139.067 181.487 139.053V135.188H207.278V139.044C207.283 139.064 207.286 139.078 207.286 139.095Z" fill="#F49B51"/>
<path d="M194.38 136.656C201.506 136.656 207.282 136.016 207.282 135.225C207.282 134.435 201.506 133.795 194.38 133.795C187.254 133.795 181.478 134.435 181.478 135.225C181.478 136.016 187.254 136.656 194.38 136.656Z" fill="#FCC659"/>
<path d="M194.379 150.001C189.132 150.001 181.323 149.579 181.323 148.419H181.627C181.627 148.863 186.006 149.696 194.379 149.696C194.683 149.696 194.984 149.696 195.283 149.693L195.286 149.998C194.987 150.001 194.683 150.001 194.379 150.001Z" fill="#2E4882"/>
<path d="M199.501 149.884L199.486 149.579C200.792 149.516 201.992 149.431 203.047 149.322L203.078 149.627C202.014 149.735 200.812 149.821 199.501 149.884Z" fill="#2E4882"/>
<path d="M189.287 144.996C184.438 144.554 184.438 143.942 184.438 143.739H184.743C184.743 143.887 185.565 144.349 189.313 144.691L189.287 144.996Z" fill="#2E4882"/>
<path d="M197.486 145.318C196.036 145.318 194.611 145.293 193.252 145.239L193.263 144.934C195.689 145.028 198.374 145.039 200.873 144.962L200.882 145.267C199.778 145.301 198.635 145.318 197.486 145.318Z" fill="#2E4882"/>
<path d="M204.097 145.121L204.077 144.816C205.454 144.725 206.654 144.608 207.643 144.469L207.686 144.771C206.688 144.913 205.482 145.03 204.097 145.121Z" fill="#2E4882"/>
<path d="M185.712 136.442C181.412 136.003 181.412 135.447 181.412 135.239H181.716C181.716 135.245 181.827 135.738 185.743 136.14L185.712 136.442Z" fill="#2E4882"/>
<path d="M194.456 136.816C192.971 136.816 191.521 136.788 190.145 136.734L190.156 136.429C191.529 136.483 192.977 136.511 194.456 136.511C197.103 136.511 199.646 136.423 201.81 136.255L201.833 136.56C199.663 136.728 197.112 136.816 194.456 136.816Z" fill="#2E4882"/>
<path d="M211.852 134.432C211.852 135.222 206.074 135.863 198.95 135.863C191.826 135.863 186.048 135.222 186.048 134.432C186.048 134.418 186.051 134.404 186.054 134.39V130.525H211.844V134.381C211.85 134.398 211.852 134.415 211.852 134.432Z" fill="#F49B51"/>
<path d="M198.95 131.987C206.076 131.987 211.852 131.347 211.852 130.557C211.852 129.766 206.076 129.126 198.95 129.126C191.824 129.126 186.048 129.766 186.048 130.557C186.048 131.347 191.824 131.987 198.95 131.987Z" fill="#FCC659"/>
<path d="M209.461 130.557C209.461 131.087 204.755 131.517 198.953 131.517C193.149 131.517 188.445 131.087 188.445 130.557C188.445 130.027 193.152 129.597 198.953 129.597C204.755 129.597 209.461 130.027 209.461 130.557Z" fill="#F49B51"/>
<path d="M165.473 123.675C158.278 123.478 152.289 129.163 152.09 136.376C151.894 143.585 157.567 149.59 164.765 149.786C171.96 149.983 177.951 144.298 178.148 137.085C178.344 129.876 172.67 123.871 165.473 123.675ZM175.608 137.017C175.531 139.824 174.368 142.431 172.332 144.363C170.299 146.295 167.637 147.319 164.836 147.242C159.054 147.082 154.479 142.243 154.635 136.447C154.712 133.64 155.872 131.033 157.908 129.101C159.871 127.237 162.419 126.22 165.115 126.22C165.214 126.22 165.308 126.222 165.407 126.225C171.095 126.379 175.611 131.067 175.611 136.729C175.611 136.826 175.611 136.92 175.608 137.017Z" fill="#FCC659"/>
<path d="M175.617 136.728C175.617 136.825 175.617 136.919 175.614 137.016C175.537 139.823 174.374 142.43 172.338 144.363C170.305 146.295 167.643 147.318 164.842 147.241C159.06 147.081 154.485 142.242 154.641 136.446C154.718 133.639 155.878 131.032 157.914 129.1C159.877 127.236 162.425 126.219 165.121 126.219C165.22 126.219 165.314 126.222 165.413 126.224C171.098 126.375 175.617 131.063 175.617 136.728Z" fill="#F49B51"/>
<path d="M164.464 144.771V142.794C163.329 142.774 162.158 142.42 161.475 141.933L161.944 140.622C162.647 141.092 163.665 141.463 164.76 141.463C166.147 141.463 167.086 140.659 167.086 139.545C167.086 138.468 166.324 137.801 164.876 137.214C162.883 136.43 161.651 135.53 161.651 133.826C161.651 132.201 162.803 130.967 164.603 130.674V128.696H165.815V130.597C166.986 130.637 167.788 130.95 168.354 131.281L167.865 132.575C167.456 132.341 166.654 131.908 165.402 131.908C163.898 131.908 163.332 132.808 163.332 133.592C163.332 134.609 164.054 135.119 165.755 135.823C167.768 136.647 168.784 137.664 168.784 139.408C168.784 140.956 167.709 142.403 165.695 142.737V144.774H164.464V144.771Z" fill="#FCC659"/>
<path d="M175.183 134.099C175.16 134.014 175.137 133.928 175.112 133.843C174.278 130.962 172.254 128.588 169.543 127.317L169.663 127.058C172.444 128.363 174.529 130.799 175.379 133.743C175.41 133.848 175.433 133.934 175.456 134.022L175.183 134.099Z" fill="#2E4882"/>
<path d="M169.547 127.315C167.368 126.292 164.891 126.064 162.565 126.671L162.494 126.394C164.883 125.77 167.431 126.007 169.669 127.056L169.547 127.315Z" fill="#2E4882"/>
<path d="M174.339 142.101L174.094 141.955C174.791 140.767 175.24 139.482 175.428 138.134L175.71 138.174C175.516 139.559 175.055 140.881 174.339 142.101Z" fill="#2E4882"/>
<path d="M173.607 127.013C172.6 126.13 171.468 125.412 170.246 124.879L170.368 124.6C171.622 125.144 172.779 125.879 173.809 126.785L173.607 127.013Z" fill="#2E4882"/>
<path d="M172.47 147.701L172.3 147.447C175.749 145.119 177.876 141.247 177.99 137.086C178.061 134.501 177.367 131.985 175.985 129.814L176.241 129.648C177.655 131.874 178.363 134.447 178.292 137.095C178.178 141.352 176.002 145.319 172.47 147.701Z" fill="#2E4882"/>
<path d="M197.527 71.3373H197.223V65.5211C197.223 64.7631 196.606 64.1448 195.849 64.1448H169.885V63.8398H195.849C196.773 63.8398 197.527 64.595 197.527 65.5211V71.3373Z" fill="#2E4882"/>
<path d="M197.519 74.3965H197.216V77.762H197.519V74.3965Z" fill="#2E4882"/>
<path d="M166.522 63.8359H161.23V64.1409H166.522V63.8359Z" fill="#2E4882"/>
<path d="M71.325 32.43C73.4423 30.715 75.3884 28.6496 76.3072 26.0885C77.2231 23.5274 76.9093 20.3908 74.9774 18.4707C73.4023 16.9067 71.0111 16.3768 68.8025 16.6246C66.5939 16.8725 64.5251 17.8098 62.5562 18.8325C58.7867 20.7925 36.8548 34.3673 44.4793 38.8399C51.8185 43.1445 65.6551 37.0224 71.325 32.43Z" fill="#F3FAFF"/>
<path d="M20.8841 68.6414L20.6216 68.4847C23.7148 63.334 28.697 59.8385 36.3044 57.4854L36.3957 57.7759C28.8653 60.1063 23.9345 63.5591 20.8841 68.6414Z" fill="#2E4882"/>
<path d="M16.9239 70.643L16.6357 70.5376C20.6278 59.581 30.8775 56.0655 40.3768 54.0713L40.4396 54.3704C31.0259 56.3475 20.8675 59.826 16.9239 70.643Z" fill="#2E4882"/>
<path d="M155.208 6.82572C148.188 3.24472 142.247 2.27897 136.506 3.78885L136.429 3.49257C142.247 1.96274 148.256 2.9342 155.347 6.55223L155.208 6.82572Z" fill="#2E4882"/>
<path d="M160.479 7.20973C152.358 2.05902 142.654 -2.53332 132.267 2.4607L132.136 2.18437C142.659 -2.87518 152.453 1.75419 160.648 6.95048L160.479 7.20973Z" fill="#2E4882"/>
<path d="M122.216 21.1124C114.997 20.9158 108.987 26.5992 108.788 33.8097C108.591 41.0172 114.283 47.0198 121.506 47.2163C128.725 47.4129 134.737 41.7295 134.934 34.519C135.131 27.3115 129.438 21.3089 122.216 21.1124ZM132.386 34.4507C132.309 37.2568 131.142 39.8635 129.099 41.795C127.059 43.7265 124.388 44.7492 121.577 44.6723C115.776 44.5128 111.185 39.6754 111.342 33.8809C111.419 31.0748 112.583 28.4681 114.626 26.5366C116.595 24.6734 119.152 23.6564 121.857 23.6564C121.957 23.6564 122.051 23.6592 122.151 23.6621C127.858 23.8159 132.389 28.5023 132.389 34.1629C132.386 34.2598 132.386 34.3538 132.386 34.4507Z" fill="#FCC659"/>
<path d="M132.389 34.1647C132.389 34.2616 132.389 34.3556 132.386 34.4525C132.309 37.2586 131.142 39.8653 129.099 41.7968C127.059 43.7283 124.388 44.751 121.577 44.6741C115.776 44.5146 111.185 39.6773 111.342 33.8827C111.419 31.0766 112.583 28.4699 114.626 26.5384C116.595 24.6752 119.152 23.6582 121.857 23.6582C121.957 23.6582 122.051 23.6611 122.151 23.6639C127.855 23.8177 132.389 28.5041 132.389 34.1647Z" fill="#F49B51"/>
<path d="M121.192 42.2031V40.226C120.053 40.2061 118.878 39.8528 118.193 39.3657L118.664 38.0552C119.369 38.5253 120.39 38.8956 121.489 38.8956C122.881 38.8956 123.823 38.0923 123.823 36.9784C123.823 35.9015 123.058 35.2349 121.606 34.648C119.605 33.8646 118.37 32.9643 118.37 31.2607C118.37 29.6369 119.525 28.4033 121.332 28.1099V26.1328H122.547V28.033C123.723 28.0729 124.528 28.3862 125.095 28.7167L124.605 30.0101C124.194 29.7765 123.389 29.3435 122.134 29.3435C120.624 29.3435 120.056 30.2437 120.056 31.0271C120.056 32.0442 120.781 32.5541 122.487 33.2578C124.508 34.0811 125.526 35.0981 125.526 36.8416C125.526 38.3885 124.448 39.8358 122.427 40.1691V42.206H121.192V42.2031Z" fill="#FCC659"/>
<path d="M131.97 31.5562C131.947 31.465 131.922 31.3767 131.896 31.2884C131.066 28.4196 129.031 26.0494 126.314 24.7788L126.434 24.5195C129.225 25.8243 131.317 28.2601 132.17 31.2029C132.198 31.2998 132.224 31.3909 132.247 31.4821L131.97 31.5562Z" fill="#2E4882"/>
<path d="M126.313 24.7794C124.127 23.7567 121.638 23.5288 119.307 24.1356L119.236 23.8592C121.633 23.2353 124.19 23.4718 126.435 24.5202L126.313 24.7794Z" fill="#2E4882"/>
<path d="M111.589 36.8451C110.872 34.0903 111.272 31.2215 112.713 28.7715L112.958 28.9168C111.554 31.3013 111.163 34.0931 111.862 36.7739L111.589 36.8451Z" fill="#2E4882"/>
<path d="M130.36 24.6942C129.35 23.8111 128.214 23.0932 126.987 22.5604L127.11 22.2812C128.368 22.8254 129.53 23.5604 130.563 24.4663L130.36 24.6942Z" fill="#2E4882"/>
<path d="M129.238 45.3717L129.067 45.1181C132.528 42.7906 134.663 38.919 134.777 34.7597C134.848 32.1758 134.152 29.6603 132.765 27.4895L133.022 27.3242C134.44 29.5492 135.151 32.1217 135.079 34.7682C134.968 39.0244 132.782 42.9872 129.238 45.3717Z" fill="#2E4882"/>
<path d="M120.047 62.287L121.206 57.33L125.937 55.3643L126.779 62.287C126.779 62.287 126.077 66.7853 121.725 68.3949C117.377 70.0073 120.047 62.287 120.047 62.287Z" fill="#FCB47E"/>
<path d="M118.185 49.2505C118.185 49.2505 116.502 58.5691 119.238 58.6403C121.975 58.7115 124.22 57.6603 124.782 57.0279C125.345 56.3983 125.764 53.3158 125.764 53.3158C125.764 53.3158 126.115 49.3218 124.431 48.5526C122.748 47.7805 119.098 46.4501 118.185 49.2505Z" fill="#FCB47E"/>
<path d="M127.184 55.1837C126.648 56.1751 126.114 57.1465 126.114 57.1465C125.315 57.0212 124.431 56.0241 124.274 55.1637C124.274 55.1637 121.757 54.9301 121.669 51.8192C121.669 51.8192 117.3 51.8477 117.197 48.0616C117.092 44.2783 121.46 45.2526 122.907 46.4092C124.354 47.563 125.23 48.1527 127.484 48.8792C129.855 49.6427 127.875 53.9131 127.184 55.1837Z" fill="#374263"/>
<path d="M125.159 145.187L124.619 139.68H118.79L120.057 145.027C120.057 145.027 120.733 146.819 122.693 146.753C124.576 146.691 125.159 145.187 125.159 145.187Z" fill="#FCB47E"/>
<path d="M153.835 127.964L149.358 124.702L145.48 129.049L151.218 131.952C151.218 131.952 151.929 132.092 153.367 130.841C154.788 129.608 153.835 127.964 153.835 127.964Z" fill="#FCB47E"/>
<path d="M130.051 141.396C126.676 142.669 122.364 142.321 117.716 141.396C117.582 141.071 117.448 140.749 117.319 140.421C108.462 118.072 114.734 85.6123 114.734 85.6123H128.662L128.348 96.3411C127.737 99.1757 127.318 102.047 127.047 104.893C125.278 123.61 130.051 141.396 130.051 141.396Z" fill="#3F5A9F"/>
<path d="M130.052 141.392C129.835 140.956 121.902 124.863 124.265 106.707L126.779 108.73C125.925 125.726 129.937 140.964 130.052 141.392Z" fill="#385087"/>
<path d="M152.56 122.138C151.282 125.722 149.921 128.503 148.44 130.129C147.752 130.884 147.039 131.391 146.294 131.611C144.16 130.517 142.205 129.332 140.416 128.075C140.171 127.907 139.934 127.736 139.694 127.563C139.377 127.332 139.063 127.095 138.761 126.859C138.621 126.751 138.481 126.645 138.347 126.534C138.073 126.321 137.802 126.101 137.54 125.885C137.303 125.688 137.072 125.491 136.846 125.295C135.645 124.255 134.538 123.187 133.513 122.09C133.416 121.987 133.316 121.879 133.222 121.777C133.151 121.7 133.082 121.62 133.011 121.546L133.008 121.543C118.961 105.954 121.54 85.6162 121.54 85.6162H133.759C134.809 105.114 152.56 122.138 152.56 122.138Z" fill="#3F5A9F"/>
<path d="M136.491 43.4005C135.449 42.6398 134.722 42.221 134.545 42.0957C134.322 41.9361 134.271 41.543 134.011 41.1442C133.415 40.2297 132.174 38.6144 130.892 38.1671C130.727 38.1073 130.601 38.2839 130.778 38.472C131.092 38.8167 131.686 39.3124 131.594 39.395C131.398 39.5602 130.008 37.8908 129.617 38.2782C129.323 38.5717 131.335 40.0588 131.255 40.1528C131.098 40.3408 129.583 38.6343 129.215 39.0218C128.864 39.3864 130.681 40.3436 130.604 40.5032C130.521 40.6684 129.263 39.6286 129.015 39.865C128.638 40.224 130.91 41.6285 130.847 41.8364C130.767 42.1726 129.591 41.4689 129.417 41.8678C129.246 42.241 130.89 42.9446 131.201 43.1013C131.92 43.4603 132.442 43.3036 133.015 44.1981C133.332 44.6881 133.643 45.1781 133.951 45.671L136.491 43.4005Z" fill="#FCB47E"/>
<path d="M107.723 44.5106C108.679 43.6446 109.355 43.1489 109.518 43.0065C109.721 42.8241 109.732 42.4281 109.946 42.0037C110.443 41.0322 111.501 39.2944 112.731 38.7104C112.888 38.6335 113.033 38.793 112.877 39.001C112.603 39.377 112.066 39.9325 112.166 40.0066C112.38 40.1491 113.581 38.3429 114.012 38.6848C114.338 38.944 112.497 40.6391 112.585 40.7217C112.762 40.8926 114.084 39.0352 114.492 39.3799C114.88 39.7075 113.173 40.8499 113.27 41.0009C113.37 41.1575 114.512 39.9867 114.783 40.1975C115.194 40.5137 113.088 42.1546 113.17 42.3541C113.287 42.6817 114.377 41.8555 114.594 42.2316C114.806 42.5848 113.245 43.4594 112.954 43.6474C112.277 44.0805 111.741 43.9836 111.267 44.9323C111.005 45.4536 110.748 45.9721 110.494 46.4963L107.723 44.5106Z" fill="#FCB47E"/>
<path d="M133.886 87.2132C132.796 87.9055 130.887 89.0279 128.535 89.9994C126.427 90.8654 123.961 91.6175 121.407 91.8397C118.928 92.0563 116.36 91.7714 113.951 90.6147C114.105 89.4752 114.251 88.5066 114.373 87.7346C116.582 88.9026 118.979 89.3926 121.356 89.461C123.864 89.535 126.352 89.1333 128.578 88.555C130.613 88.028 132.43 87.35 133.84 86.7432C133.851 86.8999 133.869 87.0565 133.886 87.2132Z" fill="#385087"/>
<path d="M111.659 85.7308V70.3841C111.659 70.3841 97.8451 68.0423 100.559 54.6898C102.282 46.2059 108.349 43.1748 108.349 43.1748L111.713 45.8726C111.713 45.8726 104.559 56.7865 113.976 60.5784C113.976 60.5784 119.272 60.4131 120.65 61.9002C120.65 61.9002 123.683 64.3246 126.885 60.302C126.885 60.302 130.141 59.0343 132.915 59.7807C135.197 60.3932 138.139 54.7411 132.678 45.1576L136.099 42.0723C136.099 42.0723 156.125 61.2934 136.484 70.8228L135.388 86.1553C135.388 86.1581 120.185 94.7645 111.659 85.7308Z" fill="#6D92F0"/>
<path d="M123.678 55.7244C124.28 55.7244 124.768 55.2371 124.768 54.6361C124.768 54.0351 124.28 53.5479 123.678 53.5479C123.076 53.5479 122.588 54.0351 122.588 54.6361C122.588 55.2371 123.076 55.7244 123.678 55.7244Z" fill="#FCB47E"/>
<path d="M126.652 112.526C124.084 107.551 122.406 102.016 121.659 96.0792L121.901 96.0479C122.646 101.956 124.315 107.463 126.869 112.412L126.652 112.526Z" fill="white"/>
<path d="M133.219 94.967C129.352 94.967 128.117 91.6139 128.103 91.5797L128.331 91.4971C128.342 91.5313 129.552 94.8217 133.399 94.722L133.404 94.9641C133.344 94.967 133.282 94.967 133.219 94.967Z" fill="white"/>
<path d="M122.585 63.9018C122.514 63.9018 122.44 63.899 122.368 63.8904C120.63 63.7309 119.752 61.7054 119.717 61.617L119.94 61.523C119.948 61.543 120.799 63.503 122.391 63.6483C123.729 63.7708 125.207 62.6227 126.788 60.2354L126.991 60.3692C125.439 62.7167 123.958 63.9018 122.585 63.9018Z" fill="#2E4882"/>
<path d="M111.659 70.3872C111.659 70.3872 97.8421 68.0454 100.556 54.69C100.701 53.9607 100.884 53.2656 101.092 52.6161C101.126 52.579 101.164 52.542 101.195 52.5078C100.967 55.5219 100.858 58.1628 102.197 61.0173C104.996 66.9885 111.85 70.3701 111.659 70.3872Z" fill="#608BE2"/>
<path d="M136.485 70.8285L135.389 86.161C135.389 86.161 132.233 87.95 127.987 89.0411C128.721 88.4856 131.811 83.7679 132.327 81.3834C133.255 77.1073 133.372 74.6459 133.492 70.0906C138.063 68.9055 143.271 64.8858 145.063 58.1768C145.471 62.7549 143.525 67.4127 136.485 70.8285Z" fill="#608BE2"/>
<path d="M121.872 88.2493C121.829 88.2493 121.806 88.2493 121.801 88.2493L121.806 88.0071C121.872 88.0071 128.292 88.0983 133.851 84.7139L133.977 84.9218C128.672 88.1496 122.591 88.2493 121.872 88.2493Z" fill="#2E4882"/>
<path d="M148.435 130.133C147.747 130.888 147.034 131.395 146.289 131.615C144.155 130.521 142.2 129.336 140.411 128.079C140.166 127.911 139.929 127.74 139.689 127.567C139.372 127.336 139.059 127.099 138.756 126.863C138.616 126.755 138.476 126.649 138.342 126.538C138.068 126.324 137.797 126.105 137.535 125.889C137.298 125.692 137.067 125.495 136.841 125.299C135.64 124.259 134.533 123.191 133.509 122.094C133.412 121.991 133.312 121.883 133.218 121.781C133.146 121.704 133.078 121.624 133.006 121.55C141.364 128.441 146.709 129.851 148.435 130.133Z" fill="#385087"/>
<path d="M150.751 121.656C144.87 117.844 141.132 110.953 141.095 110.885L141.298 110.776C141.335 110.845 145.044 117.682 150.877 121.462L150.751 121.656Z" fill="white"/>
<path d="M125.871 149.568H112.645C112.185 149.568 111.817 149.178 111.851 148.719C111.851 148.713 111.851 148.708 111.851 148.702C111.86 148.602 111.874 148.497 111.888 148.394C111.934 148.044 112.028 147.691 112.194 147.471C112.822 146.639 114.037 146.261 116.209 145.403C117.57 144.862 118.725 144.144 119.233 143.808C119.399 143.697 119.613 143.725 119.756 143.862C122.372 146.414 123.979 145.87 124.458 144.819C124.826 144.016 125.345 144.184 125.488 144.42C125.928 145.155 126.17 147.312 126.267 148.394C126.279 148.511 126.29 148.617 126.296 148.702C126.31 148.904 126.321 149.027 126.321 149.027C126.373 149.309 126.156 149.568 125.871 149.568Z" fill="#374263"/>
<path d="M116.972 146.795C116.033 146.339 116.173 145.371 116.173 145.362L116.398 145.396C116.393 145.431 116.287 146.208 117.069 146.587L116.972 146.795Z" fill="white"/>
<path d="M115.802 147.185C114.937 146.698 115.031 145.857 115.034 145.823L115.262 145.852C115.26 145.88 115.188 146.578 115.916 146.988L115.802 147.185Z" fill="white"/>
<path d="M123.268 146.608C122.384 146.608 121.582 146.206 121.57 146.198L121.676 145.992C121.696 146.004 123.702 147.01 124.735 145.728L124.915 145.87C124.458 146.437 123.845 146.608 123.268 146.608Z" fill="white"/>
<path d="M124.692 148.544H116.985V148.772H124.692V148.544Z" fill="white"/>
<path d="M116.006 148.544H114.183V148.772H116.006V148.544Z" fill="white"/>
<path d="M157.817 128.753L151.356 140.274C151.131 140.675 150.611 140.806 150.226 140.55C150.223 140.547 150.218 140.544 150.215 140.542C150.129 140.485 150.046 140.422 149.961 140.359C149.678 140.146 149.416 139.892 149.307 139.641C148.888 138.69 149.151 137.445 149.462 135.134C149.656 133.684 149.59 132.331 149.547 131.719C149.533 131.522 149.661 131.348 149.85 131.291C153.359 130.26 153.668 128.596 152.983 127.662C152.461 126.95 152.86 126.577 153.137 126.568C153.996 126.542 155.996 127.383 156.989 127.83C157.1 127.876 157.197 127.918 157.277 127.955C157.46 128.041 157.571 128.092 157.571 128.092C157.837 128.186 157.954 128.502 157.817 128.753Z" fill="#374263"/>
<path d="M149.808 135.283C149.589 135.283 149.429 135.252 149.412 135.249L149.457 135.024C149.466 135.027 150.41 135.212 150.878 134.603L151.061 134.742C150.716 135.195 150.176 135.283 149.808 135.283Z" fill="white"/>
<path d="M149.706 136.533C149.486 136.533 149.327 136.502 149.31 136.499L149.355 136.274C149.364 136.277 150.308 136.462 150.776 135.853L150.959 135.992C150.614 136.445 150.074 136.533 149.706 136.533Z" fill="white"/>
<path d="M152.979 130.87L152.831 130.696C152.848 130.682 154.543 129.209 153.744 127.77L153.944 127.659C154.834 129.263 152.999 130.856 152.979 130.87Z" fill="white"/>
<path d="M156.14 129.575L152.446 136.329L152.647 136.438L156.34 129.685L156.14 129.575Z" fill="white"/>
<path d="M151.999 137.159L151.125 138.756L151.326 138.865L152.199 137.268L151.999 137.159Z" fill="white"/>
<path d="M113.928 60.7327C113.808 60.6985 110.986 59.8723 109.52 57.1801C108.509 55.3227 108.407 53.0465 109.217 50.417L109.508 50.5082C108.724 53.055 108.818 55.2486 109.785 57.032C111.186 59.6102 113.982 60.4307 114.008 60.4392L113.928 60.7327Z" fill="#2E4882"/>
<path d="M121.096 51.9983C120.032 51.9983 118.357 51.5453 117.481 50.4542C116.939 49.7791 116.497 48.5854 117.473 46.7422L117.675 46.8476C116.939 48.2407 116.933 49.4059 117.661 50.3118C118.677 51.5767 120.82 51.9385 121.647 51.7134L121.707 51.9356C121.547 51.9755 121.336 51.9983 121.096 51.9983Z" fill="#374263"/>
<path d="M120.105 52.2209C119.369 52.2209 118.487 52.0186 117.528 51.3862L117.654 51.1953C120.162 52.8476 122.085 51.4232 122.102 51.409L122.242 51.5913C122.234 51.5998 121.395 52.2209 120.105 52.2209Z" fill="#374263"/>
<path d="M10.0547 90.0527C10.0575 90.1382 10.0575 90.2237 10.0604 90.3091C10.3029 100.821 11.8096 108.946 13.9697 115.225L19.5625 118.305L15.0711 117.849L14.9427 117.838C17.7277 124.717 21.306 129.071 24.6161 131.817C26.6734 133.529 28.6309 134.62 30.2232 135.309C30.3287 135.355 30.4315 135.401 30.5342 135.441C30.791 135.549 31.0393 135.643 31.2732 135.728H34.2609C34.2951 135.589 34.3265 135.449 34.355 135.309C34.375 135.221 34.395 135.133 34.4121 135.045C34.4406 134.928 34.4635 134.811 34.4863 134.697C37.297 120.966 32.2919 110.391 26.0913 102.989C26.0742 102.964 26.0542 102.941 26.0314 102.915C23.8741 100.348 21.5714 98.1634 19.4084 96.3629L18.267 99.7815L17.8305 95.1009C14.0724 92.1894 10.9878 90.537 10.2316 90.1496C10.1175 90.0812 10.0547 90.0527 10.0547 90.0527Z" fill="#00DBAA"/>
<path d="M9.94482 90.1072L10.0561 90.3066L16.8446 102.782L16.9673 103.001L18.8192 106.403L18.882 106.517L24.783 117.356L24.7915 117.371L34.4107 135.042L34.5562 135.304L34.7845 135.726H35.047L34.8187 135.304L34.4849 134.692L24.9913 117.257L24.8144 116.932L10.2273 90.1414L10.1474 89.9961L9.94482 90.1072Z" fill="white"/>
<path d="M11.0468 101.641L10.9424 101.811L18.8036 106.624L18.9081 106.454L11.0468 101.641Z" fill="white"/>
<path d="M10.8608 99.1132L10.7563 99.2832L16.9174 103.056L17.0218 102.886L10.8608 99.1132Z" fill="white"/>
<path d="M25.7192 118.265L26.8549 103.873L26.6323 103.855L25.4995 118.251L25.7192 118.265Z" fill="white"/>
<path opacity="0.6" d="M35.6769 138.591C35.6769 138.591 28.7885 142.292 18.4246 136.837L21.6034 135.122L16.2959 135.612C12.2297 133.076 7.70693 129.128 2.90735 123.077L4.12009 122.424L2.51072 122.572C1.70033 121.538 0.884229 120.441 0.0595703 119.282C0.0595703 119.282 2.99581 118.866 7.24181 119.134L9.5617 121.948L8.80552 119.262C17.5001 120.12 30.2923 123.977 35.6769 138.591Z" fill="#00DBAA"/>
<path d="M0.103425 119.192L0 119.392L36.1183 138.012L36.2217 137.812L0.103425 119.192Z" fill="white"/>
<path d="M9.46029 124.107L4.47021 124.886L4.50282 125.094L9.49289 124.315L9.46029 124.107Z" fill="white"/>
<path d="M11.9329 125.338L6.13525 126.685L6.1831 126.89L11.9807 125.543L11.9329 125.338Z" fill="white"/>
<path d="M95.5127 144.958H32.462C30.9182 144.958 29.6655 143.707 29.6655 142.166V99.3134C29.6655 97.7721 30.9182 96.5215 32.462 96.5215H95.5127C97.0564 96.5215 98.3091 97.7721 98.3091 99.3134V142.166C98.3091 143.71 97.0564 144.958 95.5127 144.958Z" fill="url(#paint3_linear_538_18325)"/>
<path d="M96.2426 101.545V139.931C96.2426 141.555 94.9243 142.874 93.295 142.874H88.8464V101.09H33.4658C32.7781 101.09 32.2217 100.534 32.2217 99.8476C32.2217 99.161 32.7781 98.6055 33.4658 98.6055H93.295C94.9215 98.6026 96.2426 99.9188 96.2426 101.545Z" fill="#2E4882"/>
<path d="M79.4154 97.1527C79.4754 97.2268 79.5381 97.3008 79.5952 97.3778C81.313 99.597 82.0635 102.355 81.7068 105.141C81.3501 107.924 79.9319 110.403 77.7062 112.121C73.1149 115.664 66.492 114.818 62.9422 110.232C61.2244 108.012 60.4711 105.258 60.8278 102.471C61.1731 99.785 62.5085 97.3806 64.6001 95.6741C64.6771 95.6115 64.7513 95.5545 64.8312 95.4918C69.3455 92.0048 75.8257 92.7683 79.4154 97.1527Z" fill="#F49B51"/>
<path d="M70.603 111.978V110C69.4645 109.981 68.2888 109.627 67.604 109.14L68.0748 107.83C68.7796 108.3 69.8012 108.67 70.8998 108.67C72.2923 108.67 73.2339 107.867 73.2339 106.753C73.2339 105.676 72.4692 105.009 71.0168 104.422C69.0165 103.639 67.7809 102.739 67.7809 101.035C67.7809 99.4113 68.9366 98.1778 70.7428 97.8843V95.9072H71.9584V97.8074C73.1341 97.8473 73.9388 98.1607 74.5066 98.494L74.0158 99.7874C73.6049 99.5537 72.8002 99.1207 71.5447 99.1207C70.0352 99.1207 69.4673 100.021 69.4673 100.804C69.4673 101.821 70.1921 102.331 71.8985 103.035C73.9188 103.858 74.9375 104.875 74.9375 106.619C74.9375 108.166 73.8589 109.613 71.8386 109.946V111.983H70.603V111.978Z" fill="#FCC659"/>
<path d="M74.5771 91.173C67.5917 89.3469 60.4437 93.5205 58.6146 100.497C56.7855 107.471 60.9659 114.608 67.9541 116.434C74.9395 118.26 82.0874 114.086 83.9165 107.109C85.7485 100.135 81.5653 93.002 74.5771 91.173ZM81.4511 106.466C80.7377 109.181 79.0114 111.457 76.5831 112.873C74.1576 114.291 71.3241 114.682 68.6018 113.969C62.989 112.502 59.6162 106.748 61.0857 101.141C61.7991 98.4262 63.5226 96.1499 65.951 94.7312C68.2908 93.3638 71.013 92.9535 73.6468 93.5632C73.7438 93.586 73.8351 93.6088 73.9322 93.6344C79.4565 95.0759 82.8065 100.665 81.5196 106.181C81.4968 106.28 81.4739 106.374 81.4511 106.466Z" fill="#FCC659"/>
<path d="M52.1039 80.9962C44.8846 80.7996 38.8751 86.483 38.6754 93.6935C38.4785 100.901 44.1712 106.904 51.3934 107.1C58.6127 107.297 64.625 101.613 64.8219 94.4028C65.0188 87.1952 59.3261 81.1927 52.1039 80.9962ZM62.2737 94.3316C62.1967 97.1377 61.0296 99.7444 58.9865 101.676C56.9463 103.607 54.2754 104.63 51.4647 104.553C45.6636 104.394 41.0723 99.5564 41.2292 93.7618C41.3063 90.9557 42.4705 88.349 44.5136 86.4175C46.4825 84.5544 49.0392 83.5373 51.7444 83.5373C51.8442 83.5373 51.9384 83.5402 52.0383 83.543C57.7453 83.6969 62.2766 88.3832 62.2766 94.0439C62.2766 94.1407 62.2766 94.2376 62.2737 94.3316Z" fill="#FCC659"/>
<path d="M59.8881 87.391C59.948 87.4651 60.0108 87.5391 60.0679 87.616C61.7857 89.8353 62.5361 92.593 62.1794 95.3791C61.8228 98.1625 60.4046 100.641 58.1788 102.359C53.5876 105.903 46.9646 105.057 43.4149 100.47C41.6971 98.2508 40.9438 95.4959 41.3004 92.7098C41.6457 90.0233 42.9811 87.6189 45.0728 85.9124C45.1498 85.8498 45.224 85.7928 45.3039 85.7301C49.8181 82.2431 56.2984 83.0066 59.8881 87.391Z" fill="#F49B51"/>
<path d="M51.0884 102.083V100.106C49.9498 100.086 48.7742 99.7327 48.0894 99.2456L48.5602 97.9351C49.265 98.4052 50.2865 98.7755 51.3851 98.7755C52.7776 98.7755 53.7193 97.9721 53.7193 96.8582C53.7193 95.7814 52.9546 95.1147 51.5021 94.5279C49.5018 93.7445 48.2663 92.8442 48.2663 91.1406C48.2663 89.5168 49.4219 88.2832 51.2282 87.9898V86.0127H52.4438V87.9129C53.6194 87.9528 54.4241 88.2661 54.992 88.5994L54.5012 89.8928C54.0902 89.6592 53.2856 89.2262 52.03 89.2262C50.5205 89.2262 49.9527 90.1264 49.9527 90.9099C49.9527 91.9269 50.6775 92.4368 52.3839 93.1405C54.4041 93.9638 55.4228 94.9809 55.4228 96.7243C55.4228 98.2713 54.3442 99.7185 52.3239 100.052V102.089H51.0884V102.083Z" fill="#FCC659"/>
<path d="M60.263 84.4237C59.2528 83.5406 58.1171 82.8227 56.8901 82.2899L57.0128 82.0107C58.2712 82.5549 59.4326 83.2899 60.4656 84.1958L60.263 84.4237Z" fill="#2E4882"/>
<path d="M59.1282 105.097L58.957 104.844C62.4183 102.516 64.5527 98.6446 64.6669 94.4853C64.7382 91.9014 64.042 89.3859 62.658 87.215L62.9148 87.0498C64.333 89.2748 65.0435 91.8473 64.9722 94.4938C64.8552 98.75 62.6723 102.716 59.1282 105.097Z" fill="#2E4882"/>
<path d="M61.7444 91.3716C61.7216 91.2833 61.6959 91.195 61.6702 91.1067C60.837 88.235 58.8053 85.8648 56.0859 84.5942L56.2058 84.335C58.9965 85.6397 61.0881 88.0755 61.9413 91.0184C61.9698 91.1181 61.9955 91.2064 62.0183 91.2975L61.7444 91.3716Z" fill="#2E4882"/>
<path d="M56.0825 84.589C53.8967 83.5663 51.4114 83.3383 49.0772 83.9452L49.0059 83.6688C51.4028 83.0449 53.9595 83.2814 56.2052 84.3297L56.0825 84.589Z" fill="#2E4882"/>
<path d="M60.889 99.3728L60.6436 99.2275C61.3427 98.0396 61.7935 96.7547 61.9818 95.4072L62.2643 95.4471C62.0703 96.8316 61.608 98.1507 60.889 99.3728Z" fill="#2E4882"/>
<path d="M91.1269 148.963H32.3763C30.8783 148.963 29.6655 147.752 29.6655 146.257V103.843C29.6655 102.347 30.8783 101.137 32.3763 101.137H91.1269C92.625 101.137 93.8377 102.347 93.8377 103.843V146.254C93.8377 147.75 92.625 148.963 91.1269 148.963Z" fill="url(#paint4_linear_538_18325)"/>
<path d="M54.1726 147.088H34.8716C33.4191 147.088 32.2378 145.908 32.2378 144.458V140.749H32.5431V144.458C32.5431 145.74 33.5875 146.783 34.8716 146.783H54.1726V147.088Z" fill="#2E4882"/>
<path d="M64.8123 146.778H58.8628V147.083H64.8123V146.778Z" fill="#2E4882"/>
<path d="M91.2845 110.765H90.9791V105.651C90.9791 104.369 89.9348 103.326 88.6507 103.326H63.4458V103.021H88.6507C90.1031 103.021 91.2845 104.201 91.2845 105.651V110.765Z" fill="#2E4882"/>
<path d="M58.9068 103.021H53.2227V103.326H58.9068V103.021Z" fill="#2E4882"/>
<path d="M32.5425 129.475H32.2378V136.694H32.5425V129.475Z" fill="#2E4882"/>
<path d="M98.2439 115.229V128.744C98.2439 130.442 96.8685 131.818 95.1649 131.818H83.4542C79.7104 131.818 76.6743 128.787 76.6743 125.049C76.6743 123.181 77.4333 121.488 78.6603 120.263C79.8873 119.038 81.5823 118.281 83.4542 118.281H95.1649C95.2505 118.281 95.3361 118.283 95.4218 118.292C97.0054 118.164 98.2439 116.839 98.2439 115.229Z" fill="#3F5A9F"/>
<path d="M85.0708 127.285C86.3066 126.051 86.3066 124.051 85.0708 122.817C83.835 121.583 81.8314 121.583 80.5955 122.817C79.3597 124.051 79.3597 126.051 80.5955 127.285C81.8314 128.519 83.835 128.519 85.0708 127.285Z" fill="white"/>
<path d="M82.8389 128.365V128.06C84.4996 128.06 85.8493 126.713 85.8493 125.054C85.8493 123.396 84.4996 122.049 82.8389 122.049V121.744C84.668 121.744 86.1546 123.228 86.1546 125.054C86.1546 126.878 84.668 128.365 82.8389 128.365Z" fill="#2E4882"/>
<path d="M79.8317 125.053H79.5264C79.5264 124.17 79.8716 123.338 80.4966 122.711L80.7134 122.927C80.1456 123.494 79.8317 124.249 79.8317 125.053Z" fill="#2E4882"/>
<path d="M28.4295 127.641C26.7888 126.091 24.9226 124.73 22.8823 123.593L23.0307 123.325C25.0909 124.473 26.9799 125.849 28.6378 127.416L28.4295 127.641Z" fill="#2E4882"/>
<path d="M19.5358 121.991C18.4229 121.535 17.2501 121.13 16.0488 120.783L16.1344 120.489C17.3472 120.84 18.5314 121.25 19.6528 121.709L19.5358 121.991Z" fill="#2E4882"/>
<path d="M95.6397 37.2438C90.6803 35.8906 85.3899 35.6599 80.3478 36.7139C77.8253 37.2267 75.3599 38.0244 73.0343 39.1212C70.7087 40.2152 68.4858 41.5484 66.4798 43.158C64.4681 44.7591 62.6276 46.5823 61.0411 48.605C59.4574 50.6334 58.1105 52.8413 57.0348 55.1773C56.7665 55.7613 56.5297 56.3596 56.2814 56.9521C56.0703 57.5589 55.8306 58.1544 55.6423 58.7697C55.2542 59.9947 54.9146 61.234 54.6692 62.496C54.5494 63.1256 54.4352 63.758 54.3496 64.3962C54.3268 64.5557 54.304 64.7152 54.2869 64.8748L54.2669 65.0457L54.2555 65.1511C54.2412 65.2936 54.2212 65.4332 54.2098 65.5756L51.8271 65.3363C52.8287 67.8718 54.1071 70.1736 55.5823 72.1906C56.5982 69.9058 57.8623 67.8604 59.2976 66.0912L56.9149 65.8519C56.9263 65.7209 56.9435 65.5927 56.9577 65.4645L56.9691 65.3676L56.9863 65.2109C57.0005 65.0656 57.0234 64.9175 57.0433 64.7722C57.1204 64.1882 57.2231 63.607 57.3344 63.0287C57.557 61.8692 57.8708 60.7326 58.2275 59.6073C58.4016 59.0432 58.6213 58.4962 58.8154 57.9378C59.0436 57.3937 59.2605 56.8467 59.5059 56.3112C60.4932 54.1688 61.7288 52.1461 63.1783 50.2858C64.6336 48.4312 66.3229 46.759 68.1662 45.289C70.0067 43.8104 72.047 42.5883 74.1814 41.5855C76.3158 40.577 78.5786 39.8477 80.8928 39.3776C85.5183 38.409 90.3607 38.6255 94.9177 39.8648L95.6397 37.2438Z" fill="url(#paint5_linear_538_18325)"/>
<path d="M70.5346 40.4551L70.3862 40.2101C71.1795 39.7315 72.0042 39.2842 72.8374 38.8825C74.9176 37.8797 77.1747 37.1077 79.5516 36.5835C81.7545 36.0906 84.1343 35.8627 86.6197 35.9055C88.9368 35.9396 91.3023 36.2701 93.6507 36.8826L93.5794 37.1589C91.2538 36.5521 88.9111 36.2274 86.614 36.1932C84.1486 36.1505 81.7945 36.3784 79.6116 36.8655C77.2546 37.384 75.0174 38.1503 72.9572 39.1417C72.1383 39.5377 71.3222 39.9822 70.5346 40.4551Z" fill="#2E4882"/>
<path d="M64.4441 45.2924L64.2358 45.0987C64.4955 44.8223 64.7723 44.5574 65.0434 44.301C65.1975 44.1529 65.3516 44.0047 65.5056 43.8566C65.6398 43.7398 65.7682 43.6258 65.8966 43.5147C66.2076 43.2412 66.53 42.9592 66.8553 42.6914L67.0351 42.9108C66.7127 43.1729 66.3931 43.4549 66.0849 43.7284C65.9565 43.8423 65.8281 43.9534 65.6997 44.0646C65.5542 44.2098 65.3972 44.358 65.2431 44.5061C64.9749 44.7597 64.6981 45.0218 64.4441 45.2924Z" fill="#2E4882"/>
<path d="M55.6108 72.469L55.4625 72.2696C54.167 70.5232 53.0427 68.5946 52.1182 66.5377L52.3778 66.4209C53.2567 68.3809 54.3211 70.2241 55.5452 71.9021C56.2129 70.4036 57.0033 68.9763 57.8965 67.6544L58.1333 67.814C57.2031 69.1871 56.387 70.6799 55.7079 72.2439L55.6108 72.469Z" fill="#2E4882"/>
<path d="M54.3474 65.5827L54.062 65.5627C54.0649 65.5342 54.2675 62.6313 55.0893 60.0986L55.3604 60.1869C54.5471 62.6854 54.3474 65.5542 54.3474 65.5827Z" fill="#2E4882"/>
<path d="M34.4806 123.116C27.4924 124.93 23.2977 132.058 25.1154 139.038C26.9331 146.015 34.0725 150.205 41.0636 148.388C48.0518 146.573 52.2493 139.445 50.4287 132.466C48.6111 125.489 41.4716 121.304 34.4806 123.116ZM47.9605 133.107C48.6681 135.822 48.2715 138.65 46.8476 141.072C45.4237 143.493 43.1438 145.214 40.4215 145.921C34.8059 147.376 29.0475 144.003 27.5865 138.394C26.8789 135.679 27.2726 132.85 28.6965 130.429C30.0691 128.093 32.2434 126.406 34.8401 125.657C34.9343 125.628 35.0284 125.606 35.1226 125.58C40.647 124.144 46.3054 127.389 47.8806 132.827C47.9091 132.924 47.9348 133.015 47.9605 133.107Z" fill="#FCC659"/>
<path d="M47.8825 132.831C47.9082 132.922 47.9367 133.016 47.9595 133.108C48.6672 135.823 48.2705 138.654 46.8467 141.073C45.4228 143.494 43.1428 145.215 40.4206 145.922C34.8049 147.377 29.0466 144.004 27.5856 138.395C26.8779 135.68 27.2717 132.851 28.6956 130.43C30.0681 128.094 32.2425 126.407 34.8392 125.658C34.9333 125.629 35.0275 125.607 35.1217 125.581C40.6489 124.148 46.3074 127.393 47.8825 132.831Z" fill="#F49B51"/>
<path d="M46.9217 145.274L46.7248 145.068C50.0948 141.832 51.4587 137.018 50.2803 132.502C49.8693 130.921 49.1759 129.454 48.22 128.146L48.4512 127.978C49.4271 129.317 50.1376 130.816 50.557 132.431C51.7612 137.043 50.3687 141.966 46.9217 145.274ZM45.2039 125.186C43.9683 124.32 42.6072 123.682 41.1548 123.286L41.229 123.013C42.7128 123.417 44.1053 124.07 45.3694 124.956L45.2039 125.186Z" fill="#2E4882"/>
<path d="M39.3681 143.663L38.8174 141.762C37.7188 142.059 36.4918 142.047 35.6957 141.768L35.7841 140.378C36.5917 140.634 37.676 140.708 38.7318 140.403C40.0701 140.016 40.7492 138.985 40.4382 137.914C40.1385 136.879 39.2197 136.452 37.6617 136.29C35.5216 136.093 34.0834 135.569 33.6098 133.934C33.1589 132.373 33.9265 130.868 35.5758 130.085L35.0251 128.185L36.1922 127.849L36.7201 129.672C37.8615 129.384 38.7204 129.461 39.3595 129.623L39.2483 130.999C38.786 130.888 37.8957 130.697 36.6887 131.045C35.2391 131.464 34.9423 132.487 35.1592 133.239C35.4417 134.216 36.2806 134.504 38.1154 134.709C40.2841 134.939 41.5482 135.635 42.0333 137.307C42.4641 138.794 41.8307 140.483 39.9845 141.364L40.5523 143.321L39.3681 143.663Z" fill="#FCC659"/>
<path d="M28.4487 128.455C29.4161 128.945 30.0809 129.698 30.5346 130.641C30.9883 129.698 31.6561 128.943 32.6234 128.453C31.6561 127.963 30.9883 127.211 30.5346 126.268C30.0809 127.208 29.4161 127.965 28.4487 128.455Z" fill="#FFE6A6"/>
<path d="M32.7241 131.847C33.2863 132.132 33.6715 132.568 33.9369 133.117C34.2022 132.57 34.5875 132.132 35.1496 131.847C34.5875 131.562 34.1994 131.126 33.9369 130.576C33.6715 131.123 33.2863 131.562 32.7241 131.847Z" fill="#FFE6A6"/>
<path d="M47.8255 133.144C47.8026 133.053 47.7741 132.962 47.7484 132.87C46.9181 130.007 44.8835 127.634 42.167 126.364L42.2868 126.104C45.0776 127.409 47.1692 129.848 48.0224 132.791C48.048 132.885 48.0766 132.976 48.0994 133.07L47.8255 133.144Z" fill="#2E4882"/>
<path d="M42.165 126.364C39.9793 125.342 37.491 125.114 35.1597 125.721L35.0884 125.444C37.4853 124.82 40.042 125.057 42.2877 126.105L42.165 126.364Z" fill="#2E4882"/>
<path d="M27.4489 138.43C26.7327 135.675 27.1321 132.806 28.5732 130.356L28.8186 130.502C27.4146 132.886 27.0237 135.678 27.7228 138.359L27.4489 138.43Z" fill="#2E4882"/>
<path d="M46.9602 141.146L46.7148 141.001C47.4139 139.813 47.8648 138.528 48.0531 137.181L48.3356 137.221C48.1416 138.605 47.6793 139.927 46.9602 141.146Z" fill="#2E4882"/>
<path d="M42.3037 86.7494C43.271 87.2394 43.9359 87.9915 44.3896 88.9345C44.8433 87.9915 45.511 87.2366 46.4784 86.7466C45.511 86.2566 44.8433 85.5045 44.3896 84.5615C43.9359 85.5016 43.271 86.2566 42.3037 86.7494Z" fill="#FFE6A6"/>
<path d="M56.3892 98.7227C56.9513 99.0076 57.3365 99.4435 57.6019 99.9933C57.8673 99.4463 58.2525 99.0076 58.8146 98.7227C58.2525 98.4378 57.8644 98.002 57.6019 97.4521C57.3394 97.9991 56.9513 98.4407 56.3892 98.7227Z" fill="#FFE6A6"/>
<path d="M114.294 25.768C115.262 26.258 115.927 27.0101 116.38 27.9531C116.834 27.0101 117.502 26.2551 118.469 25.7651C117.502 25.2751 116.834 24.523 116.38 23.5801C115.924 24.523 115.259 25.278 114.294 25.768Z" fill="#FFE6A6"/>
<path d="M169.765 140.026C170.732 140.516 171.397 141.268 171.851 142.211C172.305 141.268 172.972 140.513 173.94 140.023C172.972 139.533 172.305 138.781 171.851 137.838C171.397 138.781 170.732 139.536 169.765 140.026Z" fill="#FFE6A6"/>
<path d="M168.352 146.566C168.914 146.851 169.299 147.287 169.565 147.837C169.83 147.29 170.215 146.851 170.778 146.566C170.215 146.282 169.827 145.846 169.565 145.296C169.299 145.843 168.911 146.282 168.352 146.566Z" fill="#FFE6A6"/>
<defs>
<linearGradient id="paint0_linear_538_18325" x1="178" y1="39" x2="178" y2="149" gradientUnits="userSpaceOnUse">
<stop stop-color="#8F79F0"/>
<stop offset="1" stop-color="#333CFF"/>
</linearGradient>
<linearGradient id="paint1_linear_538_18325" x1="175" y1="39" x2="175" y2="149" gradientUnits="userSpaceOnUse">
<stop stop-color="#8F79F0"/>
<stop offset="1" stop-color="#333CFF"/>
</linearGradient>
<linearGradient id="paint2_linear_538_18325" x1="176" y1="64" x2="176" y2="93" gradientUnits="userSpaceOnUse">
<stop stop-color="#8F79F0"/>
<stop offset="1" stop-color="#333CFF"/>
</linearGradient>
<linearGradient id="paint3_linear_538_18325" x1="29.6655" y1="120.739" x2="97.3091" y2="120.843" gradientUnits="userSpaceOnUse">
<stop stop-color="#8975F2"/>
<stop offset="1" stop-color="#3940FF"/>
</linearGradient>
<linearGradient id="paint4_linear_538_18325" x1="61.7516" y1="101.137" x2="61.7516" y2="148.963" gradientUnits="userSpaceOnUse">
<stop stop-color="#8F79F0"/>
<stop offset="1" stop-color="#333CFF"/>
</linearGradient>
<linearGradient id="paint5_linear_538_18325" x1="73.7334" y1="36.0537" x2="73.7334" y2="72.1906" gradientUnits="userSpaceOnUse">
<stop stop-color="#8F79F0"/>
<stop offset="1" stop-color="#333CFF"/>
</linearGradient>
</defs>
</svg>
