<svg width="16" height="16" viewBox="0 0 16 16" fill="none" xmlns="http://www.w3.org/2000/svg">
<path d="M13.5118 2.4872L13.865 2.13329V2.13329L13.5118 2.4872ZM4.33334 14V14.5C4.46578 14.5 4.59281 14.4475 4.68655 14.3539L4.33334 14ZM2 14H1.5C1.5 14.2761 1.72386 14.5 2 14.5V14ZM2 11.624L1.6468 11.2701C1.55281 11.3639 1.5 11.4912 1.5 11.624H2ZM11.508 2.8411C11.9637 2.3863 12.7029 2.3863 13.1586 2.8411L13.865 2.13329C13.019 1.2889 11.6477 1.2889 10.8016 2.13329L11.508 2.8411ZM13.1586 2.8411C13.6138 3.29535 13.6138 4.03143 13.1586 4.48568L13.865 5.19348C14.7117 4.34855 14.7117 2.97823 13.865 2.13329L13.1586 2.8411ZM13.1586 4.48568L3.98014 13.6461L4.68655 14.3539L13.865 5.19348L13.1586 4.48568ZM4.33334 13.5H2V14.5H4.33334V13.5ZM10.8016 2.13329L1.6468 11.2701L2.3532 11.9779L11.508 2.8411L10.8016 2.13329ZM1.5 11.624V14H2.5V11.624H1.5ZM9.80161 3.83913L12.1586 6.19152L12.865 5.48371L10.508 3.13133L9.80161 3.83913Z" fill="#0C0C0E"/>
</svg>
