<svg width="21" height="24" viewBox="0 0 21 24" fill="none" xmlns="http://www.w3.org/2000/svg">
<path d="M19.9522 9.46501L11.9994 1.51216C11.1772 0.689979 9.83935 0.689932 9.01711 1.51216C8.27799 2.25124 8.21433 3.37844 8.76015 4.18333L8.74908 4.23869C8.17571 7.10579 6.77982 9.7141 4.71222 11.7817L1.06446 15.4294C0.240303 16.2536 0.240163 17.5875 1.06446 18.4117L3.05261 20.3998C3.87672 21.224 5.21068 21.224 6.03489 20.3998L6.53195 19.9028L10.0113 23.3821C10.8354 24.2063 12.1693 24.2064 12.9935 23.3821C13.8157 22.5599 13.8157 21.2221 12.9935 20.3999L11.5024 18.9088L11.9994 18.4117C12.8236 17.5876 12.8237 16.2537 11.9994 15.4295L11.6617 15.0916C13.3233 13.9282 15.2105 13.1183 17.2258 12.7152L17.2818 12.704C18.1046 13.2595 19.2292 13.1702 19.9522 12.4472H19.9523C20.7744 11.6251 20.7744 10.2872 19.9522 9.46501ZM5.04081 19.4058C4.76612 19.6804 4.32137 19.6805 4.04669 19.4057L2.05853 17.4176C1.7838 17.1428 1.7838 16.6982 2.05853 16.4235L5.53782 12.9442L8.5201 15.9264C8.17969 16.2668 5.38961 19.0569 5.04081 19.4058ZM11.9994 21.3939C12.2734 21.668 12.2734 22.1139 11.9994 22.388C11.7254 22.662 11.2793 22.662 11.0053 22.388L7.52598 18.9087L8.5201 17.9146L11.9994 21.3939ZM9.51418 16.9205C9.72549 16.7092 10.0418 16.3855 10.541 15.9592L11.0053 16.4235C11.28 16.6982 11.28 17.1428 11.0053 17.4176L10.5083 17.9146L9.51418 16.9205ZM9.54403 14.9623L6.50195 11.9202C8.13221 10.0377 9.29967 7.81562 9.92428 5.40156L16.0626 11.5399C13.6486 12.1645 11.4265 13.332 9.54403 14.9623ZM18.958 11.4531C18.6833 11.7278 18.2387 11.7278 17.9639 11.4531L10.0112 3.50032C9.73646 3.22554 9.73646 2.78097 10.0112 2.50624C10.2859 2.23151 10.7306 2.23151 11.0053 2.50624L18.958 10.4589C19.232 10.733 19.232 11.1789 18.958 11.4531Z" fill="#616164"/>
</svg>
