<svg width="22" height="22" viewBox="0 0 22 22" fill="none" xmlns="http://www.w3.org/2000/svg">
<path d="M9.41876 4.96975L12.7588 7.70275C13.5438 6.95375 14.5878 6.53475 15.6748 6.53475C16.7958 6.53475 17.8708 6.97975 18.6628 7.77175C19.1398 8.24875 19.5858 8.69475 19.8918 9.00075C20.1408 9.24975 20.2808 9.58775 20.2808 9.94075C20.2808 10.2928 20.1408 10.6318 19.8918 10.8807C18.4078 12.3637 13.2978 17.4748 11.2898 19.4818C10.9318 19.8398 10.4468 20.0408 9.94076 20.0408C9.43476 20.0408 8.94876 19.8398 8.59076 19.4818C8.34676 19.2378 8.06476 18.9557 7.77176 18.6628C6.97976 17.8708 6.53476 16.7957 6.53476 15.6747C6.53476 14.5877 6.95376 13.5437 7.70276 12.7587L4.96976 9.41875L4.73676 9.65175C3.99176 10.3968 2.78276 10.3968 2.03776 9.65175C1.65276 9.26675 1.19376 8.80775 0.808762 8.42275C0.0637608 7.67775 0.0637608 6.46875 0.808762 5.72375L5.72376 0.80875C6.46876 0.06375 7.67776 0.06375 8.42276 0.80875C8.80776 1.19375 9.26676 1.65275 9.65176 2.03775C10.3968 2.78275 10.3968 3.99175 9.65176 4.73675L9.41876 4.96975ZM9.23676 13.3428L8.83276 13.7478C8.32176 14.2587 8.03476 14.9517 8.03476 15.6747C8.03476 16.3977 8.32176 17.0907 8.83276 17.6017L9.65176 18.4218C9.72876 18.4978 9.83276 18.5408 9.94076 18.5408C10.0488 18.5408 10.1528 18.4978 10.2298 18.4218L18.7108 9.94075L17.6018 8.83275C17.0908 8.32175 16.3978 8.03475 15.6748 8.03475C14.9518 8.03475 14.2588 8.32175 13.7478 8.83275L13.3428 9.23775L13.3328 9.24775L13.3278 9.25275L13.3228 9.25675C13.0588 9.50675 12.8078 9.46175 12.8078 9.46175C12.6348 9.46175 12.4668 9.40175 12.3328 9.29275C12.3328 9.29275 9.49376 6.96875 8.32276 6.01075C8.03176 5.77375 7.85576 5.42375 7.83676 5.04875C7.81776 4.67375 7.95876 4.30775 8.22476 4.04275L8.59076 3.67575C8.75076 3.51675 8.75076 3.25775 8.59076 3.09775C8.20576 2.71275 7.74776 2.25475 7.36276 1.86975C7.20276 1.70975 6.94376 1.70975 6.78476 1.86975L1.86976 6.78475C1.70976 6.94375 1.70976 7.20275 1.86976 7.36275L3.09776 8.59075C3.25776 8.75075 3.51676 8.75075 3.67576 8.59075L4.04276 8.22475C4.30776 7.95875 4.67376 7.81775 5.04876 7.83675C5.42376 7.85575 5.77376 8.03175 6.01176 8.32275C6.96876 9.49375 9.29276 12.3328 9.29276 12.3328C9.47576 12.5568 9.51376 12.8667 9.38976 13.1287C9.35076 13.2098 9.29876 13.2828 9.23676 13.3428Z" fill="#616164"/>
<path d="M15.3858 14.3262L21.5298 20.4702C21.8228 20.7622 21.8228 21.2382 21.5298 21.5302C21.2378 21.8232 20.7618 21.8232 20.4698 21.5302L14.3258 15.3862C14.0328 15.0942 14.0328 14.6182 14.3258 14.3262C14.6178 14.0332 15.0938 14.0332 15.3858 14.3262Z" fill="#616164"/>
</svg>
