<svg width="21" height="24" viewBox="0 0 21 24" fill="none" xmlns="http://www.w3.org/2000/svg">
<path d="M16.9605 16.1435C15.8106 16.1435 14.7746 16.6401 14.0555 17.43L7.58807 13.4244C7.76074 12.9824 7.85651 12.5023 7.85651 12C7.85651 11.4976 7.76074 11.0175 7.58807 10.5756L14.0555 6.56982C14.7746 7.35974 15.8106 7.85651 16.9605 7.85651C19.1266 7.85651 20.8889 6.0943 20.8889 3.92816C20.8889 1.76202 19.1266 0 16.9605 0C14.7944 0 13.0322 1.76221 13.0322 3.92834C13.0322 4.4306 13.1281 4.91071 13.3006 5.35272L6.83331 9.35834C6.11426 8.56842 5.07825 8.07166 3.92834 8.07166C1.76221 8.07166 0 9.83405 0 12C0 14.1661 1.76221 15.9283 3.92834 15.9283C5.07825 15.9283 6.11426 15.4318 6.83331 14.6417L13.3006 18.6473C13.1281 19.0893 13.0322 19.5694 13.0322 20.0718C13.0322 22.2378 14.7944 24 16.9605 24C19.1266 24 20.8889 22.2378 20.8889 20.0718C20.8889 17.9057 19.1266 16.1435 16.9605 16.1435ZM14.4646 3.92834C14.4646 2.55212 15.5843 1.43243 16.9605 1.43243C18.3367 1.43243 19.4564 2.55212 19.4564 3.92834C19.4564 5.30457 18.3367 6.42426 16.9605 6.42426C15.5843 6.42426 14.4646 5.30457 14.4646 3.92834ZM3.92834 14.4959C2.55194 14.4959 1.43225 13.3762 1.43225 12C1.43225 10.6238 2.55194 9.50409 3.92834 9.50409C5.30457 9.50409 6.42407 10.6238 6.42407 12C6.42407 13.3762 5.30457 14.4959 3.92834 14.4959ZM14.4646 20.0717C14.4646 18.6954 15.5843 17.5757 16.9605 17.5757C18.3367 17.5757 19.4564 18.6954 19.4564 20.0717C19.4564 21.4479 18.3367 22.5676 16.9605 22.5676C15.5843 22.5676 14.4646 21.4479 14.4646 20.0717Z" fill="#616164"/>
</svg>
