<svg width="41" height="30" viewBox="0 0 41 30" fill="none" xmlns="http://www.w3.org/2000/svg">
<path d="M31.7546 29.105H25.2895H23.5486H23.1727V20.4332H26.0088C26.728 20.4332 27.153 19.6159 26.728 19.0274L21.2111 11.3935C20.8596 10.9031 20.1322 10.9031 19.7808 11.3935L14.2638 19.0274C13.8388 19.6159 14.2556 20.4332 14.983 20.4332H17.8192V29.105H17.4432H15.7023H8.2074C3.91643 28.868 0.5 24.8549 0.5 20.5067C0.5 17.5071 2.12648 14.8917 4.5376 13.4777C4.31692 12.8811 4.20249 12.2436 4.20249 11.5734C4.20249 8.50838 6.67899 6.03188 9.74397 6.03188C10.406 6.03188 11.0435 6.1463 11.6402 6.36698C13.4138 2.60727 17.2389 0 21.6851 0C27.4391 0.00817327 32.1796 4.41357 32.719 10.0286C37.1408 10.7887 40.5 14.8835 40.5 19.5178C40.5 24.4708 36.6422 28.7617 31.7546 29.105Z" fill="#3A41FE"/>
</svg>
