<svg width="24" height="25" viewBox="0 0 24 25" fill="none" xmlns="http://www.w3.org/2000/svg">
<path d="M16.8992 17.4C19.5992 14.7 19.5992 10.2 16.8992 7.5M7.09922 7.6C4.39922 10.3 4.39922 14.8 7.09922 17.5" stroke="#3A41FE" stroke-width="1.5" stroke-miterlimit="10" stroke-linecap="round" stroke-linejoin="round"/>
<path d="M9.69922 14.0998C9.69922 14.9998 10.3992 15.6998 11.2992 15.6998H12.9992C13.6992 15.6998 14.3992 15.0998 14.3992 14.2998C14.3992 13.3998 13.9992 13.0998 13.4992 12.8998L10.6992 11.8998C9.99922 11.7998 9.69922 11.4998 9.69922 10.6998C9.69922 9.8998 10.2992 9.2998 11.0992 9.2998H12.8992C13.7992 9.2998 14.4992 9.9998 14.4992 10.8998M11.9992 8.2998V16.6998" stroke="#3A41FE" stroke-width="1.5" stroke-linecap="round" stroke-linejoin="round"/>
<path d="M12 22.5C17.523 22.5 22 18.023 22 12.5C22 6.977 17.523 2.5 12 2.5C6.477 2.5 2 6.977 2 12.5C2 18.023 6.477 22.5 12 22.5Z" stroke="#3A41FE" stroke-width="1.5" stroke-miterlimit="10" stroke-linecap="round" stroke-linejoin="round"/>
</svg>
