<svg width="24" height="18" viewBox="0 0 24 18" fill="none" xmlns="http://www.w3.org/2000/svg">
<path d="M15 0.75H9C8.40331 0.750159 7.83111 0.987263 7.40919 1.40919C6.98726 1.83111 6.75016 2.40331 6.75 3V15C6.75016 15.5967 6.98726 16.1689 7.40919 16.5908C7.83111 17.0127 8.40331 17.2498 9 17.25H15C15.5967 17.2498 16.1689 17.0127 16.5908 16.5908C17.0127 16.1689 17.2498 15.5967 17.25 15V3C17.2498 2.40331 17.0127 1.83111 16.5908 1.40919C16.1689 0.987263 15.5967 0.750159 15 0.75ZM15.75 15C15.75 15.1989 15.671 15.3897 15.5303 15.5303C15.3897 15.671 15.1989 15.75 15 15.75H9C8.80109 15.75 8.61032 15.671 8.46967 15.5303C8.32902 15.3897 8.25 15.1989 8.25 15V3C8.25 2.80109 8.32902 2.61032 8.46967 2.46967C8.61032 2.32902 8.80109 2.25 9 2.25H15C15.1989 2.25 15.3897 2.32902 15.5303 2.46967C15.671 2.61032 15.75 2.80109 15.75 3V15Z" fill="#616164"/>
<path d="M1.5 6.75C1.30109 6.75 1.11032 6.82902 0.96967 6.96967C0.829018 7.11032 0.75 7.30109 0.75 7.5V10.5C0.75 10.6989 0.829018 10.8897 0.96967 11.0303C1.11032 11.171 1.30109 11.25 1.5 11.25C1.69891 11.25 1.88968 11.171 2.03033 11.0303C2.17098 10.8897 2.25 10.6989 2.25 10.5V7.5C2.25 7.30109 2.17098 7.11032 2.03033 6.96967C1.88968 6.82902 1.69891 6.75 1.5 6.75Z" fill="#616164"/>
<path d="M22.5 6.75C22.3011 6.75 22.1103 6.82902 21.9697 6.96967C21.829 7.11032 21.75 7.30109 21.75 7.5V10.5C21.75 10.6989 21.829 10.8897 21.9697 11.0303C22.1103 11.171 22.3011 11.25 22.5 11.25C22.6989 11.25 22.8897 11.171 23.0303 11.0303C23.171 10.8897 23.25 10.6989 23.25 10.5V7.5C23.25 7.30109 23.171 7.11032 23.0303 6.96967C22.8897 6.82902 22.6989 6.75 22.5 6.75Z" fill="#616164"/>
<path d="M4.5 3.75C4.30109 3.75 4.11032 3.82902 3.96967 3.96967C3.82902 4.11032 3.75 4.30109 3.75 4.5V13.5C3.75 13.6989 3.82902 13.8897 3.96967 14.0303C4.11032 14.171 4.30109 14.25 4.5 14.25C4.69891 14.25 4.88968 14.171 5.03033 14.0303C5.17098 13.8897 5.25 13.6989 5.25 13.5V4.5C5.25 4.30109 5.17098 4.11032 5.03033 3.96967C4.88968 3.82902 4.69891 3.75 4.5 3.75Z" fill="#616164"/>
<path d="M19.5 3.75C19.3011 3.75 19.1103 3.82902 18.9697 3.96967C18.829 4.11032 18.75 4.30109 18.75 4.5V13.5C18.75 13.6989 18.829 13.8897 18.9697 14.0303C19.1103 14.171 19.3011 14.25 19.5 14.25C19.6989 14.25 19.8897 14.171 20.0303 14.0303C20.171 13.8897 20.25 13.6989 20.25 13.5V4.5C20.25 4.30109 20.171 4.11032 20.0303 3.96967C19.8897 3.82902 19.6989 3.75 19.5 3.75Z" fill="#616164"/>
</svg>
