<svg width="179" height="145" viewBox="0 0 179 145" fill="none" xmlns="http://www.w3.org/2000/svg">
<path d="M12.9082 85.5323C7.48933 73.0081 7.90544 58.1291 12.9082 45.4435C18.2798 31.9319 29.4296 21.4017 41.9034 14.005C63.8721 0.987045 91.0799 -3.25731 115.668 3.48428C122.023 5.2219 128.265 7.70014 133.495 11.7166C138.724 15.7331 142.885 21.4112 144.143 27.9059C145.023 32.3971 144.493 37.0498 145.089 41.5885C147.491 59.6294 164.325 67.9756 164.098 86.1494C163.956 97.4962 156.239 105.444 145.42 112.499C135.963 118.689 38.6313 144.915 12.9082 85.5323Z" fill="#F3FAFF"/>
<path d="M89.5 145C138.653 145 178.5 142.789 178.5 140.063C178.5 137.336 138.653 135.125 89.5 135.125C40.3466 135.125 0.5 137.336 0.5 140.063C0.5 142.789 40.3466 145 89.5 145Z" fill="#E9ECF2"/>
<path d="M23.812 81.7432C23.812 81.8381 23.812 81.9426 23.812 82.047C25.2495 94.4667 27.9258 103.886 31.1601 111.131L38.0827 114.16L32.7394 114.112H32.5881C36.6263 121.955 41.3264 126.722 45.5253 129.608C47.6744 131.111 50.0282 132.294 52.5141 133.122L52.8923 133.245C53.2139 133.35 53.5165 133.435 53.838 133.511L57.3561 133.179C57.3561 133.008 57.4034 132.837 57.4223 132.666C57.4412 132.495 57.4223 132.457 57.4223 132.353C57.4223 132.248 57.4223 132.068 57.4695 131.925C59.2758 115.347 52.2114 103.373 44.0879 95.2928L44.0122 95.2073C41.3864 92.6185 38.5382 90.2673 35.5009 88.1809L34.5552 92.3588L33.5244 86.8611C30.524 84.9102 27.3596 83.2264 24.0673 81.8286L23.812 81.7432Z" fill="#00DBAA"/>
<path d="M23.6982 81.8189L23.8496 82.0468L33.2214 96.0712L33.3822 96.3181L35.9451 100.145L36.0302 100.268L44.1727 112.46L44.1822 112.479L57.4598 132.352L57.6584 132.647L57.9799 133.121L58.2825 133.093L57.9705 132.618L57.5071 131.925L44.4091 112.317L44.1632 111.957L24.0292 81.8284L23.9157 81.667L23.6982 81.8189Z" fill="white"/>
<path d="M26.2841 95.3915L26.1797 95.6045L35.9718 100.442L36.0762 100.229L26.2841 95.3915Z" fill="white"/>
<path d="M25.7831 92.3973L25.6787 92.6104L33.3502 96.3987L33.4545 96.1857L25.7831 92.3973Z" fill="white"/>
<path d="M44.1339 95.2041L43.897 95.208L44.1792 112.477L44.4161 112.474L44.1339 95.2041Z" fill="white"/>
<path opacity="0.4" d="M59.1619 135.714C59.1619 135.714 51.4544 140.851 38.6496 135.533L42.2054 133.15L36.0016 134.318C30.9326 131.764 25.1733 127.586 18.8561 120.949L20.2084 119.999L18.317 120.36C17.2578 119.221 16.1703 118.015 15.0732 116.733C17.8532 116.156 20.6802 115.838 23.5184 115.783L26.554 118.86L25.3719 115.755C35.7179 115.831 51.2085 119.04 59.1619 135.714Z" fill="#00DBAA"/>
<path d="M15.1328 116.664L15.0337 116.91L59.6272 134.982L59.7264 134.735L15.1328 116.664Z" fill="white"/>
<path d="M26.6707 121.463L20.8774 122.936L20.9377 123.174L26.731 121.702L26.6707 121.463Z" fill="white"/>
<path d="M29.7208 122.64L23.0366 124.876L23.1144 125.11L29.7985 122.874L29.7208 122.64Z" fill="white"/>
<path d="M47.2746 121.974L47.4449 121.708C43.3389 119.052 38.7434 117.25 33.9308 116.41L33.874 116.714C38.646 117.551 43.2026 119.34 47.2746 121.974Z" fill="#2E4882"/>
<path d="M105.984 26.8701H53.261C51.762 26.8701 50.5469 28.0902 50.5469 29.5952V137.29C50.5469 138.795 51.762 140.015 53.261 140.015H105.984C107.483 140.015 108.698 138.795 108.698 137.29V29.5952C108.698 28.0902 107.483 26.8701 105.984 26.8701Z" fill="#446BD0"/>
<path d="M109.455 26.8701H56.7317C55.2327 26.8701 54.0176 28.0902 54.0176 29.5952V137.29C54.0176 138.795 55.2327 140.015 56.7317 140.015H109.455C110.954 140.015 112.169 138.795 112.169 137.29V29.5952C112.169 28.0902 110.954 26.8701 109.455 26.8701Z" fill="url(#paint0_linear_538_15590)"/>
<path d="M108.178 40.7618V126.124C108.19 126.524 108.124 126.923 107.983 127.297C107.842 127.672 107.629 128.015 107.356 128.307C107.083 128.599 106.755 128.834 106.391 128.999C106.028 129.163 105.635 129.254 105.237 129.266H60.9495C60.5508 129.254 60.1584 129.163 59.7947 128.999C59.4311 128.834 59.1033 128.599 58.8302 128.307C58.557 128.015 58.3439 127.672 58.2029 127.297C58.0618 126.923 57.9957 126.524 58.0084 126.124V40.7618C57.9829 39.9524 58.2782 39.1659 58.8296 38.5749C59.381 37.9839 60.1434 37.6366 60.9495 37.6094H105.237C106.043 37.6366 106.805 37.9839 107.357 38.5749C107.908 39.1659 108.203 39.9524 108.178 40.7618Z" fill="#E1EAFF"/>
<path d="M90.4171 32.064H75.7682C75.698 32.064 75.6306 32.036 75.581 31.9861C75.5313 31.9362 75.5034 31.8686 75.5034 31.7981C75.5034 31.7276 75.5313 31.66 75.581 31.6101C75.6306 31.5602 75.698 31.5322 75.7682 31.5322H90.4171C90.4874 31.5322 90.5547 31.5602 90.6044 31.6101C90.654 31.66 90.6819 31.7276 90.6819 31.7981C90.6819 31.8686 90.654 31.9362 90.6044 31.9861C90.5547 32.036 90.4874 32.064 90.4171 32.064Z" fill="#2E4882"/>
<path d="M105.804 129.903H60.4103C59.4262 129.883 58.4902 129.472 57.8076 128.76C57.125 128.048 56.7516 127.093 56.7693 126.105V40.7434C56.7593 40.2538 56.8456 39.767 57.0233 39.311C57.201 38.8549 57.4665 38.4385 57.8047 38.0857C58.143 37.7329 58.5472 37.4505 58.9943 37.2548C59.4414 37.0591 59.9226 36.954 60.4103 36.9453H105.804C106.292 36.954 106.773 37.0591 107.22 37.2548C107.667 37.4505 108.071 37.7329 108.41 38.0857C108.748 38.4385 109.013 38.8549 109.191 39.311C109.369 39.767 109.455 40.2538 109.445 40.7434V126.105C109.463 127.093 109.089 128.048 108.407 128.76C107.724 129.472 106.788 129.883 105.804 129.903ZM60.4103 38.2462C59.7623 38.2636 59.1476 38.5382 58.7009 39.0098C58.2541 39.4815 58.0119 40.1117 58.0271 40.7624V126.124C58.0119 126.775 58.2541 127.405 58.7009 127.877C59.1476 128.348 59.7623 128.623 60.4103 128.64H105.804C106.452 128.623 107.067 128.348 107.513 127.877C107.96 127.405 108.202 126.775 108.187 126.124V40.7624C108.202 40.1117 107.96 39.4815 107.513 39.0098C107.067 38.5382 106.452 38.2636 105.804 38.2462H60.4103Z" fill="white"/>
<path d="M112.405 29.5953V121.889H111.932V29.5953C111.932 28.9355 111.671 28.3028 111.207 27.8362C110.742 27.3697 110.112 27.1076 109.455 27.1076H56.7318C56.0747 27.1076 55.4445 27.3697 54.9798 27.8362C54.5151 28.3028 54.2541 28.9355 54.2541 29.5953V103.582H53.7812V29.5953C53.7812 28.8096 54.0921 28.0561 54.6454 27.5005C55.1988 26.9449 55.9493 26.6328 56.7318 26.6328H109.483C110.261 26.6403 111.004 26.9558 111.551 27.5105C112.098 28.0653 112.405 28.8145 112.405 29.5953Z" fill="#2E4882"/>
<path d="M62.7938 140.252H56.7318C55.9493 140.252 55.1988 139.94 54.6454 139.385C54.0921 138.829 53.7812 138.075 53.7812 137.29V124.832H54.2541V137.29C54.2541 137.95 54.5151 138.582 54.9798 139.049C55.4445 139.515 56.0747 139.777 56.7318 139.777H62.7938V140.252Z" fill="#2E4882"/>
<path d="M92.7065 139.777H69.5273V140.251H92.7065V139.777Z" fill="#2E4882"/>
<path d="M131.669 138.382C131.669 139.189 125.721 139.854 118.429 139.854C111.138 139.854 105.142 139.189 105.142 138.382C105.142 138.382 105.142 138.382 105.142 138.335V134.347H131.697V138.325C131.693 138.346 131.683 138.366 131.669 138.382Z" fill="#F49B51"/>
<path d="M131.669 134.385C131.669 135.201 125.721 135.857 118.429 135.857C111.138 135.857 105.142 135.201 105.142 134.385C105.142 133.568 111.091 132.913 118.429 132.913C125.768 132.913 131.669 133.568 131.669 134.385Z" fill="#FCC659"/>
<path d="M134.809 133.568C134.809 134.384 128.86 135.039 121.569 135.039C114.277 135.039 108.282 134.384 108.282 133.568C108.282 133.568 108.282 133.568 108.282 133.52V129.532H134.837V133.511C134.833 133.532 134.823 133.552 134.809 133.568Z" fill="#F49B51"/>
<path d="M134.809 129.57C134.809 130.387 128.86 131.052 121.569 131.052C114.277 131.052 108.282 130.387 108.282 129.57C108.282 128.754 114.23 128.099 121.569 128.099C128.907 128.099 134.809 128.754 134.809 129.57Z" fill="#FCC659"/>
<path d="M131.669 128.754C131.669 129.57 125.721 130.235 118.429 130.235C111.138 130.235 105.142 129.57 105.142 128.754V124.737H131.697V128.716C131.692 128.731 131.682 128.744 131.669 128.754Z" fill="#F49B51"/>
<path d="M118.382 126.237C125.72 126.237 131.669 125.579 131.669 124.766C131.669 123.953 125.72 123.294 118.382 123.294C111.044 123.294 105.095 123.953 105.095 124.766C105.095 125.579 111.044 126.237 118.382 126.237Z" fill="#FCC659"/>
<path d="M118.392 140.015C112.982 140.015 104.944 139.578 104.944 138.382H105.256C105.256 138.838 109.767 139.692 118.392 139.692H119.337V140.006L118.392 140.015Z" fill="#2E4882"/>
<path d="M123.668 139.93V139.616C125.011 139.55 126.25 139.465 127.338 139.351V139.664C126.25 139.74 125.011 139.825 123.668 139.93Z" fill="#2E4882"/>
<path d="M113.143 134.85C108.149 134.394 108.149 133.758 108.149 133.549H108.462C108.462 133.701 109.313 134.176 113.19 134.498L113.143 134.85Z" fill="#2E4882"/>
<path d="M121.597 135.181C120.103 135.181 118.637 135.181 117.238 135.096V134.783C119.734 134.878 122.496 134.897 125.078 134.783V135.181C123.952 135.181 122.78 135.181 121.597 135.181Z" fill="#2E4882"/>
<path d="M128.397 134.973V134.66C129.816 134.565 131.054 134.441 132.076 134.299V134.612C131.064 134.755 129.816 134.878 128.397 134.973Z" fill="#2E4882"/>
<path d="M109.483 126.019C105.048 125.563 105.048 124.994 105.048 124.775H105.369C105.369 124.775 105.483 125.288 109.512 125.725L109.483 126.019Z" fill="#2E4882"/>
<path d="M118.467 126.408C116.945 126.408 115.45 126.408 114.032 126.323V126.01C115.441 126.066 116.935 126.095 118.458 126.095C121.181 126.095 123.801 126 126.023 125.829V126.142C123.829 126.313 121.2 126.408 118.467 126.408Z" fill="#2E4882"/>
<path d="M136.378 123.95C136.378 124.757 130.43 125.421 123.091 125.421C115.753 125.421 109.804 124.757 109.804 123.95C109.804 123.95 109.804 123.95 109.804 123.902V119.914H136.36V123.893C136.37 123.91 136.377 123.929 136.378 123.95Z" fill="#F49B51"/>
<path d="M136.378 119.99C136.378 120.807 130.43 121.462 123.091 121.462C115.753 121.462 109.804 120.807 109.804 119.99C109.804 119.173 115.753 118.509 123.091 118.509C130.43 118.509 136.378 119.135 136.378 119.99Z" fill="#FCC659"/>
<path d="M133.92 119.99C133.92 120.54 129.068 120.939 123.091 120.939C117.115 120.939 112.32 120.502 112.32 119.99C112.32 119.477 117.162 119.04 123.139 119.04C129.115 119.04 133.92 119.401 133.92 119.99Z" fill="#F49B51"/>
<g opacity="0.38">
<path d="M112.102 71.659V109.963H78.8797C78.3041 110.005 77.7349 109.819 77.2946 109.444C76.8542 109.069 76.5779 108.536 76.5249 107.959V73.653C76.5778 73.0766 76.8545 72.5444 77.2952 72.1713C77.7358 71.7981 78.305 71.6141 78.8797 71.659H112.102Z" fill="#A3B2CE"/>
</g>
<path d="M87.7319 4.14782C85.0766 4.22215 82.5029 5.08549 80.3363 6.62863C78.1698 8.17178 76.5077 10.3254 75.5603 12.8171C74.613 15.3088 74.4229 18.0266 75.0141 20.6268C75.6053 23.2269 76.9513 25.5926 78.8818 27.4247C80.8123 29.2567 83.2406 30.4727 85.8595 30.9189C88.4784 31.3651 91.1703 31.0215 93.5947 29.9314C96.0191 28.8414 98.067 27.0539 99.4794 24.7951C100.892 22.5363 101.605 19.9077 101.53 17.2417C101.428 13.6686 99.9179 10.2822 97.3306 7.82685C94.7432 5.3715 91.2907 4.0482 87.7319 4.14782ZM98.9101 17.3177C98.9719 19.451 98.4059 21.5554 97.2828 23.3674C96.1597 25.1795 94.5293 26.6188 92.5957 27.5055C90.6621 28.3921 88.5111 28.6866 86.4117 28.3522C84.3122 28.0178 82.3576 27.0693 80.7922 25.6253C79.2269 24.1814 78.1203 22.3061 77.6109 20.234C77.1015 18.1619 77.2119 15.985 77.9283 13.9755C78.6447 11.9661 79.9353 10.2134 81.6387 8.93657C83.3421 7.65975 85.3826 6.91551 87.505 6.79697H87.8076C90.6199 6.72326 93.3504 7.7514 95.421 9.66369C97.4915 11.576 98.7395 14.2223 98.9007 17.0423C98.9101 17.0708 98.9101 17.1657 98.9101 17.2702V17.3177Z" fill="#FCC659"/>
<path d="M98.9005 16.9761C98.9005 17.0711 98.9005 17.166 98.9005 17.2705C98.9584 19.4009 98.3899 21.5012 97.2658 23.309C96.1417 25.1168 94.5119 26.552 92.5802 27.4351C90.6484 28.3183 88.5002 28.6104 86.4041 28.2748C84.3079 27.9392 82.3568 26.9909 80.7943 25.5483C79.2319 24.1058 78.1275 22.2329 77.6191 20.1638C77.1106 18.0946 77.2208 15.9209 77.9357 13.9142C78.6507 11.9076 79.9387 10.1569 81.6389 8.88102C83.3391 7.60512 85.3761 6.86053 87.4953 6.7403H87.798C90.6104 6.66398 93.3419 7.68969 95.4142 9.60023C97.4865 11.5108 98.7369 14.1561 98.9005 16.9761Z" fill="#F49B51"/>
<path d="M87.8928 25.8924L87.7793 23.8604C86.6893 23.9171 85.6052 23.6672 84.649 23.1388L85.0651 21.762C85.9577 22.2764 86.9783 22.5235 88.0063 22.4741C89.4248 22.3887 90.3516 21.5246 90.2854 20.3567C90.2192 19.1888 89.4059 18.6096 87.8833 18.0874C85.7838 17.3942 84.4693 16.5301 84.3748 14.783C84.3388 13.9609 84.6096 13.1548 85.1344 12.5226C85.6591 11.8904 86.3999 11.4775 87.2119 11.3648L87.0984 9.32329L88.3373 9.25684L88.4507 11.2128C89.3668 11.1658 90.2794 11.3588 91.0987 11.7731L90.6731 13.1309C89.8818 12.7158 88.9916 12.5285 88.1008 12.5896C86.5593 12.6751 86.0203 13.6341 86.0675 14.4887C86.1243 15.5332 86.8998 16.0174 88.6872 16.6536C90.8055 17.3847 91.9025 18.3722 92.0066 20.1668C92.039 21.0323 91.7519 21.8794 91.2003 22.5453C90.6488 23.2113 89.8716 23.6492 89.0181 23.775L89.1411 25.8734L87.8928 25.8924Z" fill="#FCC659"/>
<path d="M98.3045 14.2889L98.2194 14.0325C97.7167 12.5893 96.9123 11.2706 95.8603 10.1652C94.8082 9.05975 93.5328 8.19305 92.1196 7.62329L92.2331 7.35742C93.682 7.93997 94.9902 8.82675 96.07 9.95834C97.1497 11.0899 97.9761 12.4402 98.4937 13.9186C98.4937 14.023 98.5599 14.1085 98.5882 14.2034L98.3045 14.2889Z" fill="#2E4882"/>
<path d="M92.1197 7.62302C89.818 6.69651 87.2671 6.60252 84.904 7.35715L84.8188 7.08178C87.2466 6.30219 89.8694 6.39961 92.2331 7.35715L92.1197 7.62302Z" fill="#2E4882"/>
<path d="M97.8886 22.5879L97.6333 22.4454C98.2719 21.1971 98.6637 19.8364 98.7871 18.4385H99.0708C98.9597 19.8875 98.5575 21.299 97.8886 22.5879Z" fill="#2E4882"/>
<path d="M96.2432 7.08299C95.163 6.23208 93.9568 5.55607 92.6685 5.0795L92.7725 4.78516C94.095 5.27166 95.3332 5.96375 96.4418 6.83612L96.2432 7.08299Z" fill="#2E4882"/>
<path d="M96.3 28.456L96.1108 28.1997C98.8691 26.1106 100.705 23.0218 101.226 19.5926C101.747 16.1634 100.913 12.6654 98.9007 9.84545L99.156 9.66504C101.22 12.5541 102.079 16.1385 101.549 19.6541C101.019 23.1697 99.1424 26.3383 96.3189 28.4845L96.3 28.456Z" fill="#2E4882"/>
<path d="M52.6273 49.2317C50.4403 49.738 48.4519 50.8841 46.9136 52.5249C45.3753 54.1658 44.3561 56.2278 43.9849 58.4502C43.6137 60.6726 43.9072 62.9556 44.8282 65.0106C45.7493 67.0655 47.2565 68.8002 49.1594 69.9951C51.0622 71.19 53.2753 71.7916 55.5186 71.7237C57.762 71.6559 59.935 70.9217 61.7628 69.614C63.5906 68.3063 64.9911 66.4837 65.7873 64.3769C66.5835 62.27 66.7397 59.9734 66.2359 57.7774C65.9014 56.319 65.284 54.9411 64.4191 53.7224C63.5541 52.5036 62.4584 51.4678 61.1947 50.6743C59.931 49.8807 58.5239 49.3449 57.0539 49.0973C55.5839 48.8498 54.0797 48.8955 52.6273 49.2317ZM64.0892 58.2712C64.6335 60.6368 64.2214 63.1227 62.9433 65.1838C61.6652 67.2449 59.6252 68.7131 57.2707 69.2666C54.9145 69.8131 52.4387 69.3994 50.3859 68.1161C48.3331 66.8328 46.8707 64.7846 46.3195 62.4206C45.784 60.0984 46.1709 57.6581 47.398 55.6176C48.6252 53.5771 50.5959 52.0971 52.8921 51.4916L53.138 51.4251C55.4585 50.8889 57.8958 51.2836 59.9307 52.5252C61.9657 53.7667 63.4374 55.7568 64.0325 58.0718L64.0892 58.2712Z" fill="#FCC659"/>
<path d="M64.0231 57.9957L64.0798 58.2426C64.3519 59.4141 64.3914 60.628 64.1959 61.8148C64.0004 63.0016 63.5738 64.1382 62.9406 65.1593C62.3073 66.1805 61.4798 67.0664 60.5053 67.7662C59.5308 68.4661 58.4285 68.9662 57.2613 69.238C54.9052 69.7845 52.4293 69.3708 50.3765 68.0875C48.3237 66.8042 46.8614 64.756 46.3101 62.392C45.7744 60.0686 46.161 57.627 47.388 55.585C48.615 53.543 50.5859 52.0611 52.8827 51.4535L53.1286 51.3965C55.4427 50.8586 57.8744 51.2468 59.9082 52.4788C61.942 53.7107 63.418 55.6895 64.0231 57.9957Z" fill="#F49B51"/>
<path d="M56.401 67.2441L55.966 65.573C55.0762 65.8072 54.1385 65.7842 53.2612 65.5065L53.3747 64.3006C54.1999 64.5755 55.0866 64.6052 55.9281 64.3861C56.1729 64.3581 56.4091 64.2793 56.622 64.1548C56.8348 64.0303 57.0195 63.8627 57.1644 63.6628C57.3094 63.4628 57.4113 63.2348 57.4639 62.9931C57.5164 62.7515 57.5184 62.5016 57.4696 62.2591C57.2332 61.3096 56.4388 60.9583 55.0959 60.7779C53.2045 60.5595 52.0129 60.0752 51.6441 58.632C51.4785 57.9566 51.57 57.2435 51.9006 56.6323C52.2312 56.0212 52.7771 55.5559 53.4315 55.3276L52.9964 53.6565L54.0178 53.3906L54.4339 54.9953C55.1844 54.8003 55.972 54.8003 56.7225 54.9953L56.5901 56.1917C55.8661 55.9907 55.1012 55.9907 54.3772 56.1917C53.1099 56.524 52.8262 57.4071 53.0059 58.0907C53.2234 58.9548 53.9516 59.2207 55.5309 59.4391C57.4223 59.6859 58.4815 60.3221 58.8693 61.7939C59.0392 62.5068 58.9399 63.2576 58.5906 63.9012C58.2412 64.5449 57.6667 65.0356 56.9779 65.2786L57.4223 66.9972L56.401 67.2441Z" fill="#FCC659"/>
<path d="M63.0774 55.8783L62.9639 55.6789C62.307 54.5694 61.421 53.6139 60.3656 52.8769C59.3102 52.1399 58.1098 51.6384 56.8452 51.4061L56.8925 51.1592C58.1891 51.3984 59.4198 51.9127 60.5027 52.6675C61.5855 53.4223 62.4955 54.4004 63.172 55.5365L63.2949 55.7549L63.0774 55.8783Z" fill="#2E4882"/>
<path d="M56.8451 51.406C54.7912 51.0164 52.6662 51.3518 50.8305 52.3555L50.7075 52.1466C52.5865 51.0899 54.7736 50.7239 56.8924 51.1116L56.8451 51.406Z" fill="#2E4882"/>
<path d="M64.0895 62.8102L63.8525 62.7437C64.1748 61.6023 64.2682 60.4082 64.1274 59.2305H64.3738C64.5124 60.4309 64.4158 61.6468 64.0895 62.8102Z" fill="#2E4882"/>
<path d="M60.1929 50.2573C59.1582 49.7337 58.0474 49.378 56.9019 49.2034V48.9375C58.0771 49.1172 59.2166 49.4825 60.278 50.02L60.1929 50.2573Z" fill="#2E4882"/>
<path d="M63.7963 67.9372L63.5977 67.7568C65.5279 65.5573 66.5268 62.6882 66.382 59.7604C66.2372 56.8325 64.96 54.0769 62.8223 52.0803L63.002 51.8809C65.1887 53.9275 66.4949 56.7494 66.6432 59.7472C66.7915 62.7451 65.7703 65.683 63.7963 67.9372Z" fill="#2E4882"/>
<path d="M81.4334 107.02H134.535C135.631 107.02 136.521 106.127 136.521 105.026V70.7099C136.521 69.6087 135.631 68.7159 134.535 68.7159H81.4334C80.3365 68.7159 79.4474 69.6087 79.4474 70.7099V105.026C79.4474 106.127 80.3365 107.02 81.4334 107.02Z" fill="url(#paint1_linear_538_15590)"/>
<path d="M93.8218 92.1309H84.2607C83.963 92.1309 83.7217 92.3732 83.7217 92.6721V94.5141C83.7217 94.8131 83.963 95.0554 84.2607 95.0554H93.8218C94.1195 95.0554 94.3608 94.8131 94.3608 94.5141V92.6721C94.3608 92.3732 94.1195 92.1309 93.8218 92.1309Z" fill="white"/>
<path d="M106.457 92.1309H96.896C96.5983 92.1309 96.3569 92.3732 96.3569 92.6721V94.5141C96.3569 94.8131 96.5983 95.0554 96.896 95.0554H106.457C106.755 95.0554 106.996 94.8131 106.996 94.5141V92.6721C106.996 92.3732 106.755 92.1309 106.457 92.1309Z" fill="white"/>
<path d="M119.091 92.1309H109.53C109.233 92.1309 108.991 92.3732 108.991 92.6721V94.5141C108.991 94.8131 109.233 95.0554 109.53 95.0554H119.091C119.389 95.0554 119.63 94.8131 119.63 94.5141V92.6721C119.63 92.3732 119.389 92.1309 119.091 92.1309Z" fill="white"/>
<path d="M131.726 92.1309H122.165C121.867 92.1309 121.625 92.3732 121.625 92.6721V94.5141C121.625 94.8131 121.867 95.0554 122.165 95.0554H131.726C132.023 95.0554 132.265 94.8131 132.265 94.5141V92.6721C132.265 92.3732 132.023 92.1309 131.726 92.1309Z" fill="white"/>
<path d="M131.603 97.8467H119.025C118.665 97.8467 118.373 98.14 118.373 98.5019V100.116C118.373 100.478 118.665 100.771 119.025 100.771H131.603C131.963 100.771 132.255 100.478 132.255 100.116V98.5019C132.255 98.14 131.963 97.8467 131.603 97.8467Z" fill="white"/>
<path d="M86.1426 80.0153V76.2172C86.1426 75.8118 86.303 75.4229 86.5885 75.1362C86.8741 74.8495 87.2613 74.6885 87.6651 74.6885H95.0984C95.5005 74.691 95.8854 74.8532 96.1689 75.1396C96.4524 75.426 96.6115 75.8134 96.6115 76.2172V80.0153C96.6115 80.4191 96.4524 80.8065 96.1689 81.0929C95.8854 81.3793 95.5005 81.5415 95.0984 81.544H87.6651C87.2613 81.544 86.8741 81.3829 86.5885 81.0963C86.303 80.8096 86.1426 80.4207 86.1426 80.0153ZM87.6651 75.0588C87.3692 75.0588 87.0853 75.1768 86.8761 75.387C86.6668 75.5971 86.5492 75.8821 86.5492 76.1792V79.9773C86.5492 80.2745 86.6668 80.5594 86.8761 80.7696C87.0853 80.9797 87.3692 81.0977 87.6651 81.0977H95.0984C95.3928 81.1054 95.6783 80.9959 95.8926 80.7932C96.107 80.5904 96.2328 80.3108 96.2427 80.0153V76.2172C96.2427 75.9217 96.1264 75.6381 95.9192 75.4283C95.7119 75.2184 95.4305 75.0993 95.1362 75.0968L87.6651 75.0588Z" fill="white"/>
<path d="M130.496 77.5653C130.497 77.5152 130.517 77.4674 130.553 77.4323C130.951 77.0329 131.267 76.5585 131.483 76.0363C131.698 75.5141 131.809 74.9544 131.809 74.3891C131.809 73.8239 131.698 73.2642 131.483 72.742C131.267 72.2198 130.951 71.7454 130.553 71.3459C130.535 71.329 130.52 71.3085 130.51 71.2856C130.5 71.2627 130.495 71.238 130.495 71.213C130.495 71.188 130.5 71.1633 130.51 71.1404C130.52 71.1175 130.535 71.097 130.553 71.0801C130.588 71.048 130.633 71.0303 130.681 71.0303C130.728 71.0303 130.773 71.048 130.808 71.0801C131.244 71.5159 131.59 72.0338 131.826 72.6041C132.062 73.1744 132.183 73.7858 132.183 74.4034C132.183 75.0209 132.062 75.6324 131.826 76.2027C131.59 76.773 131.244 77.2909 130.808 77.7267C130.773 77.7587 130.728 77.7765 130.681 77.7765C130.633 77.7765 130.588 77.7587 130.553 77.7267C130.532 77.7061 130.515 77.6808 130.505 77.6528C130.496 77.6247 130.492 77.5948 130.496 77.5653Z" fill="white"/>
<path d="M129.579 72.2763C129.581 72.2281 129.597 72.1816 129.627 72.1434C129.644 72.125 129.664 72.1103 129.687 72.1002C129.71 72.0902 129.734 72.085 129.759 72.085C129.784 72.085 129.809 72.0902 129.831 72.1002C129.854 72.1103 129.875 72.125 129.892 72.1434C130.481 72.7409 130.812 73.5479 130.812 74.389C130.812 75.2301 130.481 76.0372 129.892 76.6346C129.875 76.653 129.854 76.6678 129.831 76.6778C129.809 76.6879 129.784 76.6931 129.759 76.6931C129.734 76.6931 129.71 76.6879 129.687 76.6778C129.664 76.6678 129.644 76.653 129.627 76.6346C129.595 76.5996 129.577 76.5539 129.577 76.5065C129.577 76.459 129.595 76.4133 129.627 76.3783C130.141 75.8467 130.429 75.1348 130.429 74.3938C130.429 73.6527 130.141 72.9409 129.627 72.4093C129.597 72.3711 129.581 72.3246 129.579 72.2763Z" fill="white"/>
<path d="M128.69 75.5243C128.691 75.4742 128.711 75.4265 128.747 75.3914C129.01 75.1247 129.157 74.7648 129.157 74.3897C129.157 74.0145 129.01 73.6546 128.747 73.3879C128.728 73.371 128.714 73.3505 128.704 73.3276C128.694 73.3047 128.688 73.28 128.688 73.255C128.688 73.23 128.694 73.2053 128.704 73.1824C128.714 73.1595 128.728 73.1389 128.747 73.122C128.782 73.09 128.827 73.0723 128.875 73.0723C128.922 73.0723 128.967 73.09 129.002 73.122C129.169 73.288 129.302 73.4855 129.392 73.703C129.482 73.9206 129.529 74.154 129.529 74.3897C129.529 74.6254 129.482 74.8587 129.392 75.0763C129.302 75.2939 129.169 75.4913 129.002 75.6573C128.967 75.6893 128.922 75.7071 128.875 75.7071C128.827 75.7071 128.782 75.6893 128.747 75.6573C128.711 75.6222 128.691 75.5744 128.69 75.5243Z" fill="white"/>
<path d="M136.729 78.087H136.332V70.4908C136.327 70.0181 136.136 69.5665 135.801 69.2341C135.467 68.9016 135.015 68.7152 134.544 68.7152H118.288V68.3164H134.544C135.124 68.3164 135.679 68.5475 136.089 68.9588C136.499 69.3702 136.729 69.9281 136.729 70.5098V78.087Z" fill="#2E4882"/>
<path d="M136.73 82.0752H136.332V86.462H136.73V82.0752Z" fill="#2E4882"/>
<path d="M99.8653 68.3076H89.4531V68.7057H99.8653V68.3076Z" fill="#2E4882"/>
<path d="M137.788 28.8356C134.98 28.073 132.01 28.1634 129.254 29.0955C126.497 30.0276 124.078 31.7594 122.302 34.072C120.526 36.3846 119.473 39.174 119.276 42.0876C119.078 45.0012 119.746 47.908 121.195 50.4405C122.643 52.973 124.807 55.0174 127.412 56.3152C130.018 57.613 132.948 58.1058 135.833 57.7315C138.717 57.3571 141.426 56.1323 143.618 54.2119C145.809 52.2916 147.384 49.7619 148.143 46.9429C148.65 45.0713 148.784 43.1176 148.537 41.1939C148.291 39.2701 147.669 37.4141 146.707 35.7321C145.745 34.0501 144.462 32.5751 142.932 31.3917C141.401 30.2083 139.653 29.3397 137.788 28.8356ZM145.353 46.1928C144.532 49.2341 142.542 51.8237 139.819 53.3923C137.097 54.9608 133.867 55.3802 130.837 54.5581C127.873 53.7072 125.357 51.7295 123.823 49.0452C122.288 46.361 121.857 43.1819 122.621 40.1835C123.384 37.1852 125.282 34.604 127.911 32.9885C130.54 31.373 133.693 30.8505 136.7 31.5322L137.022 31.6177C139.991 32.4308 142.53 34.3714 144.1 37.0292C145.671 39.6871 146.151 42.8539 145.438 45.8605L145.353 46.1928Z" fill="#FCC659"/>
<path d="M145.42 45.8697L145.335 46.1831C144.513 49.2244 142.523 51.8139 139.801 53.3825C137.079 54.9511 133.848 55.3704 130.818 54.5483C127.855 53.6975 125.338 51.7197 123.804 49.0355C122.27 46.3513 121.839 43.1722 122.602 40.1738C123.366 37.1754 125.264 34.5942 127.893 32.9787C130.522 31.3632 133.675 30.8408 136.682 31.5225L137.003 31.6079C139.977 32.4211 142.518 34.3645 144.089 37.0267C145.661 39.6888 146.138 42.8604 145.42 45.8697Z" fill="#F49B51"/>
<path d="M131.092 51.738L131.613 49.5636C130.454 49.2796 129.399 48.6742 128.567 47.8165L129.428 46.5062C130.196 47.3224 131.181 47.902 132.265 48.1773C133.788 48.5477 135.027 47.9115 135.32 46.6866C135.613 45.4617 134.941 44.5692 133.513 43.5342C131.537 42.1479 130.421 40.8281 130.875 38.9575C131.099 38.0831 131.64 37.324 132.392 36.8288C133.144 36.3336 134.053 36.1379 134.941 36.2799L135.471 34.1055L136.795 34.4283L136.294 36.5172C137.27 36.7619 138.168 37.2521 138.904 37.9415L138.024 39.2329C137.326 38.546 136.452 38.0663 135.499 37.8466C133.844 37.4478 132.984 38.2834 132.776 39.1474C132.511 40.2678 133.164 41.0464 134.847 42.2428C136.833 43.6861 137.684 45.0914 137.221 46.9904C136.985 47.9102 136.42 48.71 135.632 49.236C134.845 49.7619 133.891 49.9767 132.955 49.839L132.416 52.0704L131.092 51.738Z" fill="#FCC659"/>
<path d="M145.675 42.86C145.675 42.7651 145.675 42.6606 145.675 42.5657C145.6 40.894 145.171 39.2576 144.416 37.7658C143.661 36.2741 142.597 34.9614 141.296 33.9156L141.495 33.6592C142.831 34.7306 143.923 36.0759 144.7 37.6053C145.476 39.1347 145.918 40.8129 145.996 42.5277C145.996 42.6511 145.996 42.7556 145.996 42.86H145.675Z" fill="#2E4882"/>
<path d="M141.287 33.916C139.166 32.2069 136.516 31.2966 133.797 31.3428V31.02C136.587 30.977 139.305 31.9103 141.485 33.6596L141.287 33.916Z" fill="#2E4882"/>
<path d="M142.63 51.4344L142.394 51.216C143.462 50.1271 144.304 48.8362 144.871 47.418L145.174 47.5319C144.585 48.9857 143.721 50.311 142.63 51.4344Z" fill="#2E4882"/>
<path d="M145.817 34.6558C144.948 33.4218 143.896 32.3297 142.696 31.4179L142.904 31.1426C144.134 32.0747 145.212 33.1926 146.1 34.4564L145.817 34.6558Z" fill="#2E4882"/>
<path d="M139.112 57.0935L138.998 56.7612C142.555 55.434 145.456 52.7652 147.083 49.3229C148.709 45.8807 148.934 41.9369 147.708 38.331L148.03 38.2266C149.284 41.9141 149.054 45.9481 147.388 49.4677C145.722 52.9872 142.752 55.7136 139.112 57.065V57.0935Z" fill="#2E4882"/>
<path d="M125.049 33.9918C126.102 34.5092 126.949 35.3694 127.451 36.4321C127.933 35.3611 128.763 34.487 129.806 33.9538C128.767 33.4158 127.938 32.5431 127.451 31.4756C126.96 32.5649 126.112 33.4527 125.049 33.9918Z" fill="#FFE6A6"/>
<path d="M135.584 54.3026C136.19 54.6125 136.671 55.1221 136.946 55.7459C137.228 55.1232 137.711 54.6145 138.318 54.3026C137.697 53.9977 137.2 53.4883 136.908 52.8594C136.643 53.4771 136.176 53.9859 135.584 54.3026Z" fill="#FFE6A6"/>
<path d="M92.3657 25.6743C93.1044 26.0588 93.6937 26.6806 94.0396 27.4404C94.3855 26.6806 94.9748 26.0588 95.7135 25.6743C94.9748 25.2898 94.3855 24.668 94.0396 23.9082C93.6937 24.668 93.1044 25.2898 92.3657 25.6743Z" fill="#FFE6A6"/>
<path d="M45.9795 56.3715C46.5774 56.6796 47.054 57.1815 47.3318 57.7958C47.6097 57.1815 48.0863 56.6796 48.6842 56.3715C48.0863 56.0635 47.6097 55.5616 47.3318 54.9473C47.0565 55.5633 46.5792 56.066 45.9795 56.3715Z" fill="#FFE6A6"/>
<path d="M89.623 28.6075C90.0399 28.8383 90.3716 29.1979 90.5687 29.633C90.7606 29.1944 91.0936 28.8332 91.5145 28.6075C91.0918 28.3842 90.758 28.0223 90.5687 27.582C90.3739 28.0186 90.0416 28.3789 89.623 28.6075Z" fill="#FFE6A6"/>
<path d="M7.17678 73.5773L6.88362 73.6912C4.69905 67.8897 5.0395 61.6229 7.98064 53.9697L8.2738 54.0837C5.3705 61.6608 5.02058 67.8612 7.17678 73.5773Z" fill="#2E4882"/>
<path d="M6.27838 78.068L6.01359 78.2295C-0.294244 67.9936 3.38454 57.454 7.81988 48.5L8.10358 48.6329C3.70607 57.5204 0.0556643 67.9557 6.27838 78.068Z" fill="#2E4882"/>
<path d="M140.114 14.1375C135.055 7.79474 129.901 4.37646 123.896 3.36997L123.943 3.05664C130.033 4.07263 135.291 7.52887 140.36 13.9381L140.114 14.1375Z" fill="#2E4882"/>
<path d="M144.89 16.7294C139.462 8.44963 132.312 0.0178958 120.481 0.321742V0.00839886C132.463 -0.304943 139.67 8.20276 145.145 16.5585L144.89 16.7294Z" fill="#2E4882"/>
<defs>
<linearGradient id="paint0_linear_538_15590" x1="83.0932" y1="26.8701" x2="83.0932" y2="140.015" gradientUnits="userSpaceOnUse">
<stop stop-color="#8F79F0"/>
<stop offset="1" stop-color="#333CFF"/>
</linearGradient>
<linearGradient id="paint1_linear_538_15590" x1="136.521" y1="87.8677" x2="80.2788" y2="87.7769" gradientUnits="userSpaceOnUse">
<stop stop-color="#8975F2"/>
<stop offset="1" stop-color="#3940FF"/>
</linearGradient>
</defs>
</svg>
